<svg data-noselect="" viewBox="0 0 400 300" width="400" height="300" preserveAspectRatio="none" version="1.1" xmlns="http://www.w3.org/2000/svg" style="background: rgba(255, 255, 255, 0);"><defs></defs> <g id="shape_vYPerRuJtr" transform="translate(53.5,5.854949951171875) rotate(0,293,293) scale(0.5,0.5)" filter="" style="cursor: move; opacity: 1;"><g><rect fill="rgba(0,0,0,0)" width="606" height="606" x="-10" y="-10"></rect><svg version="1.1" id="图层_1" x="0px" y="0px" width="586" height="586" viewBox="0 0 100 100" enable-background="new 0 0 100 100" xml:space="preserve" xmlns="http://www.w3.org/2000/svg" xmlns:xlink="http://www.w3.org/1999/xlink" xmlns:xml="http://www.w3.org/XML/1998/namespace" preserveAspectRatio="none" data-parent="shape_vYPerRuJtr">
  <path fill="#404040" d="M29.287,0L0,29.287v41.424L29.287,100h41.424L100,70.711V29.287L70.711,0H29.287z M95,68.64L68.64,95H31.358
	L5,68.64V31.358L31.358,5H68.64L95,31.358V68.64z" class=""></path>
</svg></g> <!----></g><g id="shape_e3cl8ySYWR" transform="translate(168.5,122.19536590576172) rotate(0,73.625,70) scale(0.5,0.5)" filter="" style="cursor: move; opacity: 1;"><g><svg xmlns="http://www.w3.org/2000/svg" version="1.1" xmlns:xlink="http://www.w3.org/1999/xlink" overflow="hidden" style="top:0; left: 0" width="147.25" height="140" viewBox="0 0 147.25 140" preserveAspectRatio="none" data-parent="shape_e3cl8ySYWR"><rect fill="rgba(0,0,0,0)" width="147.25" height="140"></rect> <rect opacity="0"></rect><g transform="translate(0 0)" data-width="142.25"><path fill="#000000" d="M39 0L27.38 0L27.38-35.63L-0.13-91.63L12.25-91.63L24-65.75L24-65.75Q25-63.38 26-61.13L26-61.13L26-61.13Q29.38-53.63 33-45.75L33-45.75L33.50-45.75L33.50-45.75Q34.38-47.50 35.13-49.25L35.13-49.25L35.13-49.25Q39.13-57.50 42.63-65.75L42.63-65.75L54.50-91.63L66.50-91.63L39-35.63L39 0Z" transform="translate(0 110)"></path><path fill="#000000" d="M31.25 1.63L31.25 1.63L31.25 1.63Q20.63 1.63 15.63-5.19L15.63-5.19L15.63-5.19Q10.63-12 10.63-24.88L10.63-24.88L10.63-67.88L22-67.88L22-26.25L22-26.25Q22-16.75 25-12.50L25-12.50L25-12.50Q28-8.25 34.75-8.25L34.75-8.25L34.75-8.25Q40-8.25 44.19-11L44.19-11L44.19-11Q48.38-13.75 53.13-19.75L53.13-19.75L53.13-67.88L64.50-67.88L64.50 0L55 0L54.13-10.63L53.75-10.63L53.75-10.63Q49-5 43.63-1.69L43.63-1.69L43.63-1.69Q38.25 1.63 31.25 1.63Z" transform="translate(66.375 110)"></path></g></svg></g> <!----></g><g id="shape_pv37wBGeDU" transform="translate(122.00000762939453,64.11479187011719) rotate(0,212.0000052118484,176.4803125848455) scale(0.5,0.5)" filter="" style="cursor: move; opacity: 1;"><g><rect fill="rgba(0,0,0,0)" width="444.0000104236968" height="372.960625169691" x="-10" y="-10"></rect><svg xmlns="http://www.w3.org/2000/svg" xmlns:xlink="http://www.w3.org/1999/xlink" shape-rendering="auto" id="layer1" text-rendering="auto" width="424.0000104236968" contentscripttype="text/ecmascript" color-rendering="auto" color-interpolation="auto" xml:space="preserve" preserveAspectRatio="none" viewBox="0 0 63.326 52.716" image-rendering="auto" zoomAndPan="magnify" version="1.1" contentstyletype="text/css" x="0px" enable-background="new 0 0 63.326 52.716" height="352.960625169691" y="0px" data-parent="shape_pv37wBGeDU">
 <g fill="#c7000a">
  <path clip-rule="evenodd" d="M31.391,40.47c0.038-0.043,0.118-0.085,0.214-0.128   C31.598,40.389,31.482,40.47,31.391,40.47z" fill-rule="evenodd"></path>
  <path clip-rule="evenodd" d="M37.429,42.405c0.068-0.071,0.281-0.289,0.306-0.204   C37.603,42.313,37.533,42.339,37.429,42.405z" fill-rule="evenodd"></path>
  <path clip-rule="evenodd" d="M37.906,42.177c-0.003-0.046,0.204-0.161,0.284-0.238   C38.218,41.982,37.976,42.153,37.906,42.177z" fill-rule="evenodd"></path>
  <path clip-rule="evenodd" d="M38.57,40.691c0.039-0.067,0.17-0.212,0.257-0.251   C38.835,40.486,38.646,40.615,38.57,40.691z" fill-rule="evenodd"></path>
  <path clip-rule="evenodd" d="M39.571,40.795c0.064-0.118,0.208-0.279,0.424-0.48   C39.959,40.424,39.734,40.633,39.571,40.795z" fill-rule="evenodd"></path>
  <path clip-rule="evenodd" d="M38.07,37.01c0.178-0.2,0.474-0.663,0.651-0.765   C38.481,36.47,38.306,36.811,38.07,37.01z" fill-rule="evenodd"></path>
  <path clip-rule="evenodd" d="M39.795,37.486c0.155-0.342,0.636-0.795,0.847-1.218   c0.109-0.004-0.386,0.563-0.416,0.707c-0.074,0.085-0.137,0.142-0.203,0.203C39.95,37.284,39.919,37.414,39.795,37.486z" fill-rule="evenodd"></path>
  <path clip-rule="evenodd" d="M42.407,33.827c-0.045-0.01-0.057-0.053,0.004-0.165   c0.028-0.025,0.055-0.027,0.079-0.009L42.407,33.827z" fill-rule="evenodd"></path>
  <path clip-rule="evenodd" d="M42.597,31.896c0.029-0.298,0.238-0.921,0.391-1.256   c0.003-0.05-0.023-0.061,0.008-0.146c0.053-0.211,0.201-0.676,0.08-0.219C42.97,30.853,42.787,31.281,42.597,31.896z" fill-rule="evenodd"></path>
  <path clip-rule="evenodd" d="M43.476,31.975c0-0.077,0.035-0.193,0.083-0.337   C43.589,31.687,43.513,31.928,43.476,31.975z" fill-rule="evenodd"></path>
  <path clip-rule="evenodd" d="M41.511,30.84c-0.021-0.059,0.085-0.261,0.107-0.378   C41.618,30.552,41.573,30.758,41.511,30.84z" fill-rule="evenodd"></path>
  <path clip-rule="evenodd" d="M43.323,31.538c-0.006-0.127,0.094-0.377,0.103-0.529   C43.53,30.902,43.375,31.361,43.323,31.538z" fill-rule="evenodd"></path>
  <path clip-rule="evenodd" d="M43.62,31.4c-0.018-0.107,0.081-0.373,0.129-0.579   C43.753,30.953,43.667,31.214,43.62,31.4z" fill-rule="evenodd"></path>
  <path clip-rule="evenodd" d="M41.251,30.323c-0.051-0.031,0.002-0.19,0.023-0.309   C41.318,30.054,41.263,30.216,41.251,30.323z" fill-rule="evenodd"></path>
  <path clip-rule="evenodd" d="M41.697,30.259c-0.002-0.148,0.136-0.615,0.2-0.849   C41.86,29.716,41.805,29.942,41.697,30.259z" fill-rule="evenodd"></path>
  <path clip-rule="evenodd" d="M43.777,30.729c-0.005-0.263,0.144-0.601,0.2-0.806   C43.968,30.159,43.806,30.464,43.777,30.729z" fill-rule="evenodd"></path>
  <path clip-rule="evenodd" d="M43.173,29.912c-0.002-0.095,0.024-0.248,0.041-0.379   C43.29,29.524,43.21,29.759,43.173,29.912z" fill-rule="evenodd"></path>
  <path clip-rule="evenodd" d="M43.437,29.553c-0.018-0.119,0.028-0.211,0.067-0.374   C43.536,29.225,43.453,29.439,43.437,29.553z" fill-rule="evenodd"></path>
  <path clip-rule="evenodd" d="M43.727,29.193c-0.033-0.062,0.026-0.414,0.101-0.319   c-0.014,0.102-0.042,0.083-0.068,0.08C43.729,29.065,43.768,29.064,43.727,29.193z" fill-rule="evenodd"></path>
  <path clip-rule="evenodd" d="M42.616,28.01C42.649,28.238,42.484,28.595,42.616,28.01   L42.616,28.01z" fill-rule="evenodd"></path>
  <path clip-rule="evenodd" d="M42.062,27.449c-0.012-0.181,0.012-0.353,0.048-0.559   C42.117,27.022,42.091,27.364,42.062,27.449z" fill-rule="evenodd"></path>
  <path clip-rule="evenodd" d="M41.978,27.303c-0.059,0.056-0.021-0.286,0.023-0.213   L41.978,27.303z" fill-rule="evenodd"></path>
  <path clip-rule="evenodd" d="M41.124,26.821c-0.027-0.061-0.027-0.188-0.008-0.288   C41.155,26.566,41.15,26.776,41.124,26.821z" fill-rule="evenodd"></path>
  <path clip-rule="evenodd" d="M41.269,25.694C41.192,25.354,41.274,25.235,41.269,25.694   L41.269,25.694z" fill-rule="evenodd"></path>
  <path clip-rule="evenodd" d="M38.572,34.325c0.017-0.069,0.058-0.155,0.056-0.211   c0.125-0.069,0.196-0.295,0.307-0.426C38.897,33.908,38.692,34.045,38.572,34.325z" fill-rule="evenodd"></path>
  <path clip-rule="evenodd" d="M41.895,30.662c0.026-0.104,0.058-0.082,0.081-0.206   c0.029-0.002,0.016,0.05,0.035,0.061c0.073-0.21,0.09-0.334,0.135-0.518c0.007,0.027,0.014,0.054,0.037,0.061   c-0.025-0.267,0.191-0.514,0.26-1.038c0,0.516-0.36,1.579-0.488,1.998c-0.043-0.083,0.135-0.431,0.072-0.497   C41.979,30.497,41.947,30.757,41.895,30.662z" fill-rule="evenodd"></path>
  <path clip-rule="evenodd" d="M43.569,30.652c0.013-0.054-0.008-0.032-0.016-0.006   c-0.033-0.025,0.051-0.206,0.066-0.232C43.657,30.485,43.446,31.089,43.569,30.652z" fill-rule="evenodd"></path>
  <path clip-rule="evenodd" d="M44.036,27.113l0.066,0.011c0.025-0.306,0.043-0.796,0.109-0.999   c0.043,0.367-0.145,1.127-0.067,1.396c-0.022,0.061-0.038,0.174-0.064,0.232c0.001,0.859-0.286,1.746-0.448,2.614   c-0.064-0.423,0.365-1.246,0.256-1.725c0.021-0.071,0.018,0.001,0.008,0.051C43.96,28.313,44.103,27.622,44.036,27.113z" fill-rule="evenodd"></path>
  <path clip-rule="evenodd" d="M41.853,27.194c-0.023-0.069-0.019-0.189-0.039-0.265   C41.821,26.892,41.907,27.112,41.853,27.194z" fill-rule="evenodd"></path>
  <path clip-rule="evenodd" d="M30.505,10.55c0.164,0.061,0.367,0.078,0.539,0.148   c0.402,0.169,0.726,0.394,1.129,0.563c0.357,0.149,0.719,0.253,1.076,0.447c0.264,0.146,0.359,0.179,0.54,0.272   c0.528,0.275,0.891,0.599,1.202,0.62c0.402,0.167,0.846,0.467,1.191,0.644c0.055,0.027,0.14,0.12,0.161,0.131   c0.864,0.47,1.606,0.616,2.483,1.438c0.141,0.023,0.3-0.009,0.522,0.083c0.099,0.042,0.248,0.192,0.334,0.214   c0.315,0.086,0.413-0.25,0.813,0.059c0.06-0.007,0.022-0.087,0.038-0.127c0.363-0.219,0.549-0.582,0.891-0.661   c-0.035-0.399,0.195-0.463,0.184-0.795c-0.004-0.208-0.121-0.548-0.17-0.794c-0.057-0.28-0.15-0.557-0.192-0.806   c0.101-0.079-0.096-0.354-0.056-0.475c-0.209-0.365-0.338-0.674-0.572-1.037c0.002-0.059-0.049-0.149-0.019-0.192   c-0.464-0.797-0.954-1.636-1.894-2.491c-0.085-0.075-0.27-0.235-0.383-0.321c-0.745-0.571-1.943-1.375-2.298-1.758   c-0.143-0.095-0.16-0.058-0.302-0.152c-0.055-0.123-0.428-0.499-0.828-0.687c-0.137-0.068-0.423-0.08-0.73-0.199   c-0.459-0.172-0.834-0.488-1.26-0.623c-0.193-0.065-0.432-0.042-0.639-0.092c-0.538-0.132-1.597-0.483-2.043-0.618   c-0.348-0.111-0.465-0.219-0.74-0.261c-0.25-0.035-0.452,0.016-0.452,0.149c-0.745,0.135-2.526-0.316-3.631-0.192   c-0.802-0.123-1.566,0.07-2.327,0.112c-0.153,0.01-0.34-0.009-0.496,0.007c-0.262,0.03-0.603,0.124-0.933,0.194   c-0.563,0.119-1.061,0.202-1.512,0.348c-0.753-0.007-1.226,0.324-1.809,0.494c-0.218,0.069-0.451,0.082-0.694,0.168   c-0.205,0.072-0.386,0.187-0.609,0.27c-0.223,0.078-0.472,0.122-0.684,0.21c-0.158,0.064-0.267,0.152-0.396,0.203   c-0.17,0.068-0.292,0.08-0.464,0.169c-0.183,0.092-0.338,0.24-0.518,0.339c-0.656,0.357-1.396,0.699-1.92,1.183   c-1.131,0.599-1.924,1.394-3.113,2.318C9.671,9.334,9.49,9.543,9.189,9.797C9.137,9.868,9.166,9.896,9.066,9.991   c-0.584,0.527-1.021,1.24-1.562,1.836c-0.001,0.035-0.007,0.072-0.029,0.121c-0.752,0.821-1.521,2.017-1.848,2.83   c-0.399,0.552-0.665,1.302-0.982,2.067c-0.149,0.361-0.333,0.703-0.439,1.054c-0.211,0.685-0.524,1.571-0.663,2.248   c-0.045,0.201-0.037,0.407-0.075,0.603c-0.063,0.357-0.182,0.731-0.221,1.117c-0.151,1.485-0.298,3.19-0.229,4.498   c0.017,0.403,0.098,0.743,0.161,1.19c0.105,0.737,0.133,1.519,0.309,2.251c0.046,0.184,0.115,0.356,0.163,0.522   c0.122,0.433,0.197,0.855,0.338,1.31c0.34,1.112,0.857,2.155,1.256,3.169c0.69,1.21,1.719,2.945,2.757,4.182   c0.299,0.222,0.459,0.534,0.715,0.807c0.791,0.839,1.928,1.769,2.83,2.56c4.044,3.012,9.308,4.727,14.252,4.294   c0.39,0.059,0.987-0.036,1.318-0.12c0.077,0.036,0.302,0.008,0.476,0.001c0.598-0.19,1.377-0.229,2.131-0.437   c0.166-0.151,0.641-0.187,0.9-0.347c0.137,0.023-0.148,0.097,0.066,0.069c0.434-0.312,2.06-0.782,2.727-1.162   c-0.049,0.021-0.071-0.002-0.012-0.032c0.188-0.026,0.225-0.157,0.411-0.24c1.231-0.613,1.969-1.29,2.876-1.999   c0.134-0.059,0.498-0.218,0.563-0.355c-0.177,0.112-0.388,0.272-0.421,0.194c0.299-0.177,0.64-0.482,0.779-0.678   c0.328-0.271,0.527-0.375,0.773-0.672c0.07-0.061-0.125-0.006,0.026-0.136c0.475-0.36,0.642-0.621,1.044-0.967   c0.059-0.161,0.465-0.633,0.625-0.747c0.088-0.152-0.175,0.1-0.093-0.024c0.301-0.374,0.562-0.734,0.876-1.048   c0.037-0.109,0.042-0.197,0.143-0.347c0.068-0.099,0.04,0.074,0.131-0.085c0.065-0.162-0.142,0.06-0.164-0.011   c0.121-0.205,0.057-0.194,0.09-0.317c0.232-0.238,0.283-0.479,0.424-0.743c0.146-0.27,0.352-0.545,0.482-0.811   c0.109-0.231,0.119-0.351,0.257-0.603c0.111-0.204,0.263-0.345,0.374-0.579c0.049-0.129-0.098,0.053-0.014-0.123   c0.393-0.816,0.717-1.664,0.838-2.326c-0.223,1.008-0.658,1.634-0.957,2.482c-0.126,0.087-0.148,0.378-0.303,0.447   c0.01,0.074,0.135-0.093,0.033,0.08c-0.037,0.056-0.065,0.069-0.111,0.162c-0.016-0.155-0.11,0.009-0.203,0.04   c-0.373,0.658-0.666,1.177-1.051,1.711c-0.054,0.111,0.092-0.038,0.023,0.084c-0.133,0.214-0.264,0.355-0.425,0.606   c-0.106,0.03-0.259,0.161-0.26,0.024c0.564-0.682,1.133-1.746,1.632-2.656c0.147-0.278,0.369-0.533,0.352-0.748   c-0.183,0.432-0.472,0.703-0.687,1.043c-0.277,0.44-0.493,0.968-0.813,1.371c-0.09,0.113-0.148,0.144-0.225,0.249   c-0.059,0.083-0.127,0.248-0.199,0.338c-0.078,0.097-0.111,0.08-0.174,0.167c-0.131,0.175-0.195,0.34-0.352,0.526   c-0.268,0.308-0.582,0.561-0.873,0.897c-0.08,0.036-0.105-0.04-0.047-0.124c0.363-0.378,0.42-0.448,0.768-0.856   c-0.045,0.04-0.081,0.058-0.1,0.035c0.113-0.119,0.163-0.154,0.205-0.266c-0.25,0.31-0.332,0.19-0.288,0.051   c0.653-0.729,1.296-1.741,1.749-2.404c0.015-0.095,0.002-0.168,0.063-0.301c0.42-0.795,0.908-1.679,1.223-2.591   c-0.499,0.979-0.948,2.029-1.599,3.129c-0.04,0.032-0.058-0.025-0.116,0.087c-0.257,0.48-0.631,0.993-0.881,1.333   c-0.171,0.105-0.344,0.199-0.516,0.283c-0.801,1.063-1.703,1.533-2.654,2.329c-0.027-0.044-0.113,0.006-0.165,0.002   c0.05-0.097,0.066-0.181,0.132-0.281c0.154-0.131,0.287-0.293,0.447-0.382c0.672-0.797,1.755-1.798,2.432-2.899   c0.023-0.177-0.102-0.114-0.223-0.071c-0.4,0.46-0.656,0.973-1.168,1.383c-0.303,0.035-0.243-0.237,0.068-0.611   c0.52-0.62,1.338-1.749,1.621-2.192c1.127-2.085,1.989-4.32,2.232-6.736c-0.225,1.319-0.439,2.558-0.93,3.663   c0.036,0.008,0.039,0.057,0,0.142c-0.438,1.103-1.034,2.273-1.545,3.183c-0.333,0.302-0.699,1.073-1.076,1.34   c-0.085-0.207,0.064-0.54,0.281-0.931c-0.256,0.376-0.561,0.677-0.813,0.959c-0.2,0.237-0.517,0.678-0.658,0.763   c-0.034,0.021-0.013-0.059-0.063-0.007c0.089-0.091-0.147,0.173-0.162,0.194c-0.102,0.138-0.072,0.124-0.216,0.261   c-0.187,0.178-0.187,0.172-0.336,0.25c-0.665,0.587-1.296,1.183-2.052,1.653l-0.245,0.161c-0.076,0.037-0.035-0.031-0.13,0.025   c-0.055,0.031-0.008,0.052-0.09,0.097l-0.945,0.534c-0.746,0.438-1.697,0.81-2.352,1.057c-0.15,0.043,0.021-0.082-0.176-0.01   c-1.146,0.367-2.391,0.643-3.666,0.772c-0.096,0.005-0.028-0.078-0.167-0.051c-0.175,0.008-0.125,0.083-0.283,0.094   c-0.101-0.014-0.192-0.029-0.247-0.066c-1.457,0.05-2.969,0.036-4.46-0.227c-1.389-0.24-2.739-0.699-3.954-1.261   c-0.956-0.441-1.864-0.906-2.604-1.5c-1.06-0.7-1.876-1.45-2.681-2.328c-0.581-0.635-1.118-1.417-1.545-2.002   c-0.075-0.101-0.185-0.206-0.265-0.329c-0.115-0.188-0.182-0.407-0.287-0.599c-0.29-0.515-0.624-1.026-0.857-1.57   c-0.262-0.61-0.471-1.213-0.65-1.837c-0.104-0.352-0.244-0.679-0.333-1.033c-0.057-0.235-0.064-0.492-0.109-0.738   c-0.133-0.688-0.286-1.394-0.312-2.062c-0.028-0.893,0.063-1.801,0.076-2.706c0.143-0.989,0.387-2.176,0.638-3.098   c0.351-0.699,0.499-1.499,0.899-2.282c0.043-0.082,0.09-0.127,0.139-0.207c0.655-1.141,1.318-2.463,2.075-3.237   c0.186-0.368,0.487-0.564,0.756-0.82c0.288-0.28,0.514-0.58,0.795-0.848c0.094-0.086,0.201-0.139,0.299-0.221   c0.303-0.248,0.558-0.537,0.895-0.811c0.505-0.409,1.154-0.673,1.742-1.127c0.524-0.241,1.301-0.559,1.865-0.886   c1.053-0.317,2.062-0.797,3.182-0.975c0.378-0.058,0.73-0.03,1.098-0.162c0.404,0.036,0.865-0.07,1.35-0.084   c0.476-0.017,0.973,0.03,1.467,0.066c0.702,0.044,1.589,0.072,2.079,0.342c0.168,0.421,0.724-0.063,1.261,0.146   c0.271,0.149,0.205,0.242,0.291,0.411c0.236,0.124,0.479,0.158,0.731,0.204C29.997,10.179,30.144,10.41,30.505,10.55z    M39.788,38.714c0.008,0.02,0.029,0.013,0.057-0.014C39.836,38.836,39.592,38.931,39.788,38.714z M39.831,38.614   c0.271-0.313,0.58-0.807,0.808-1.008c0.05-0.063-0.12-0.003-0.058-0.119c0.141-0.112,0.293-0.258,0.469-0.506   c0.127,0.068-0.297,0.505-0.218,0.599c-0.153,0.178-0.226,0.266-0.241,0.388c-0.342,0.341-0.342,0.479-0.62,0.72   C39.974,38.563,39.882,38.695,39.831,38.614z" fill-rule="evenodd"></path>
  <path clip-rule="evenodd" d="M41.655,39.627c0.006-0.164,0.063-0.303,0.172-0.41   c0.23-0.256,0.518-0.42,0.865-0.49c0.238-0.055,0.463-0.051,0.684,0.008c0.316,0.113,0.578,0.301,0.787,0.563   c-0.166,0.198-0.309,0.408-0.42,0.633c-0.119,0.221-0.152,0.455-0.107,0.707c0.049,0.254,0.117,0.512,0.205,0.766   c-0.094,0.064-0.18,0.141-0.258,0.223c-0.09,0.084-0.158,0.18-0.207,0.293c-0.051,0.133-0.078,0.268-0.078,0.412   c0,0.172,0.023,0.344,0.07,0.518c0.084,0.273,0.223,0.541,0.412,0.803c0.123,0.17,0.277,0.311,0.463,0.42   c0.355,0.219,0.715,0.299,1.072,0.242c0.363-0.053,0.604-0.162,0.729-0.318c0.125-0.16,0.221-0.35,0.289-0.568   c0.07-0.217,0.105-0.398,0.104-0.545c0-0.018,0-0.037,0-0.053c0.023-0.152,0.113-0.148,0.268,0.01   c0.057,0.055,0.105,0.139,0.146,0.25c0.09,0.24,0.08,0.48-0.035,0.717c-0.117,0.238-0.248,0.416-0.387,0.535   c-0.143,0.119-0.305,0.211-0.482,0.273s-0.398,0.105-0.66,0.125c-0.203,0.01-0.398-0.004-0.59-0.047   c-0.285-0.094-0.561-0.227-0.828-0.4c-0.457-0.309-0.918-0.623-1.373-0.936c-0.031-0.025-0.061-0.041-0.09-0.055   c-0.363-0.219-0.738-0.393-1.131-0.516c-0.291-0.102-0.6-0.146-0.928-0.133c-0.168,0.016-0.686,0.035-0.844,0.08   c-0.625,0.154-0.867,0.404-1.432,0.713c0.244-0.369,0.561-0.664,0.947-0.883c0.432-0.238,0.889-0.34,1.371-0.303   c0.256,0.021,0.512,0.07,0.768,0.141c0.189,0.029,0.379,0.021,0.572-0.027c0.242-0.07,0.439-0.203,0.594-0.4   c0.098-0.119,0.135-0.262,0.117-0.428c-0.012-0.078-0.039-0.143-0.078-0.197c-0.109-0.164-0.266-0.283-0.475-0.357   c0.049,0.113,0.09,0.232,0.125,0.357c0.029,0.09,0.035,0.176,0.02,0.26c-0.035,0.18-0.133,0.303-0.287,0.373   c-0.213,0.113-0.447,0.166-0.695,0.152c-0.244-0.041-0.428-0.166-0.551-0.373c-0.08-0.139-0.141-0.279-0.18-0.428   c-0.043-0.145-0.057-0.287-0.047-0.43c0.025-0.195,0.08-0.385,0.164-0.572c0.059-0.139,0.15-0.26,0.275-0.354   c0.279-0.232,0.598-0.311,0.955-0.232C41.659,39.703,41.655,39.662,41.655,39.627L41.655,39.627z M57.157,41.91L57.157,41.91   c0.004,0.184-0.027,0.352-0.1,0.5c-0.262,0.578-0.701,0.947-1.322,1.115c-0.604,0.16-1.15,0.059-1.639-0.303   c-0.172-0.139-0.297-0.295-0.377-0.473c-0.158-0.34-0.152-0.688,0.02-1.045c0.1-0.219,0.268-0.334,0.502-0.338   c0.051,0.029,0.1,0.07,0.139,0.125c0.045,0.039,0.064,0.092,0.064,0.15c-0.006,0.113,0.004,0.223,0.027,0.33   c0.023,0.119,0.107,0.182,0.25,0.188l0.16-0.098c0.09-0.18,0.119-0.363,0.09-0.553c-0.035-0.215-0.158-0.373-0.365-0.473   c-0.139-0.055-0.279-0.063-0.428-0.027c-0.238,0.07-0.441,0.189-0.609,0.357c0.127-0.346,0.162-0.707,0.109-1.08   c-0.025-0.168-0.074-0.322-0.152-0.463c-0.09-0.156-0.209-0.289-0.357-0.402c-0.178-0.13-0.375-0.238-0.598-0.319   c-0.506-0.179-0.992-0.144-1.461,0.105c-0.113,0.054-0.219,0.118-0.314,0.197c-0.148,0.136-0.336,0.208-0.563,0.214   c-0.135,0.011-0.277-0.006-0.426-0.054c-0.105-0.024-0.141-0.05-0.105-0.07c0.254-0.073,0.445-0.228,0.568-0.466   c0.061-0.113,0.102-0.225,0.125-0.338c0.064-0.268,0.027-0.512-0.115-0.73c-0.096-0.139-0.217-0.228-0.365-0.268   c-0.113-0.03-0.238-0.03-0.377,0c-0.35,0.052-0.527,0.252-0.533,0.598c0,0.111,0.047,0.187,0.143,0.221   c0.131,0.041,0.236,0.006,0.32-0.107l0.035-0.113l0.09-0.027c0.133,0.064,0.186,0.17,0.17,0.319   c-0.012,0.108-0.035,0.211-0.072,0.313c-0.029,0.076-0.07,0.141-0.125,0.195c-0.053,0.059-0.115,0.103-0.188,0.125   c-0.291,0.127-0.572,0.107-0.846-0.053c-0.338-0.191-0.539-0.471-0.598-0.838c-0.09-0.535,0.059-0.987,0.445-1.355   c0.15-0.139,0.322-0.237,0.518-0.304c0.328-0.083,0.639-0.066,0.936,0.053c0.02-0.061,0.039-0.114,0.063-0.168   c0.184-0.482,0.525-0.77,1.018-0.857c0.328-0.066,0.627,0.005,0.9,0.213c0.258,0.203,0.449,0.447,0.578,0.734   c0.318-0.15,0.645-0.23,0.982-0.242c0.264-0.019,0.523,0.02,0.785,0.117c0.66,0.242,1.123,0.691,1.391,1.345   c0.148,0.361,0.154,0.735,0.02,1.113c-0.064,0.188-0.188,0.326-0.365,0.42c-0.229,0.138-0.469,0.168-0.723,0.09   c-0.104-0.036-0.203-0.07-0.303-0.105c-0.293-0.104-0.461-0.295-0.5-0.582c-0.012-0.095-0.012-0.188,0-0.276   c0.004-0.06,0.031-0.107,0.08-0.151c0.096-0.1,0.197-0.119,0.311-0.054c0.07,0.043,0.141,0.081,0.205,0.116   c0.115,0.064,0.225,0.057,0.34-0.027c0.053-0.178,0.016-0.319-0.117-0.428c-0.148-0.124-0.324-0.168-0.525-0.132   c-0.256,0.029-0.443,0.159-0.563,0.392c-0.164,0.32-0.158,0.639,0.02,0.953c0.119,0.221,0.303,0.384,0.553,0.492   c0.32,0.154,0.662,0.217,1.025,0.186c0.158-0.039,0.313-0.107,0.453-0.194c0.229-0.162,0.379-0.37,0.455-0.624   c0.139,0.004,0.273,0.01,0.41,0.016c0.428,0.02,0.727,0.211,0.893,0.582c0.125,0.225,0.141,0.461,0.053,0.703   c-0.07,0.209-0.217,0.35-0.436,0.42C57.038,41.125,57.144,41.506,57.157,41.91L57.157,41.91z M44.653,39.422L44.653,39.422   c0.203-0.017,0.395-0.014,0.578,0.01c0.084-0.346,0.268-0.621,0.555-0.83c0.225-0.173,0.482-0.257,0.766-0.248   c0.309,0.005,0.58,0.088,0.813,0.248c0.064,0.041,0.127,0.087,0.186,0.133c0.143,0.133,0.281,0.279,0.412,0.438   c0.082,0.095,0.178,0.175,0.283,0.241c0.268,0.178,0.57,0.272,0.912,0.283c-0.273,0.258-0.604,0.393-0.99,0.412   c-0.387,0.055-0.654,0.268-0.803,0.641c-0.061,0.148-0.096,0.303-0.107,0.465c-0.018,0.195-0.023,0.395-0.018,0.598   c0.012,0.305,0.113,0.576,0.303,0.82c0.184,0.232,0.424,0.379,0.723,0.436c0.268,0.084,0.525,0.047,0.775-0.113   c0.031-0.025,0.066-0.043,0.107-0.055c0.023,0.154-0.021,0.314-0.143,0.482c-0.297,0.402-0.66,0.744-1.09,1.016   c-0.223,0.137-0.465,0.271-0.723,0.402c-0.682,0.338-1.336,0.455-2.098,0.424c-0.482-0.051-0.953-0.211-1.365-0.463   c-0.775-0.521-1.441-1.131-1.926-1.447c0.324,0.145,0.729,0.215,1.637,0.971c0.289,0.244,0.742,0.488,1.176,0.596   c0.199,0.043,0.592,0.1,0.865,0.068c0.336-0.049,0.521-0.082,0.811-0.23c0.502-0.225,0.771-0.611,0.813-1.158   c0.014-0.143,0.021-0.287,0.027-0.428c0.008-0.162-0.043-0.305-0.152-0.43c-0.244-0.26-0.514-0.486-0.811-0.676   c-0.125-0.084-0.258-0.141-0.4-0.17c-0.25-0.025-0.582,0.002-0.721,0.225c-0.135,0.225-0.121,0.473-0.043,0.6   c0.016,0.064,0.178,0.24,0.406,0.166c0.064-0.014,0.191-0.131,0.16-0.367c-0.016-0.037,0.012-0.104,0.135-0.096   c0.135,0.029,0.227,0.102,0.275,0.221c0.16,0.441,0.076,0.822-0.26,1.15c-0.076,0.072-0.168,0.121-0.275,0.152   c-0.305,0.055-0.346,0.029-0.471,0.037c-0.666-0.082-1.18-0.514-1.328-1.242c-0.074-0.324-0.02-0.527,0.078-0.813   c0.129-0.236,0.316-0.402,0.551-0.496c-0.141-0.109-0.234-0.244-0.283-0.412c-0.041-0.154-0.066-0.314-0.07-0.48   c0-0.131,0.014-0.258,0.043-0.385c0.02-0.076,0.041-0.152,0.07-0.223C44.169,39.639,44.374,39.48,44.653,39.422L44.653,39.422z    M49.997,39.807L49.997,39.807c0.1,0.006,0.201,0.014,0.311,0.027c0.168,0.023,0.299,0.084,0.398,0.178   c0.055-0.09,0.119-0.168,0.199-0.232c0.094-0.096,0.205-0.177,0.33-0.241c0.195-0.101,0.406-0.151,0.633-0.151   c0.379,0.006,0.752,0.113,1.113,0.322c0.156,0.088,0.27,0.211,0.34,0.365c0.107,0.219,0.145,0.451,0.115,0.695   c-0.023,0.238-0.078,0.471-0.16,0.695c-0.049,0.129-0.121,0.234-0.225,0.311c-0.088,0.078-0.184,0.143-0.283,0.197   c-0.059,0.025-0.115,0.047-0.176,0.068c-0.023,0.002-0.049,0.008-0.076,0.014h-0.051c-0.012,0-0.02,0-0.027,0   c-0.037-0.008-0.076-0.018-0.111-0.025c-0.037-0.006-0.074-0.016-0.113-0.029c-0.037-0.014-0.076-0.035-0.111-0.063   c-0.035-0.029-0.068-0.086-0.102-0.17c-0.041-0.096-0.057-0.195-0.045-0.303c0.018-0.105,0.061-0.209,0.125-0.303   c0.035-0.041,0.082-0.074,0.133-0.098c0.09,0.027,0.156,0.021,0.197-0.02c0.035-0.012,0.055-0.047,0.055-0.098   c0-0.1-0.049-0.15-0.145-0.15c-0.041,0-0.074,0.002-0.102,0.008c-0.074,0.006-0.145,0.029-0.211,0.072   c-0.225,0.131-0.396,0.311-0.506,0.545c-0.203,0.396-0.377,0.818-0.52,1.266c-0.119,0.379-0.311,0.719-0.578,1.018   c-0.369,0.412-0.793,0.768-1.275,1.061c-0.768,0.467-1.594,0.809-2.48,1.016c-0.209,0.053-0.416,0.096-0.621,0.125   c-0.596,0.041-1.191-0.008-1.785-0.15c-0.418-0.115-0.799-0.313-1.15-0.59c-0.18-0.131-0.352-0.27-0.518-0.41   c-0.293-0.25-0.584-0.492-0.873-0.723c-0.293-0.221-0.621-0.381-0.982-0.482c-0.492-0.154-0.996-0.211-1.508-0.168   c0.477-0.154,0.951-0.211,1.418-0.172c0.338,0.061,0.666,0.18,0.982,0.357c0.398,0.234,0.756,0.51,1.068,0.83   c0.549,0.547,1.201,0.93,1.965,1.047c0.189,0.031,1.119,0.209,2.271-0.254c0.197-0.078,0.393-0.156,0.59-0.24   c0.451-0.209,0.85-0.48,1.195-0.82c0.154-0.148,0.295-0.305,0.428-0.473c0.09-0.125,0.16-0.26,0.215-0.4   c0.039-0.119,0.072-0.238,0.098-0.357c0.041-0.248,0.025-0.494-0.045-0.73c-0.023-0.084-0.072-0.146-0.143-0.189   c-0.014,0.055-0.025,0.111-0.035,0.17c-0.02,0.096-0.047,0.186-0.082,0.27c-0.029,0.076-0.072,0.141-0.133,0.186   c-0.072,0.055-0.15,0.084-0.24,0.09c-0.102,0.029-0.199,0.027-0.295-0.008c-0.309-0.014-0.531-0.145-0.668-0.393   c-0.178-0.332-0.24-0.688-0.189-1.063c0.035-0.234,0.139-0.428,0.303-0.582c0.168-0.158,0.33-0.244,0.486-0.26   c0.158-0.02,0.275-0.012,0.35,0.021c0.074,0.035,0.133,0.092,0.174,0.17c0.129-0.352,0.365-0.586,0.703-0.705   C49.747,39.842,49.868,39.816,49.997,39.807L49.997,39.807z" fill-rule="evenodd"></path>
 </g>
 <!--Copyright (c) Logomaker.com.cn  @2016-09-22-->
</svg></g> <!----></g>  <!----></svg>