<svg data-noselect="" viewBox="0 0 4_YCL.jpg00 300" width="400" height="300" preserveAspectRatio="none" version="1.1" xmlns="http://www.w3.org/2000/svg" style="background: rgba(255, 255, 255, 0);"><defs></defs> <g id="shape_tzBNljBsIH" transform="translate(105.47805109470164,42.20954330053819) rotate(0,0,0) scale(1.4069847766846064,1.4069847766846064)" filter="" style="cursor: move; opacity: 1;"><g><rect fill="rgba(0,0,0,0)" width="103" height="130" x="-10" y="-10"></rect><svg xmlns="http://www.w3.org/2000/svg" xmlns:xlink="http://www.w3.org/1999/xlink" shape-rendering="auto" text-rendering="auto" contentscripttype="text/ecmascript" color-rendering="auto" color-interpolation="auto" xml:space="preserve" preserveAspectRatio="none" image-rendering="auto" zoomAndPan="magnify" version="1.1" contentstyletype="text/css" x="0px" enable-background="new 0 0 91.764 119.17" y="0px" viewBox="2.9989278316497803 3 83.25321197509766 110.17037963867188" width="83" height="110" data-parent="shape_tzBNljBsIH">
 <g fill="#71A92E" id="layer2">
  <path clip-rule="evenodd" d="M67.262,3c36.382,35.103,18.005,108.556-33.989,110.152   c-15.002,0.461-29.266-7.782-30.2-21.09c-2.09-29.751,40.691-33.235,46.878-51.821c8.72,9.446,9.434,24.865,0.745,33.554   c-7.141,7.142-14.878,9.613-25.881,10.252c-4.331-9.542,18.917-26.231,16.328-26.231c0,1.426-26.496,10.574-23.316,30.42   c1.489,9.73,8.945,13.846,17.291,13.516C75.946,100.137,91.837,34.558,67.262,3z" fill-rule="evenodd"></path>
 </g>
 <!--Copyright (c) Logomaker.com.cn  @2017-01-11-->
</svg></g> <!----></g><g id="shape_rFjnQM6iB4" transform="translate(91.78365116987615,216.15555183373758) rotate(0,69.59764221732675,12.28193686188142) scale(1.4069847766846064,1.4069847766846064)" filter="" style="cursor: move; opacity: 1;"><g><svg xmlns="http://www.w3.org/2000/svg" version="1.1" xmlns:xlink="http://www.w3.org/1999/xlink" overflow="hidden" style="top:0; left: 0" width="79.1952844346535" height="29.591578124999998" viewBox="0 0 79.1952844346535 29.591578124999998" preserveAspectRatio="none" data-parent="shape_rFjnQM6iB4"><rect fill="rgba(0,0,0,0)" width="79.1952844346535" height="29.591578124999998"></rect> <rect opacity="0"></rect><g transform="translate(0 0)" data-width="68.185125"><path fill="#000000" d="" transform="translate(0 19.488304687499998)"></path><path fill="#000000" d="M15.35-18.20L15.35-18.20L15.35-18.20Q16.30-18.43 17.26-17.43L17.26-17.43L17.26-17.43Q18.05-16.62 18.39-15.51L18.39-15.51L18.39-15.51Q18.79-14.08 17.31-12.64L17.31-12.64L17.31-12.64Q15.23-10.44 13.26-8.69L13.26-8.69L13.26-8.69Q12.74-8.21 12.71-7.45L12.71-7.45L12.71-7.45Q12.62-4.52 12.62-1.53L12.62-1.53L12.62-1.53Q12.86-0.12 12.45 0.84L12.45 0.84L12.45 0.84Q11.64 2.11 9.67 1.68L9.67 1.68L9.67 1.68Q7.85 1.51 7.37-0.26L7.37-0.26L7.37-0.26Q7.11-1.13 7.23-3.21L7.23-3.21L7.42-6.87L7.42-6.87Q7.45-7.54 7.06-8.02L7.06-8.02L7.06-8.02Q5.12-10.61 3.30-13.57L3.30-13.57L3.30-13.57Q2.54-14.84 1.80-15.44L1.80-15.44L1.80-15.44Q0.84-15.97 1.05-16.76L1.05-16.76L1.05-16.76Q1.63-17.62 3.06-17.50L3.06-17.50L3.06-17.50Q5.20-17.41 6.56-15.01L6.56-15.01L8.79-11.68L8.79-11.68Q9.19-11.06 9.77-11.56L9.77-11.56L13.43-14.94L13.43-14.94Q14.32-15.66 14.63-16.83L14.63-16.83L14.63-16.83Q14.70-17.67 15.35-18.20Z" transform="translate(12.258 19.488304687499998)"></path><path fill="#000000" d="M9.36-17.96L9.36-17.96L9.36-17.96Q11.37-18.20 12.81-17.74L12.81-17.74L12.81-17.74Q13.81-17.31 14.25-17.33L14.25-17.33L14.25-17.33Q14.72-17.45 15.20-17.50L15.20-17.50L15.20-17.50Q16.78-17.31 18.36-14.44L18.36-14.44L18.36-14.44Q19.11-13.00 18.51-11.56L18.51-11.56L18.51-11.56Q18.27-11.13 17.93-10.87L17.93-10.87L17.93-10.87Q15.99-9.89 15.13-11.85L15.13-11.85L15.13-11.85Q13.62-14.94 10.58-14.58L10.58-14.58L10.58-14.58Q8.31-14.34 7.47-11.90L7.47-11.90L7.47-11.90Q6.82-9.67 7.06-7.35L7.06-7.35L7.06-7.35Q7.11-5.29 8.50-3.50L8.50-3.50L8.50-3.50Q9.46-2.44 10.44-2.32L10.44-2.32L10.44-2.32Q12.78-1.99 14.46-3.76L14.46-3.76L14.46-3.76Q15.06-4.48 14.99-5.20L14.99-5.20L14.99-5.20Q15.30-6.42 16.50-6.39L16.50-6.39L16.50-6.39Q17.41-6.44 18.41-5.79L18.41-5.79L18.41-5.79Q19.25-5.17 19.15-4.14L19.15-4.14L19.15-4.14Q18.77-2.25 16.30-0.43L16.30-0.43L16.30-0.43Q11.40 2.90 5.91 0.50L5.91 0.50L5.91 0.50Q3.85-0.55 2.75-2.85L2.75-2.85L2.75-2.85Q1.63-5.72 1.94-8.95L1.94-8.95L1.94-8.95Q2.13-11.01 2.92-12.78L2.92-12.78L2.92-12.78Q4.98-17.33 9.36-17.96Z" transform="translate(30.645 19.488304687499998)"></path><path fill="#000000" d="M3.14-18.00L3.14-18.00L3.14-18.00Q4.12-18.22 5.31-17.55L5.31-17.55L5.31-17.55Q6.32-17.09 7.04-15.94L7.04-15.94L7.04-15.94Q7.40-15.32 7.49-14.03L7.49-14.03L7.49-14.03Q7.69-10.37 7.42-7.37L7.42-7.37L7.42-7.37Q7.21-4.17 7.57-3.06L7.57-3.06L7.57-3.06Q7.71-2.92 8.43-2.97L8.43-2.97L8.43-2.97Q9.34-3.38 10.32-3.71L10.32-3.71L10.32-3.71Q12.50-4.43 14.68-4.07L14.68-4.07L14.68-4.07Q16.95-3.83 17.50-1.27L17.50-1.27L17.50-1.27Q17.74-0.07 17.12 0.74L17.12 0.74L17.12 0.74Q16.59 1.20 15.68 1.10L15.68 1.10L15.68 1.10Q13.65 0.55 11.52 0.79L11.52 0.79L11.52 0.79Q9.86 0.93 6.87 1.46L6.87 1.46L6.87 1.46Q4.50 1.63 3.21-0.79L3.21-0.79L3.21-0.79Q2.44-2.97 2.66-5.60L2.66-5.60L2.66-5.60Q2.83-8.79 3.30-13.38L3.30-13.38L3.30-13.38Q3.45-14.63 2.85-15.75L2.85-15.75L2.85-15.75Q2.30-16.76 2.71-17.67L2.71-17.67L2.71-17.67Q2.85-17.86 3.14-18.00Z" transform="translate(50.085421874999994 19.488304687499998)"></path></g></svg></g> <!----></g><g id="shape_J43E9zAviR" transform="translate(182.62300750770075,181.13795442743248) rotate(0,23.834991180952525,27.239989921089222) scale(1.4069847766846064,1.4069847766846064)" filter="" style="cursor: move; opacity: 1;"><g><rect fill="rgba(0,0,0,0)" width="67.66998236190506" height="74.47997984217844" x="-10" y="-10"></rect><svg version="1.1" id="图层_1" xmlns="http://www.w3.org/2000/svg" xmlns:xlink="http://www.w3.org/1999/xlink" x="0px" y="0px" width="47.66998236190505" height="54.479979842178444" viewBox="0 0 1417.32 1417.32" style="enable-background:new 0 0 1417.32 1417.32;" xml:space="preserve" preserveAspectRatio="none" data-parent="shape_J43E9zAviR">
<g>
	<path style="" d="M1158.679,709.423c-2.125-0.955-4.222-1.972-6.113-3.143c-1.454-0.902-2.97-1.967-3.723-3.205
		c-1.199-1.958-2.792-2.912-5.686-2.625c-2.817,0.283-4.409,1.727-5.427,3.392c-0.782,1.286-1.564,2.86-1.224,4.141
		c0.763,2.874-1.415,3.93-3.814,4.923c0.12-4.155,0.187-8.325,0.187-12.508c0-88.907-27.819-171.28-75.127-239.037
		c1.286-2.668,5.014-4.817,4.376-7.902c-0.749-3.594-4.697-3.339-7.73-4.083c-1.881-0.485-3.829-0.892-5.906-1.305
		c-0.672,0.499-1.319,0.979-1.986,1.473c-0.393-0.936-0.086-1.934,0.758-2.653c-1.463-1.919-3.037-3.747-4.534-5.638
		c0.729-1.651,0.854-3.282,0.216-4.688c-1.751-4.045-4.045-7.758-6.453-11.386c-1.473-2.236-2.01-4.625-1.252-7.854
		c0.475-2.015,0.825-4.726-0.182-5.858c-4.366-4.688-6.055-12.403-14.447-12.993c-1.607-0.091-1.353-2.567-0.523-4.357
		c0.576-1.228,1.516-2.38,2.409-3.752c2.946,0.355,5.508,1.104,8.349,1.247c1.588,0.096,3.459-0.542,5.201-1.051
		c2.159-0.624,3.56-3.867,2.653-5.575c-2.817-5.494-8.373-6.252-14.711-4.649c-0.288-13.041-1.636-15.301-16.275-22.436
		c-1.305,0.926-2.73,1.934-4.15,2.941c0.134-4.51-1.113-8.325-4.328-10.762c-2.13-1.679-4.371-3.243-6.305-5.139
		c-8.018-8.157-18.472-11.592-31.043-7.423c-1.78,0.59-3.267,0.504-4.078-1.185c-1.051-2.245-0.024-4.112,2.001-6.026
		c0.945-0.897,1.574-2.236,2.677-3.858c-2.471-2.509-5.1-4.956-2.927-10.172c0.667-1.588,0.326-3.637,0.062-5.34
		c-0.513-3.368-1.31-6.65-2.159-10.522c-5.777,2.826-10.297,1.199-14.869-0.336c-0.701-0.235-1.631,0.082-2.629,0.158
		c-2.087,1.607-4.304,3.32-6.281,4.841c-0.724,0.106-1.161,0.264-1.545,0.216c-2.745-0.384-5.566-0.629-7.48-2.85
		c-2.821-3.258-6.329,2.481-9.227,1.199c-0.696-0.307-1.54-0.451-2.039-1.008c-0.71-0.796-1.161-1.91-1.708-2.85
		c1.962-2.567,3.69-4.832,5.465-7.149c-0.485-1.511-0.686-2.922-1.329-3.925c-2.241-3.637-5.321-5.945-9.279-7.226
		c-5.307-1.598-10.527-3.459-13.612-9.116c-0.177-0.326-0.677-0.384-1.012-0.585c-1.526-0.926-4.788,0.336-5.59,2.351
		c-0.859,2.135-0.226,3.661,1.276,4.592c0.336,0.206,0.878,0.221,1.022,0.552c0.441,1.032,0.974,2.116,0.969,3.282
		c-0.005,0.504-1.176,1.531-1.9,1.857c-4.126,1.862-8.209,3.147-11.261-0.331c-3.699-4.227-8.449-5.475-13.804-4.817
		c-2.337,0.25-4.836,0.014-6.943,1.19c-2.807,1.574-1.838,5.072-2.322,7.864c-0.561,3.272-1.569,6.516-2.409,9.764
		c-3.191-0.624-5.993,0.077-7.984,4.304c-1.703-0.547-3.397-1.123-5.11-1.651c-0.341-0.811-0.681-1.627-1.022-2.418
		c-4.611-0.758-5.969-6.948-9.898-9.116c-1.219-0.677-0.777-3.872,0.566-5.014c0.988-0.844,2.058-1.559,3.138-2.178
		c1.871-1.07,3.56-2.317,4.155-5.455c-2.682-1.881-6.247-3.004-8.118-5.959c-3.906-5.954-8.732-6.065-14.394-3.08
		c-0.609,0.321-1.42-0.134-2.615-0.293c-0.125-2.764,0.729-5.609,1.051-8.449c-4.4-7.015-9.471-13.031-15.512-17.22
		c-4.131-0.11-7.802,0.249-11.261-0.413c-8.612-1.492-17.441-1.502-25.861-4.544c-1.871-0.672-4.059-1.425-5.887-0.868
		c-4.323,1.319-8.704,0.619-13.079,0.293c-4.371-0.173-8.742,0.106-12.792,3.104c-0.293,0.221-0.811,0.168-1.166,0.029
		c-3.224-1.3-6.353-0.868-9.428-0.067c-3.08,0.849-6.108,2.231-9.236,2.538c-1.094-0.494-2.269-0.849-3.311-1.526
		c-4.045-2.639-8.013-3.91-12.427-0.907c-1.794,1.3-4.644,1.089-6.871,0.537c-3.92-0.969-7,0.494-9.865,3.311
		c-3.315,3.234-6.636,6.357-9.346,9.241c-5.743-0.513-7.283-7.192-11.098-9.961c-2.701,1.679-5.091,3.167-7.384,4.592
		c-3.982-1.152-7.893-2.073-11.961-3.119c-6.357,4.63-12.926,5.882-20.588,3.483c-2.116-0.691-4.86,0.331-6.818,1.574
		c-3.958,2.529-8.209,2.903-12.681,2.994c-3.632,0.062-7.288,0.125-10.92,0.187c-4.51,0.014-8.958,0.096-12.283,4.093
		c-1.271,1.492-3.464,2.154-5.398,2.509c-4.577,0.883-9.025,2.135-13.262,3.944c-4.227,1.833-8.344,3.934-12.46,6.06
		c-5.738,2.831-11.304,6.012-16.985,8.924c-5.7,2.855-11.41,5.714-17.129,8.579c-4.294,2.106-8.435,4.505-12.556,6.933
		c-4.05,2.562-8.118,5.067-12.456,7.149c-3.992,1.89-7.187,4.908-9.006,9.514c-1.281,3.138-3.349,6.122-6.717,6.42
		c-4.107,0.374-5.187,2.778-5.475,6.732c-0.178,2.773-1.857,3.152-4.688,1.732c-1.209-0.605-2.332-1.559-3.858-2.591
		c-2.452,0.979-5.292,1.646-7.562,3.147c-3.315,2.178-6.425,4.875-6.876,9.601c-0.36,3.445,2.514,6.165,4.045,9.179
		c0.432,0.844,0.835,1.852,0.83,2.672c-0.005,0.753-0.581,1.358-1.07,2.375c-0.974-1.07-1.852-2.039-2.74-3.018
		c-6.636-7.187-11.131-8.459-17.556-4.836c-1.411,0.763-2.821,1.713-3.709,3.008c-3.071,4.616-6.741,8.531-10.608,12.249
		c-3.858,3.723-7.658,7.528-11.328,11.419c-2.217,2.413-4.126,4.913-5.431,7.763c-1.257,2.898-1.982,6.065-1.996,9.649
		c-0.005,0.772-0.619,1.396-0.95,2.087c-5.076-0.12-5.623,0.355-9.519,1.751c-5.618,1.986-9.985,5.211-12.317,10.68
		c-0.6,1.449-1.718,2.773-3.028,3.646c-7.792,5.263-12.269,13.53-18.612,20.133c-1.626,1.847-2.356,4.035-2.413,6.712
		c-0.13,6.309-0.561,12.417-0.701,17.748c-4.918,4.688-8.848,9.111-13.593,12.796c-2.658,1.996-4.846,3.978-5.83,7.183
		c-0.677,2.241-2.068,4.232-3.45,6.137c-3.191,4.385-3.762,9.308-1.948,15.09c2.212,7.283,1.531,7.73-7.149,9.198
		c-0.888,0.154-1.838,0.178-2.696,0.398c-3.215,0.806-4.832,3.603-3.704,6.621c1.032,2.86,2.37,5.662,3.291,8.478
		c0.729,2.217-1.19,3.546-3.963,3.08c-9.073-1.526-13.727,0.168-13.636,6.885c0.029,5.57-1.737,10.215-3.915,14.898
		c-2.692,5.758-3.608,12.115-7.279,17.604c-3.867,5.695-3.675,12.907-7,18.962c-1.449,2.663-2.442,5.479-3.008,8.406
		c-0.499,2.941-0.456,6.012-0.067,9.116c0.624,4.841,1.267,9.726-0.681,14.231c-1.382,3.435-1.281,6.904-0.542,10.56
		c0.969,4.702-0.787,8.512-5.762,11.194c-0.734,0.393-1.084,1.243-2.01,2.49c2.188,4.558,2.802,9.606,2.265,14.783
		c-0.235,2.255,0.293,4.832,1.478,6.904c2.567,4.309,3.004,8.397,1.089,12.58c-1.065,2.337-1.271,4.573,0.259,6.784
		c2.015,2.932,0.317,5.302-1.497,7.595c-1.286,1.578-3.052,2.927-4.496,4.299c4.808,8.018,4.76,7.922,2.677,16.86
		c-0.149,0.772-0.398,1.54-0.461,2.317c-0.264,3.21,0.029,6.175,3.738,8.411c2.241,1.353,3.771,3.407,5.618,5.105
		c-1.727,3.248-2.994,6.309-4.836,9.001c-1.857,2.625-4.625,4.899-6.535,6.9c1.746,4.51,3.306,8.171,4.582,11.885
		c0.465,1.435,1.089,3.267,0.437,4.501c-1.78,3.267-1.07,6.069,0.456,9.083c0.849,1.674,0.979,3.819,0.585,5.69
		c-0.446,2.135-1.032,4.275-1.655,6.492c-0.542,2.217-1.104,4.501-1.698,6.943c2.097,2.754,8.444,2.97,9.231,7.432l-0.278-0.149
		l-0.158,0.082l0.235,0.038c3.512,4.126,3.483,8.372,0.067,13.127c-1.804,2.461-3.311,5.076-4.692,7.274
		c1.3,5.609,1.953,8.416,3.551,10.589c1.689,2.145,4.337,3.67,9.577,6.578c-1.622,0.432-3.023,0.595-4.16,1.161
		c-1.18,0.59-2.783,1.54-2.956,2.394c-0.173,0.864,0.907,2.255,1.929,2.586c2.068,0.681,4.462,0.801,6.813,1.152
		c0.629,6.141,3.195,11.515,2.289,17.748c-0.365,2.538,0.504,4.851,2.893,6.204c4.525,2.629,7.02,6.621,10.234,9.942
		c-1.19,6.549-0.422,12.427,2.98,17.46c1.828,2.749,1.454,5.801,0.398,9.308c-0.96,3.171-0.878,6.684,3.124,8.238
		c1.742,0.701,1.938,2.389,1.689,4.131c-0.47,3.325-0.873,6.674,1.185,9.447c1.286,1.742,0.936,3.738,0.005,5.959
		c-1.583,3.752-0.441,6.607,2.725,8.646c2.778,1.838,5.076,4.217,8.017,5.743c2.543,1.319,3.335,3.392,3.786,5.796
		c0.345,1.991,0.317,4.093,0.643,6.084c0.926,6.146,2.773,12.211,7.571,16.145c3.546,2.898,6.281,6.137,8.929,9.663
		c2.677,3.45,5.969,6.453,9.347,9.284c3.79,3.09,6.703,6.645,9.159,10.901c3.651,6.621,8.445,12.609,13.838,17.801
		c2.98,2.874,5.143,6.026,7.039,9.51c1.487,2.836,2.092,6.271,3.536,9.198c1.42,2.802,3.282,5.374,5.417,8.377
		c-2.159,1.473-3.925,2.318-5.163,3.623c-0.796,0.835-1.473,2.941-1.027,3.474c0.945,1.137,2.533,2.049,4.083,2.188
		c0.892,0.082,2.25-1.507,3.378-2.375c3.56-2.735,5.412-3.411,6.861-0.969c3.095,5.163,9.903,5.268,13.348,10.162
		c2.356,3.45,7.72,2.202,12.077,1.948c5.618-0.336,6.463,0.561,6.65,6.29c0.082,2.893,0.533,5.273,3.023,6.281
		c3.848,1.559,6.88,4.093,9.51,7.207c2.202,2.524,5.048,4.083,8.507,4.189c5.091,0.13,8.181,3.095,11.031,6.583
		c2.864,3.378,5.494,7.034,8.588,10.229c1.929,1.972,4.246,4.577,6.784,4.601c7.399,0.01,13.401,3.167,19.926,4.923
		c4.016,1.113,7.403,2.649,9.356,6.813c1.521,3.282,4.294,4.683,7.672,5.259c1.919,0.331,3.915,1.224,5.263,2.629
		c3.56,3.56,7.768,3.747,12.58,1.406c4.333-2.116,7.566-2.912,9.673,3.08c1.387,3.944,5.642,5.681,9.711,6.401
		c2.768,0.47,5.326,1.113,7.447,3.407c2.768,3.09,5.762,6.343,9.395,7.662c3.992,1.463,8.708,0.816,13.041,1.204
		c1.943,0.177,2.797-1.454,4.035-2.879c2.341-2.73,3.133-2.418,3.958,1.008c1.252,5.196,1.305,5.215,6.77,2.581
		c2.5,2.471,5.11,5.052,7.739,7.653c3.435-0.768,6.669-1.79,9.836-2.649l0.019-0.072c0.465,0.677,0.926,1.607,1.406,1.555
		c6.05-0.724,10.44,5.94,16.846,3.896c1.291-0.417,2.903,1.113,4.309,1.905c2.116,1.185,4.141,2.615,6.3,3.757
		c3.579,1.876,6.924,1.358,9.98-2.365c1.612-1.982,2.413-5.614,5.479-5.024c3.076,3.21,4.002,9.63,10.114,9.946
		c2.821-3.2,6.031-6.842,9.347-10.604c0.422-0.485,1.377-0.206,2.236-0.302c0.422,2.274,0.849,4.582,1.396,7.547
		c2.869,1.555,6.002,3.248,9.135,4.947c0.48-2.73,0.614-5.71,3.33-6.875c2.682,0.254,5.403,0.84,8.104,0.509
		c2.999-0.312,5.964-1.281,9.054-2.001c2.936,4.05,5.58,7.701,8.214,11.333c0.537,0.729,0.979,1.574,1.535,2.284
		c1.905,2.457,6.333,0.734,6.837-2.62c0.585-3.843,0.782-7.768,1.296-11.621c0.221-1.651,2.519-3.536,3.589-3.061
		c3.594,1.598,7.811,2.322,10.69,5.23c3.882,3.968,7.49,4.899,11.971,3.162c0.974-0.389,2.38,0.139,3.426,0.734
		c3.718,2.102,7.653,3.095,11.626,3.81c3.963,0.581,7.974,0.955,11.933,2.063c1.55,0.432,3.383,0.566,4.812-0.019
		c2.269-0.931,4.625-1.315,7.015-1.545c2.38-0.297,4.798-0.374,7.216-0.518c4.827-0.283,9.658-0.844,13.876-3.939
		c1.43-1.003,3.906-0.475,5.911-0.278c5,0.446,9.649-0.537,13.948-3.243c2.764-1.689,5.825-2.831,8.651-4.467
		c0.681-0.384,1.19-1.151,1.722-1.684c1.962-3.032-0.403-8.128,2.629-10.344c3.925-0.696,7.859-1.267,11.722-2.063
		c3.848-0.873,7.686-1.742,11.52-2.615c0.653-0.153,1.06-1.195,1.785-2.078c-0.154-3.906-0.317-8.085-0.485-12.345
		c-1.737-0.638-2.903-0.96-4.016-1.516c-1.051-0.528-2.202-1.089-3.018-2.03c-0.811-0.94,0.724-3.416,2.317-3.8
		c3.531-0.849,6.439,0.585,8.478,4.107c2.006,3.483,3.181,7.106,3.397,11.184c0.158,2.725-0.912,5.652,1.54,8.07
		c2.812-2.13,5.57-4.222,8.329-6.319l-6.396-16.937c2.975-1.156,6.223-1.723,9.308-2.701c2.164-0.638,4.688-1.118,6.084-2.845
		c3.695-4.558,8.699-6.17,13.598-8.248c2.807-1.166,5.585-2.505,8.003-4.333c1.746-1.353,2.845-3.671,4.165-5.479
		c3.224,1.862,6.127,5.134,9.313,2.687c1.79-1.411,4.002-1.914,6.285-2.495c5.172-1.353,11.213-2.154,14.265-7.019
		c2.941-5.081,7.509-9.011,7.034-16.587c-0.245-3.776,3.172-4.568,6.281-1.415c3.973,4.045,7.509,4.947,11.789,4.064
		c4.313-0.897,8.55-1.876,12.149-4.395c2.884-1.991,5.513-5.009,8.963-5.393c6.213-0.811,9.889-4.544,13.103-9.044
		c-0.283-0.259-0.595-0.72-0.835-0.734c-0.844-0.053-1.651,0.216-2.485,0.048c-1.271-0.254-2.629-0.633-3.858-1.262
		c-2.49-1.286-4.501-5.134-3.838-7.063c0.609-1.905,2.269-1.708,4.059-1.296c0.844,0.197,2.106,0.696,2.476,0.312
		c3.037-3.2,8.109-4.285,9.251-9.548c0.518-2.265,1.622-4.534,3.114-6.113c2.217-2.313,4.342-5.014,7.902-5.1
		c0.475,3.287,0.413,6.319,1.377,9.265c1.531,4.736,5.902,6.693,9.591,4.716c2.159-1.151,3.642-2.836,5.1-4.793
		c2.865-3.695,4.88-8.138,7.586-11.923c2.625-3.867,5.901-7.13,10.479-9.433c3.215-1.612,4.668-5.287,4.836-9.299
		c0.086-2.073,0.374-4.083,0.542-5.94c1.478-0.662,2.476-1.387,3.69-1.622c4.932-1.051,8.104-3.675,8.037-9.073
		c-0.029-1.78,1.262-2.605,2.802-3.421c5.144-2.553,11.726-10.656,12.993-14.668c3.104-9.414,5.734-18.871,11.865-26.576
		c1.463-1.814,2.452-3.949,3.469-5.585c-0.984-3.052-1.766-5.489-2.701-8.397c5.038-2.068,7.226-5.988,6.799-11.242
		c-0.163-2.044-0.547-4.347,0.264-5.945c2.25-4.438,0.878-9.135-0.734-13.957c-2.125-6.204-1.526-6.948,5.844-8.828
		c2.111-0.547,4.361-0.945,6.285-1.785c1.502-0.653,2.672-1.79,3.838-2.836c1.895-1.708,1.19-3.68-1.674-4.669
		c-1.377-0.48-2.927-0.542-4.218-1.142c-4.251-1.991-6.065-5.465-4.093-8.056c2.044-2.668,4.337-5.211,6.717-7.725
		c0.37-0.393,1.703-0.139,2.591-0.182c3.008,3.445-0.36,7.475,3.882,11.323c7.135-4.692,10.455-11.016,7.71-19.034
		c9.299-5.019,9.553-5.153,8.257-17.556c0.206-0.331,0.297-0.777,0.629-0.969c8.675-5.019,8.728-5.177,5.287-13.756
		c7.115-4.112,6.904-4.227,8.358-10.656c0.82-3.814,2.303-7.595,2.274-11.472c-0.043-4.213-1.478-8.459,0.916-12.331
		c-1.679-4.635,2.313-8.113,2.817-12.384c0.581-7.351,1.991-14.61,2.999-21.663c-1.751-1.938-3.215-3.56-5-5.542
		c4.275-5.048,4.918-11.347,6.017-17.388C1168.064,718.544,1166.169,712.782,1158.679,709.423z M443.161,750.144
		c-0.369,2.567-1.559,4.453-4.006,5.441c-2.298,0.931-5.019-0.091-5.873-2.303c-0.422-1.104-0.787-2.231-1.123-3.363
		c-0.576-1.929,0.393-3.877,2.361-4.798c2.73-1.276,5.379-0.945,7.811,0.691c0.533,0.36,0.787,1.319,0.916,2.049
		C443.381,748.609,443.204,749.415,443.161,750.144z M478.623,741.887c0.825,0.192,2.025,0.317,3.08,0.768
		c1.041,0.441,2.082,1.07,2.874,1.867c2.965,2.994,4.05,6.549,2.768,10.671c-0.341,1.099-0.753,2.183-1.228,3.229
		c-0.139,0.307-0.576,0.547-0.926,0.681c-2.145,0.816-6.343-0.014-7.59-1.67c-1.977-2.629-3.867-5.326-5.734-8.032
		c0.058,0.139,0.139,0.269,0.158,0.413c0.202,1.315-0.585,2.188-1.521,2.946c-1.521,1.233-2.783,0.96-3.824-0.787
		c-0.629-1.06-0.993-2.236-0.278-3.282c0.705-1.036,1.962-1.128,3.138-0.984c0.605,0.072,1.19,0.355,1.646,0.739
		c-0.12-0.178-0.25-0.346-0.369-0.518c-0.763-1.118-0.034-2.193,0.648-3.138c0.456-0.633,0.916-1.271,1.449-1.833
		c0.82-0.864,1.79-1.454,3.071-1.295C476.752,741.752,477.529,741.796,478.623,741.887z M475.638,735.443
		c0.115,0.312-0.106,0.749-0.307,1.89c-0.014,0.067-0.523,0.585-1.372,0.691c-0.379,0.048-0.859,0.062-1.161-0.12
		c-2.481-1.483-3.92-3.8-4.779-6.453c-0.187-0.576,0.192-1.627,0.667-2.039c0.48-0.413,1.598-0.648,2.111-0.369
		C473.335,730.419,474.674,732.823,475.638,735.443z M447.652,600.081c1.516,0.115,2.864,1.319,3.181,2.932
		c0.067,0.326-0.106,0.701-0.221,1.363c-0.782,0.456-1.698,1.223-2.749,1.559c-1.526,0.489-2.956-0.969-2.826-2.696
		C445.195,601.122,446.135,599.966,447.652,600.081z M446.941,703.536c0.907-0.686,2.054-1.214,3.167-1.411
		c1.128-0.197,2.341,0.101,3.493,0.182c1.176,0.297,2.49,0.321,3.435,0.921c3.714,2.37,7.85,3.464,12.029,4.582
		c0.988,0.264,1.847,1.411,2.533,2.327c1.54,2.054,0.509,5.062-1.91,5.748c-1.118,0.317-2.274,0.513-3.426,0.691
		c-4.64,0.72-9.275,1.459-13.929,2.078c-1.636,0.221-3.21-0.47-4.251-1.66c-1.276-1.463-2.404-3.124-3.282-4.851
		C443.583,709.764,444.763,705.187,446.941,703.536z M485.35,888.442c-1.842-1.281-2.807-3.239-2.816-5.969
		c-0.005-2.332-0.566-4.63-2.149-5.825c-0.149-0.12-0.273-0.254-0.422-0.379c0.581-0.321,1.132-0.681,1.756-0.94
		c0.883-0.36,2.625-0.048,3.224,0.72c1.185,1.526,2.481,3.008,3.416,4.683C489.956,883.596,488.252,887.166,485.35,888.442z
		 M490.887,864.558c-0.365,0.091-0.912,0.091-1.161-0.12c-1.18-0.998-2.327-2.049-3.411-3.152c-2.006-2.03-3.215-2.197-4.923-0.513
		c-1.123,1.108-2.145,2.327-3.306,3.392c-2.097,1.929-4.501,2.687-6.972,2.433c-2.437-2.922-4.697-5.959-7.749-8.516
		c0.537-1.07,1.694-2.178,2.912-2.922c-0.369,0.024-0.705,0.125-1.094,0.11c-0.777-0.034-1.607,0.048-2.341,0.293
		c-0.59,0.197-1.147,0.302-1.703,0.413c-2.927-2.975-4.62-6.924-5.724-10.906c-1.209-4.198-5.786-6.746-4.601-12.033
		c0.163-0.686-1.315-0.931-1.919-1.463c-2.495-2.13-4.678-4.491-5.379-7.471c3.603-4.16,8.243-6.895,13.957-8.089
		c0.739-0.154,1.55,0.024,1.598,0.024c3.906,1.598,7.399,2.557,10.397,4.352c6.813,4.078,10.858,10.239,12.038,18.156
		c0.11,0.739-0.192,1.555-0.365,2.322c-0.082,0.374-0.25,0.758-0.475,1.07c-2.073,2.903-4.002,5.93-6.3,8.641
		c-1.382,1.627-2.989,2.951-4.851,3.79c2.989,0.413,5.969,0.907,8.963,1.271c1.698,0.206,2.975-0.581,4.011-1.967
		c0.701-0.936,1.631-1.718,2.553-2.452c0.705-0.561,1.55-0.509,2.164,0.053c3.397,3.119,4.764,7.149,5.072,11.611
		C492.34,863.732,491.741,864.347,490.887,864.558z M491.472,719.159c-1.084,0.82-2.082,0.729-2.917-0.278
		c-0.441-0.533-0.84-1.401-0.705-1.996c0.086-0.379,1.161-0.595,1.823-0.763c0.331-0.086,0.729,0.101,1.204,0.187
		c0.509,0.331,1.411,0.614,1.622,1.161C492.652,717.853,491.99,718.765,491.472,719.159z M827.535,297.605
		c0.029,0.038,0.034,0.101,0.058,0.149c-0.696-0.192-1.382-0.398-2.078-0.59C826.234,296.799,826.997,296.885,827.535,297.605z
		 M817.406,424.815c0.864-0.086,1.684-0.053,2.461,0.072c0.83,0.796,1.89,1.367,3.167,1.67c0.283,0.067,0.571,0.13,0.854,0.192
		c0.585,0.499,1.132,1.084,1.636,1.766c1.578,2.092,3.642,2.922,6.185,2.567c0.197-0.034,0.389-0.034,0.585-0.062
		c-0.12,0.513-0.557,0.868-1.243,0.974c-0.768,0.115-1.545,0.173-2.466,0.273c-1.012-0.278-2.226-0.446-3.282-0.95
		c-2.135-1.008-4.217-2.145-6.261-3.33c-1.008-0.585-2.13-1.219-2.768-2.135c-0.288-0.417-0.633-0.739-0.969-1.08
		C815.981,424.848,816.681,424.867,817.406,424.815z M806.855,441.099c0.758-0.12,1.569-0.302,2.293-0.154
		c1.478,0.302,2.677,1.176,3.92,1.986c-0.029-0.259-0.077-0.523-0.048-0.792c0.206-1.938,2.135-3.335,4.054-2.932
		c1.977,0.413,3.066,2.255,2.538,4.299c-0.154,0.585-0.403,1.036-0.71,1.415c1.545,0.331,3.085,0.71,4.62,1.075
		c1.329,0.312,2.154,2.245,1.742,3.901c-0.254,1.022-1.569,2.442-2.322,2.423c-1.574-0.048-3.152-0.134-3.632-0.158
		c-3.095-0.547-4.976-1.132-5.705-3.32c-0.557-1.655-1.761-2.562-3.311-3.109c-1.463-0.513-3.143-0.542-4.241-1.852
		c-0.221-0.264-0.312-0.662-0.384-1.012C805.464,441.886,805.872,441.253,806.855,441.099z M802.81,851.944
		c-0.71,1.07-1.914,1.262-3.056,1.051c-0.163-0.029-0.312-0.086-0.47-0.134c-0.489,0.269-0.94,0.6-1.459,0.816
		c-1.785,0.763-3.704,1.262-5.609,1.67c-1.142,0.245-2.341-0.077-3.195-1.003c-1.603-1.732-3.028-3.575-3.666-5.921
		c-0.638-2.327,1.411-5.028,3.69-4.764c2.327,0.273,4.654,0.585,7.552,0.955c1.703,0.489,3.944,1.137,6.185,1.785
		c0.763,0.221,1.161,2.471,0.643,3.128c-0.187,0.24-0.441,0.393-0.643,0.614C803.17,850.648,803.223,851.32,802.81,851.944z
		 M782.966,775.007c-0.552-0.523-1.022-1.171-1.382-1.842c-0.35-0.657-0.595-1.396-0.744-2.125
		c-0.115-0.566,1.593-0.993,3.013-0.758c1.914,0.307,3.757,0.724,5.201,2.212c0.912,0.936,1.252,2.289,0.566,3.08
		c-1.267,1.454-2.965,2.174-4.011,1.535C784.655,776.514,783.781,775.775,782.966,775.007z M784.727,790.97
		c-0.513,0.6-1.171,0.749-1.89,0.307c-0.264-0.163-0.614-0.701-0.542-0.816c0.465-0.72,1.166-0.849,1.871-0.36
		C784.429,790.284,784.544,790.678,784.727,790.97z M782.74,800.802c1.603,0.096,3.21,0.13,4.256-1.334
		c1.185-1.66,2.658-2.941,4.251-4.064c-0.605-0.235-1.204-0.456-1.799-0.729c-0.197-0.091-0.336-0.763-0.321-0.772
		c1.056-0.489,2.106-0.993,3.205-1.382c1.607-0.571,3.205-0.705,4.784-0.504c0.931-0.158,1.996,0.134,2.797,0.748
		c0.154,0.067,0.312,0.096,0.465,0.168c0.331,0.154,0.72,0.557,0.749,0.873c0.005,0.086-0.058,0.192-0.091,0.288
		c0.864,1.435,1.166,3.099,0.657,5.532c0.024-0.086-0.13,0.686-0.355,1.439c-0.797,2.668-3.651,4.568-6.333,4.222
		c-1.171-0.149-2.394-0.173-3.488-0.561c-4.232-1.492-8.516-0.422-12.777-0.461c-0.274-0.005-0.758-0.475-0.768-0.749
		c-0.029-0.71,0.062-1.459,0.288-2.13c0.096-0.288,0.624-0.585,0.969-0.605C780.389,800.72,781.57,800.73,782.74,800.802z
		 M795.69,778.841c0.163-0.245,0.581-0.317,0.878-0.47c0.628,0.523,0.792,1.19,0.326,1.89c-0.168,0.254-0.763,0.557-0.888,0.465
		C795.349,780.237,795.234,779.522,795.69,778.841z M788.863,825.113c-0.523,0.681-1.271,0.82-2.03,0.576
		c-1.046-0.346-1.569-1.655-0.984-2.696c0.441-0.782,1.171-0.888,1.996-0.561C788.906,822.849,789.486,824.297,788.863,825.113z
		 M803.117,835.851c-0.163-2.49,0.998-4.342,3.378-5.311c0.739-0.302,1.478-0.106,2.02,0.581c1.238,1.574,1.828,3.311,1.166,5.1
		c-0.441,1.708-1.838,2.601-3.512,2.418C804.475,838.452,803.213,837.3,803.117,835.851z M809.235,742.77
		c-1.511,0.47-3.023,1.027-4.577,1.228c-1.128,0.144-2.457,0.062-3.464-0.413c-2.481-1.161-4.832-2.596-7.211-3.968
		c-0.202-0.12-0.317-0.638-0.25-0.916c0.091-0.355,0.336-0.806,0.638-0.945c1.056-0.485,2.135-1.065,3.258-1.209
		c1.147-0.149,2.356,0.178,5.259,0.47c1.636,0.11,4.15,2.049,6.621,4.059c0.288,0.235,0.648,0.681,0.595,0.964
		C810.055,742.328,809.585,742.659,809.235,742.77z M803.362,565.224c0.724,0.206,1.703,0.192,2.13,0.667
		c1.281,1.435,2.375,3.047,3.483,4.63c0.197,0.283,0.245,1.06,0.158,1.099c-0.686,0.278-1.444,0.638-2.145,0.581
		c-2.615-0.211-4.222-1.761-5.043-4.193C801.601,566.994,802.508,565.233,803.362,565.224z M799.634,548.536
		c-0.173,1.531-0.23,3.555-1.713,4.141c-4.429,1.751-8.046,4.74-12,7.216c-1.492,0.936-3.234,1.123-6.18,0.542
		c-1.507-0.24-3.114-1.209-4.232-2.97c-0.902-1.42-0.873-3.368,0.168-4.304c0.868-0.782,1.756-1.545,2.687-2.25
		c1.593-1.214,3.402-2.169,5.417-1.742c3.79,0.806,6.909-0.374,9.793-2.687c0.605-0.485,1.3-0.868,1.967-1.271
		c0.868-0.528,2.836-0.523,3.311,0.019C799.687,546.185,799.764,547.389,799.634,548.536z M790.35,423.193
		c0.878-0.36,2.625-0.048,3.224,0.72c1.185,1.526,2.481,3.008,3.416,4.683c1.982,3.546-1.08,8.243-5.259,8.224
		c-0.772-0.005-1.545-0.12-2.696-0.221c-0.734-0.302-1.857-0.629-2.85-1.195c-2.567-1.468-3.344-6.036-1.492-8.238
		C786.238,425.342,788.162,424.085,790.35,423.193z M774.833,412.589c3.819-0.461,7.624-0.552,11.323-0.144
		c-2.413,1.953-5.158,2.572-7.965,1.79c-1.089-0.254-1.876-0.398-2.629-0.624c-0.624-0.187-1.142-0.48-1.602-0.83
		C774.253,412.695,774.55,412.613,774.833,412.589z M763.294,729.393c0.95-1.708,2.529-2.898,4.664-2.946
		c3.651-0.086,6.607,3.392,5.974,6.621c-0.537,2.337-1.78,3.699-3.656,4.529c-0.95,0.417-2.629,0.297-3.253-0.384
		c-1.036-1.132-2.044-2.293-2.975-3.512C763.064,732.415,762.502,730.818,763.294,729.393z M762.459,758.555
		c0.345-1.598,0.993-3.004,2.725-3.56c0.753-0.245,1.531-0.441,2.26-0.749c4.472-1.876,7.005,2.217,6.736,5.484
		c-0.067,0.787-0.259,1.559-0.662,3.858c-0.581,2.481-4.251,4.505-7.778,2.98c-2.226-0.96-3.661-3.224-3.546-5.657
		C762.224,760.124,762.291,759.323,762.459,758.555z M762.214,781.494c0.091-0.374,0.302-0.72,0.441-1.084
		c0.518-1.367,2.293-2.289,3.79-1.967c2.341,0.499,4.285,2.452,4.678,4.712c0.403,2.308-0.701,4.601-2.912,5.945
		c-0.317,0.192-0.753,0.187-1.137,0.278C763.241,788.399,761.298,785.261,762.214,781.494z M752.167,782.732
		c0.264-0.072,0.734,0.249,0.984,0.513c1.463,1.559,1.895,3.392,1.372,5.249c-0.226,1.108-0.696,1.674-1.415,1.588
		c-0.254-0.029-0.533-0.571-0.648-0.931c-0.48-1.502-0.931-3.018-1.324-4.544C750.891,783.697,751.275,782.977,752.167,782.732z
		 M749.135,866.501c0.13,1.137-0.974,2.322-2.063,2.447c-1.722,0.192-3.311-0.499-3.834-1.727c-0.643-1.502-0.389-2.874,0.667-4.131
		c0.576-0.686,1.2-0.84,2.044-0.547C747.935,863.243,748.866,864.716,749.135,866.501z M743.205,810.863
		c-0.115-0.921,0.23-1.555,1.137-1.742c1.291-0.269,2.178,0.369,2.318,1.578c0.082,0.897-0.264,1.559-1.104,1.78
		C744.447,812.773,743.349,811.986,743.205,810.863z M744.212,760.474c2.145,0.662,3.09,2.183,3.306,4.318
		c0.115,1.142-1.31,2.255-4.179,1.18c-0.254-0.101-1.276-1.603-1.54-3.714C741.64,761.012,742.907,760.071,744.212,760.474z
		 M737.759,554.591c0.753-0.456,1.511-0.398,2.097,0.158c1.914,1.809,2.365,3.939,1.348,6.165c-0.609,1.334-2.188,1.986-3.829,1.579
		c-1.598-0.398-2.577-1.766-2.509-3.301C734.966,557.091,736.032,555.633,737.759,554.591z M740.59,794.012
		c-0.417,0.542-0.95,1.593-1.785,2.26c-2.193,1.756-4.438,1.305-5.839-1.046c-0.389-0.653-0.811-1.367-0.912-2.102
		c-0.221-1.545-0.067-3.056,1.257-4.184c1.247-1.065,3.752-0.787,5.268,0.629C739.716,790.639,740.695,791.805,740.59,794.012z
		 M730.063,724.887c0.11-0.864,0.379-1.641,1.19-1.799c0.686-0.134,1.631-0.125,2.145,0.254c2.759,2.025,2.96,5.225,3.469,8.243
		c0.024,0.144-0.557,0.552-0.859,0.561c-1.516,0.034-3.037-0.024-3.776-0.038c-1.526-0.35-2.322-0.427-3.018-0.729
		c-0.677-0.288-1.252-0.811-1.876-1.228c0.628-0.413,1.228-0.868,1.886-1.224C731.118,727.91,729.885,726.25,730.063,724.887z
		 M713.174,430.011c1.171-0.974,2.399-1.881,3.637-2.773c0.293-0.211,0.71-0.307,1.08-0.341c0.35-0.038,0.715,0.072,1.358,0.149
		c1.008,0.792,2.221,1.718,3.397,2.687c0.705,0.585,0.585,2.308-0.024,3.147c-2.049,2.816-7.216,3.522-9.63-0.772
		C712.536,431.311,712.507,430.567,713.174,430.011z M702.225,704.088c0.533-1.041,1.444-1.876,2.039-2.893
		c2.485-4.266,6.54-5.523,10.853-2.092c3.085,2.457,6.324,4.635,10.282,5.537c1.435,0.326,2.231,2.106,2.039,3.786
		c-0.043,0.389-0.13,0.777-0.11,0.643c-0.317,2.111-0.878,3.579-2.078,4.683c-0.868,0.797-1.852,1.463-2.797,2.178
		c-6.66,5.033-8.291,4.141-14.293-1.056c-2.327-2.015-3.939-4.875-5.772-7.432C701.683,706.458,701.678,705.158,702.225,704.088z
		 M719.498,731.533c-1.008,0.379-2.078-0.273-2.399-1.478c-0.245-0.907,0.12-1.732,0.998-1.674c0.59,0.038,1.175,0.825,1.67,1.363
		c0.216,0.235,0.202,0.686,0.293,1.041C719.877,731.043,719.742,731.441,719.498,731.533z M720.241,803.282
		c-0.297,0.187-0.724,0.605-0.864,0.523c-0.739-0.422-0.916-1.137-0.475-1.881c0.163-0.273,0.729-0.619,0.883-0.533
		C720.5,801.804,720.62,802.5,720.241,803.282z M718.092,838.951c0.782-0.005,1.569,0.202,2.346,0.35
		c0.389,0.072,0.797,0.158,1.132,0.355c0.321,0.192,0.792,0.533,0.787,0.801c-0.01,0.619-0.667,0.94-1.612,0.878
		c-0.787-0.048-1.574-0.173-2.361-0.259c-1.674-0.336-3.071-1.406-2.519-1.694C716.508,839.047,717.339,838.955,718.092,838.951z
		 M698.957,773.616c1.224,0.83,1.766,2.481,1.698,4.165c-0.086,2.207-1.631,3.862-3.584,3.68c-0.772-0.072-1.55-0.12-1.698-0.13
		c-0.221-0.038-0.355-0.053-0.547-0.082c0.403,0.936,0.59,1.972,0.427,3.032c-0.48,3.176-3.733,5.431-6.89,4.779
		c-3.162-0.653-5.225-3.944-4.448-7.087c0.417-1.689,1.641-2.951,3.167-3.651c-1.66-0.916-3.277-1.919-4.889-2.922
		c-2.476-1.545-1.914-5.35,0.83-6.78c1.862-0.969,3.81-0.988,5.666-0.374C692.389,769.475,695.762,771.447,698.957,773.616z
		 M681.425,891.062c0.984,0.657,1.948,1.353,2.879,2.087c0.844,0.667,0.782,1.377-0.691,2.437c-0.408,0.149-1.454,0.739-2.562,0.878
		c-1.766,0.221-3.858-2.279-3.469-3.915C677.918,891.158,680.211,890.251,681.425,891.062z M678.839,851.056
		c0.811-1.449,2.802-1.722,3.91-0.456c0.504,0.576,0.95,1.214,1.334,1.881c0.168,0.297,0.11,0.724,0.154,1.094
		c-0.552,0.537-1.041,1.171-1.674,1.588c-1.027,0.681-2.231,0.772-3.315,0.197C678.206,854.818,678.052,852.457,678.839,851.056z
		 M683.316,812.389c-1.343-2.034-1.046-3.526,0.873-5.129c1.516-1.271,2.884-1.003,3.862,0.763c1.008,1.814,1.084,2.37,0.547,4.52
		c-0.355,1.641-2.394,2.5-3.656,1.54C684.328,813.612,683.738,813.036,683.316,812.389z M688.498,801.761
		c-0.557,0.312-1.598,0.374-2.111,0.053c-1.636-1.027-3.272-2.135-4.635-3.493c-1.348-1.348-1.804-3.104-1.334-5.009
		c-1.967-0.533-3.982-0.936-6.026-1.233c-0.772-0.11-1.507-0.456-2.265-0.667c-1.31-0.369-2.169-2.178-1.823-3.858
		c0.326-1.569,2.121-2.826,3.469-2.442c0.374,0.106,0.777,0.125,1.142,0.25c2.586,0.902,4.481,3.176,7.423,3.493
		c0.523,0.058,1.041,0.178,1.559,0.259c0.528-0.24,1.08-0.393,1.627-0.427c1.598-0.101,3.195,0.226,4.265,1.459
		c0.038,0.043,0.067,0.091,0.106,0.139c0.192,0.038,0.384,0.086,0.576,0.125c1.348,0.273,2.073,1.051,2.274,2.303
		c-0.024,0.393,0.082,0.864-0.096,1.171c-0.019,0.034-0.058,0.062-0.077,0.096c0.192,0.302,0.398,0.595,0.581,0.897
		c0.355,0.59,0.206,1.478,0.288,2.231c-0.374,0.657-0.609,1.478-1.152,1.943C691.117,800.068,689.846,801.003,688.498,801.761z
		 M677.577,848.321c-0.12,1.094-0.326,2.322-1.622,2.759c-0.691,0.23-1.435,0.293-2.159,0.432c-1.919-0.274-3.339-2.198-2.951-4.064
		c0.321-1.535,1.022-2.888,2.457-3.627c0.595-0.307,1.55-0.576,2.049-0.312C677.222,844.516,677.798,846.32,677.577,848.321z
		 M691.055,915.441c2.25-0.624,4.515-1.204,6.794-1.708c0.888-0.197,1.559,0.326,1.809,1.214c0.096,0.341,0.005,0.739-0.005,1.108
		c-0.187,0.317-0.293,0.768-0.566,0.931c-2.058,1.19-4.285,1.914-6.655,2.058c-1.171,0.072-2.351-0.11-3.167-1.137
		C688.833,917.35,689.918,915.753,691.055,915.441z M695.047,892.986c1.113-0.043,2.241,0.014,3.349,0.154
		c0.288,0.034,0.513,0.533,0.979,1.046c-0.734,0.71-1.387,1.559-2.236,2.106c-0.979,0.629-2.365,0.235-3.052-0.609
		C693.42,894.872,694.02,893.029,695.047,892.986z M698.353,848.585c-0.278-1.3,0.384-2.212,1.607-2.322
		c0.902-0.077,1.579,0.278,1.814,1.128c0.307,1.113-0.513,2.231-1.655,2.356C699.188,849.847,698.549,849.501,698.353,848.585z
		 M688.507,758.593c0.84,0.461,1.108,1.214,0.552,1.986c-0.398,0.547-1.032,1.199-1.631,1.276c-2.03,0.264-3.838-0.374-5.019-2.13
		c-0.355-0.533-0.374-1.339-0.389-2.02c-0.005-0.158,0.653-0.48,0.993-0.47c1.156,0.038,2.303,0.192,3.315,0.283
		C687.149,757.917,687.845,758.229,688.507,758.593z M681.603,644.535c0.437-0.782,1.339-0.806,1.866,0.034
		c0.581,0.931,0.974,2.03,1.228,3.104c0.269,1.132-1.204,2.125-2.337,1.674C680.6,648.642,680.283,646.896,681.603,644.535z
		 M668.384,709.063c0.772-0.082,1.55-0.269,2.313-0.216c1.559,0.11,3.109,0.35,5.129,0.59c1.056,0.331,2.62,0.638,4.002,1.31
		c1.43,0.696,2.394,1.967,2.84,3.565c0.269,0.955-0.739,2.687-1.569,2.764c-3.584,0.326-7.029-0.393-10.34-1.583
		c-1.42-0.509-2.629-1.67-3.843-2.648c-0.533-0.432-0.892-1.118-1.219-1.746C665.453,710.623,667.41,709.159,668.384,709.063z
		 M664.061,733.092c0.801-0.974,2.03-0.82,3.138-0.614c1.195,0.221,2.15,1.06,2.337,2.145c0.177,1.041-0.096,2.265-0.523,3.253
		c-0.216,0.494-1.224,0.643-1.876,0.95c-0.369-0.043-0.816,0.029-1.099-0.149c-1.315-0.835-2.327-1.991-2.567-3.551
		C663.37,734.483,663.644,733.601,664.061,733.092z M657.133,709.404c0.192-0.744,0.346-1.502,0.595-2.221
		c0.12-0.336,0.379-0.677,0.672-0.883c0.585-0.408,1.329-0.288,1.871,0.441c0.916,1.219,1.746,2.505,2.553,3.805
		c0.47,0.753,0.283,1.511-0.47,2.039c-0.619,0.437-1.271,0.859-1.967,1.128c-1.516,0.59-3.306-0.513-3.339-2.01
		C657.037,710.94,657.104,710.172,657.133,709.404z M649.591,886.355c-0.734,0.945-1.612,1.823-2.903,1.794
		c-1.132-0.024-2.591-1.886-2.62-3.512c-0.01-0.643,0.528-1.497,1.075-1.89c0.566-0.403,1.449-0.365,2.197-0.513
		c0.369,0.12,0.753,0.226,1.113,0.369C650.205,883.304,650.713,884.906,649.591,886.355z M643.823,762.163
		c-0.595,0.374-1.286,0.71-1.972,0.801c-0.806,0.106-1.483-0.451-1.631-1.329c-0.125-0.739-0.053-1.535,0.062-2.284
		c0.202-1.324,1.171-2.039,2.413-1.895c1.209,0.139,1.871,1.089,1.732,2.519c-0.038,0.379-0.125,0.753-0.211,1.228
		C644.121,761.467,644.087,762,643.823,762.163z M637.97,685.352c0.427-1.027,1.507-1.972,2.572-1.991
		c0.773-0.01,1.545,0.019,2.317,0.034c2.466,0.273,4.414,1.3,5.537,3.651c0.619,1.296,0.235,3.263-0.926,4.193
		c-2.802,2.245-5.772,1.919-8.723,0.451c-0.59-0.293-1.137-1.123-1.276-1.794C637.149,688.37,637.351,686.839,637.97,685.352z
		 M641.799,740.596c1.9,1.722,2.298,4.098,0.787,6.146c-1.454,1.982-3.939,2.975-6.093,2.437c-2.888-0.595-5.345-4.098-4.299-7.125
		c0.235-0.691,0.686-1.401,1.243-1.857c0.566-0.47,1.396-0.609,2.078-0.95C637.984,738.005,639.918,738.888,641.799,740.596z
		 M631.588,872.388c0.768,0.062,1.531,0.158,2.188,0.23c2.543,0.437,4.376,1.612,5.359,3.997c0.59,1.439-0.566,3.133-2.121,3.229
		c-3.776,0.235-6.636-1.612-9.356-3.867c-0.883-0.734-0.576-2.169,0.657-2.725c0.696-0.317,1.406-0.609,2.13-0.83
		C630.797,872.307,631.209,872.359,631.588,872.388z M630.989,816.035c0.173-0.264,0.662-0.547,0.907-0.48
		c0.254,0.072,0.384,0.566,0.542,0.825c-0.067,0.398-0.034,0.816-0.221,1.08c-0.178,0.254-0.734,0.571-0.864,0.48
		C630.662,817.48,630.523,816.755,630.989,816.035z M625.025,628.135c1.008,0.058,2.001,0.13,2.97,0.192
		c0.177-0.25,0.374-0.485,0.561-0.643c0.566-0.48,1.353-0.739,2.087-0.955c0.321-0.096,0.758,0.13,1.118,0.264
		c0.777,0.297,1.118,0.883,1.166,1.703c0.029,0.47-0.058,0.849-0.259,1.142c1.382,0.936,2.265,2.317,2.596,4.011
		c0.417,2.135-0.964,4.697-3.047,5.863c-1.847,1.032-3.891,1.118-5.556-0.024c-2.639-1.804-4.361-4.395-4.932-7.634
		C621.397,630.16,623.177,628.03,625.025,628.135z M623.211,768.583c0.403-1.032,1.866-1.646,2.706-1.027
		c0.705,0.518,0.859,1.271,0.624,2.039c-0.336,1.084-1.641,1.598-2.721,0.988C623.029,770.137,622.88,769.413,623.211,768.583z
		 M623.393,842.165c-0.182,1.756-1.214,2.855-2.797,3.042c-1.564,0.187-3.339-0.758-3.776-1.972
		c-0.446-1.243,0.029-3.287,1.152-4.078c0.566-0.398,1.377-0.451,2.078-0.657C622.367,838.706,623.614,840.073,623.393,842.165z
		 M617.708,566.375c0.739,0.005,1.631,0.202,2.159,0.657c0.489,0.422,0.59,1.295,0.859,1.972c-0.062,1.18-1.468,2.006-2.524,1.415
		c-0.653-0.365-1.348-0.782-1.785-1.358c-0.437-0.576-0.571-1.382-0.835-2.087C616.292,566.764,617.002,566.37,617.708,566.375z
		 M614.767,697.615c0.696-0.038,1.516,0.326,2.116,0.744c1.339,0.921,2.111,2.361,2.245,3.906c0.134,1.521-0.206,3.08-0.288,4.069
		c-0.326,1.3-0.403,2.102-0.734,2.788c-0.307,0.629-0.84,1.171-1.377,1.636c-0.11,0.096-0.734-0.23-0.998-0.489
		c-1.665-1.612-3.344-3.21-4.899-4.923c-0.47-0.518-0.701-1.372-0.777-2.102C609.777,700.624,612.137,697.769,614.767,697.615z
		 M609.57,742.746c0.369-0.086,0.768-0.101,1.147-0.077c0.389,0.024,0.811,0.043,1.151,0.206c2.86,1.367,5.556,3.008,7.514,5.556
		c0.374,0.489,0.178,1.415,0.245,2.14c-1.31,2.169-4.678,2.648-6.036,0.792c-1.631-2.231-3.2-4.515-4.721-6.823
		C608.289,743.652,608.615,742.966,609.57,742.746z M615.956,785.793c-0.537,0.638-1.219,0.806-1.938,0.346
		c-0.264-0.168-0.571-0.772-0.475-0.907c0.499-0.691,1.224-0.811,1.924-0.336C615.712,785.069,615.793,785.486,615.956,785.793z
		 M560.424,720.459c1.075-0.48,2.241-0.792,3.263-1.363c1.382-0.772,2.826-1.747,3.09-3.383c0.681-4.174,3.296-6.981,6.266-9.615
		c0.576-0.513,0.96-1.243,1.492-1.809c0.806-0.854,3.455-1.065,4.443-0.317c0.926,0.705,1.938,1.396,2.62,2.313
		c1.492,2.006,3.392,3.148,5.801,3.757c1.492,0.374,2.922,1.108,4.289,1.852c5.657,3.085,8.353,8.209,9.342,14.303
		c0.379,2.337-0.134,4.702-1.487,6.78c-2.174,3.335-4.827,6.141-8.209,8.334c-2.433,1.574-4.827,2.586-7.744,1.91
		c-1.151-0.269-2.327-0.417-4.899-0.864c-0.149-0.034-1.689-0.369-3.219-0.729c-1.617-0.374-2.658-1.526-3.805-2.634
		c-2.601-2.514-2.447-6.597-5.479-8.953c-2.461-1.91-4.477-4.395-6.684-6.636C558.879,722.781,559.45,720.895,560.424,720.459z
		 M600.003,754.933c-0.043,0.864-0.417,1.526-1.31,1.698c-1.137,0.221-2.202-0.806-2.198-1.982c0.019-0.883,0.451-1.507,1.329-1.67
		C599.019,752.764,600.065,753.743,600.003,754.933z M566.047,781.398c0.748,1.823,1.286,3.757,1.689,5.686
		c0.245,1.166-0.202,2.37-1.161,3.172c-1.214,1.012-2.605,1.828-3.781,2.879c-2.956,2.648-6.314,3.052-9.783,2.078
		c-2.672-0.379-4.702-1.435-6.108-3.584c-0.868-1.324-1.828-2.591-2.773-3.867c-1.823-2.466-1.914-5.153-0.868-7.893
		c0.408-1.07,1.056-2.13,1.838-2.97c2.864-3.076,6.751-3.944,10.671-4.654c0.365-0.067,0.83,0.019,1.161,0.197
		C560.846,774.537,564.301,777.147,566.047,781.398z M544.293,826.999c-0.034,0.849-0.403,1.492-1.286,1.655
		c-1.128,0.202-2.164-0.806-2.135-1.953c0.029-0.859,0.451-1.463,1.3-1.627C543.319,824.849,544.341,825.818,544.293,826.999z
		 M553.323,756.77c0.533-0.441,1.238-0.686,1.862-1.012c0.269,0.154,0.662,0.245,0.792,0.475c0.475,0.859-0.163,2.044-1.363,2.418
		c-0.336,0.106-0.816,0.134-1.089-0.034C552.699,758.109,552.603,757.365,553.323,756.77z M549.254,692.491
		c0.475-1.017,1.766-1.387,2.797-0.691c0.768,0.518,0.864,1.286,0.427,2.106c-0.595,1.056-1.876,1.411-2.816,0.701
		C548.952,694.075,548.866,693.321,549.254,692.491z M545.517,738.37c0.158,0.931-0.969,2.169-2.03,2.279
		c-1.708,0.182-3.33-0.528-3.838-1.713c-0.643-1.507-0.36-2.879,0.648-4.141c0.537-0.672,1.19-0.878,1.43-0.787
		C544.298,734.901,545.186,736.427,545.517,738.37z M521.762,677.589c1.233-0.916,2.524-1.756,3.824-2.572
		c0.787-0.494,1.55-0.321,2.078,0.446c1.089,1.574,2.207,3.138,3.181,4.784c0.782,1.324-0.547,3.248-2.121,3.191
		c-0.768-0.029-1.54-0.082-3.023-0.163c-0.772-0.384-2.188-0.969-3.479-1.756C520.879,680.693,520.649,678.414,521.762,677.589z
		 M515.313,696.613c0.523-0.705,1.19-0.926,2.054-0.633c1.66,0.245,2.457,1.531,3.018,2.917c0.254,0.619,0.216,1.473,0.024,2.14
		c-0.302,1.056-1.387,1.406-2.706,1.367C514.838,702.327,513.428,699.16,515.313,696.613z M508.193,651.017
		c0.912-0.744,1.934-1.247,3.186-1.252c1.329-0.005,2.221,1.224,1.679,2.452c-0.792,1.79-2.509,2.087-4.913,0.734
		C507.344,652.495,507.382,651.679,508.193,651.017z M499.446,744.195c0.72-1.324,1.243-2.754,1.847-4.141
		c-0.024-0.005-0.048-0.01-0.072-0.014l0.115-0.096c-0.014,0.034-0.029,0.072-0.043,0.106c1.521,0.273,3.042,0.585,4.568,0.816
		c2.956,0.441,4.86,2.226,6.492,4.601c2.02,2.941,1.881,5.892,0.403,8.891c-0.293,0.6-1.128,1.171-1.799,1.296
		c-1.977,0.369-3.973,0.043-5.7-0.94c-1.694-0.969-3.239-2.217-4.774-3.435C498.002,749.309,497.776,747.265,499.446,744.195z
		 M500.291,782.982c1.598-0.696,3.162,0.341,3.359,2.087c0.144,1.262-0.273,2.313-1.094,3.224c-0.561,0.624-1.305,0.758-2.164,0.48
		c-0.336-0.192-0.725-0.321-0.993-0.581C496.874,785.745,497.018,784.407,500.291,782.982z M516.637,902.03
		c-0.254,1.022-1.569,2.447-2.322,2.423c-1.579-0.048-3.152-0.134-3.632-0.158c-3.095-0.547-4.976-1.132-5.71-3.32
		c-0.552-1.655-1.761-2.562-3.311-3.109c-1.463-0.513-3.143-0.542-4.241-1.852c-0.221-0.264-0.312-0.662-0.389-1.017
		c-0.206-0.974,0.197-1.607,1.18-1.761c0.758-0.12,1.569-0.302,2.293-0.154c1.478,0.302,2.677,1.175,3.92,1.986
		c-0.029-0.264-0.077-0.523-0.048-0.792c0.206-1.943,2.135-3.335,4.054-2.932c1.977,0.413,3.066,2.255,2.538,4.294
		c-0.154,0.585-0.403,1.036-0.71,1.415c1.545,0.331,3.085,0.71,4.625,1.075C516.225,898.446,517.05,900.38,516.637,902.03z
		 M522.424,884.138c-0.768,0.115-1.545,0.173-2.466,0.273c-1.012-0.283-2.226-0.451-3.287-0.95c-2.135-1.008-4.217-2.145-6.261-3.33
		c-1.008-0.585-2.13-1.219-2.768-2.135c-1.694-2.433-4.251-3.397-6.722-4.664c-1.823-0.936-2.821-2.701-2.879-4.865
		c-0.034-1.252,0.408-2.293,1.319-3.128c0.844-0.772,3.57-0.916,4.467-0.101c1.166,1.056,2.26,2.202,3.267,3.407
		c1.3,1.555,1.756,3.503,2.351,5.403c0.753,2.413,2.428,4.049,4.956,4.649c2.696,0.638,5.427,1.166,8.085,1.934
		c0.523,0.149,0.945,1.113,1.151,1.785C523.926,883.356,523.403,883.99,522.424,884.138z M523.671,794.732
		c-1.022,0.11-2.149-0.513-3.191-0.902c-0.302-0.115-0.677-0.605-0.653-0.888c0.062-0.705,0.115-1.771,0.557-2.02
		c2.668-1.521,5.494-2.749,8.665-1.79c0.509,0.154,0.82,0.95,1.219,1.439C528.584,792.851,526.449,794.435,523.671,794.732z
		 M526.281,707.49c0.149-0.221,0.648-0.302,0.974-0.278c0.35,0.024,0.82,0.158,0.993,0.408c0.379,0.561,0.633,1.204,0.926,1.823
		c0.062,0.014,0.125,0.029,0.187,0.048l-0.115,0.096c-0.024-0.048-0.048-0.091-0.072-0.139c-0.677-0.158-1.367-0.293-2.03-0.509
		C526.238,708.641,525.888,708.075,526.281,707.49z M534.827,711.064c-0.633,0.115-1.478-0.417-2.092-0.844
		c-0.964-0.681-2.126-1.358-2.644-2.332c-1.128-2.116-2.577-3.949-4.021-5.825c-0.35-0.456-0.293-1.732,0.096-2.178
		c1.828-2.078,3.79-4.04,5.796-5.95c0.912-0.868,2.241-0.993,3.359-0.643c5.374,1.679,8.325,5.777,8.435,11.525
		c0.01,0.389-0.125,0.777-0.254,1.507c-0.542,0.681-1.147,1.718-2.006,2.471C539.615,710.441,537.149,710.642,534.827,711.064z
		 M546.567,899.286c-0.302,0.187-0.792,0.317-1.099,0.211c-0.782-0.278-1.022-0.96-0.677-1.78c0.619-1.468,1.583-2.591,3.296-2.692
		c0.235-0.014,0.504,0.465,0.748,0.71C548.971,897.491,547.863,898.465,546.567,899.286z M550.79,835.654
		c-0.533,3.474-5.882,7.226-9.678,6.631c-1.631-0.254-2.912-2.116-2.313-3.368c0.168-0.346,0.312-0.72,0.557-1.003
		c1.612-1.833,2.106-4.126,2.816-6.367c0.902-2.84,4.222-3.411,6.583-1.271C550.3,831.677,551.039,833.39,550.79,835.654z
		 M554.062,817.23c-0.912-0.24-2.063-0.427-3.119-0.859c-1.463-0.6-2.471-1.737-3.076-3.219c-0.739-1.809-0.211-4.227,1.152-5.201
		c1.372-0.984,4.002-0.701,5.23,0.734c1.238,1.449,2.322,3.028,3.416,4.592c0.533,0.763,0.456,2.898-0.13,3.215
		c-0.643,0.35-1.391,0.528-2.116,0.71C555.06,817.297,554.662,817.225,554.062,817.23z M555.333,882.699
		c-1.147-1.953,0.59-5.182,2.85-5.273c0.35-0.014,0.84-0.005,1.046,0.206c2.701,2.74,5.22,5.604,6.17,9.481
		c0.053,0.01,0.106,0.024,0.154,0.034c-0.005,0.038-0.01,0.072-0.014,0.11c1.511,0.312,3.052,0.537,4.529,0.969
		c1.612,0.47,2.519,1.785,3.277,3.21c0.489,0.916,0.446,2.62-0.317,3.315c-0.854,0.777-1.804,1.555-2.86,1.972
		c-1.108,0.441-2.313,0.192-3.234-0.753c-1.132-1.156-2.054-2.466-1.982-4.136c0.072-1.531,0.374-3.052,0.585-4.577
		c-0.034-0.005-0.062-0.01-0.096-0.019c-0.01-0.043-0.034-0.082-0.043-0.125c-2.231-0.461-4.477-0.859-6.688-1.406
		C557.109,885.314,556.135,884.066,555.333,882.699z M575.101,934.997c-2.552,2.082-5.287,3.445-8.713,2.586
		c-0.763-0.192-1.555-0.278-3.656-0.643c0.154,0.038-1.032-0.134-2.135-0.537c-0.696-0.254-1.286-0.825-1.852-1.339
		c-0.062-0.058,0.283-0.724,0.561-0.979c0.873-0.792,1.775-1.555,2.716-2.26c6.3-4.726,7.725-4.049,13.487,0.331
		C576.483,932.891,576.267,934.047,575.101,934.997z M573.201,875.19c-0.902,0.019-1.607-0.403-1.651-1.3
		c-0.048-1.099-0.168-2.413,0.345-3.277c1.305-2.174,3.685-2.389,5.974-2.509c0.178-0.01,0.561,0.619,0.552,0.945
		C578.34,872.777,576.406,875.022,573.201,875.19z M579.372,864.155c-0.206,0.48-1.281,0.585-1.958,0.859
		c-0.83-0.062-1.598-0.518-1.626-1.391c-0.038-1.132,0.144-2.332,0.533-3.392c0.293-0.797,1.171-0.96,1.962-0.859
		c0.82,0.106,1.607,0.513,1.641,1.382C579.971,861.89,579.813,863.123,579.372,864.155z M583.958,820.502
		c-1.161,2.01-2.591,3.891-4.088,5.676c-1.017,1.214-2.485,1.962-4.122,1.862c-1.938-0.12-3.867-0.461-5.398-0.653
		c-1.535-0.384-2.682-0.629-3.795-0.969c-0.269-0.082-0.547-0.321-0.701-0.566c-0.024-0.005-0.043,0.005-0.067,0
		c-1.492-0.293-2.888-1.771-2.745-3.162c0.158-1.502,0.489-2.994,0.868-4.453c0.211-0.811,1.833-1.516,2.864-1.425
		c1.814,0.158,3.2,1.228,3.32,2.553c0.034,0.384,0.082,0.768,0.053,1.152c-0.062,0.763-0.178,1.516-0.269,2.279
		c-0.197,0.859-0.667,1.55-1.243,2.092c0.273,0.034,0.547,0.058,0.825,0.072c4.841,0.283,8.123-2.044,10.287-6.204
		c0.533-1.022,0.753-2.255,1.905-2.836c0.302-0.154,0.715-0.115,1.075-0.115c0.844-0.005,1.603,0.437,1.651,1.319
		C584.443,818.257,584.486,819.591,583.958,820.502z M582.807,779.964c0.293-1.08,1.492-2.034,2.572-2.087
		c2.917-0.139,5.527,0.489,7.375,2.98c0.71,0.955,1.387,1.938,2.049,2.927c0.149,0.226,0.23,0.48,0.264,0.749
		c1.176,0.912,2.169,3.243,1.598,4.328c-0.178,0.336-0.273,0.724-0.499,1.022c-0.936,1.238-1.881,2.461-2.864,3.661
		c-0.576,0.701-1.372,0.907-2.087,0.427c-0.581-0.389-1.358-0.964-1.439-1.545c-0.216-1.569-0.005-3.124,0.485-4.62
		c-1.507,0.019-2.98-0.355-4.4-0.921C583.339,785.87,582.03,782.843,582.807,779.964z M595.138,801.536
		c-0.542,0.878-1.176,0.844-1.847,0.062c-1.089-1.262-1.3-2.452-0.417-2.682c0.321-0.082,0.686-0.005,1.032,0
		c0.772,0.216,1.243,0.72,1.324,1.521C595.263,800.802,595.311,801.253,595.138,801.536z M591.587,888.62
		c-0.379,0.417-1.43,0.59-2.015,0.393c-1.507-0.509-2.409-1.775-2.826-3.267c-0.312-1.108-0.225-2.308,0.753-3.095
		c0.864-0.696,1.842-1.291,2.85-1.756c0.873-0.403,2.648,0.595,2.696,1.435c0.062,1.113,0.086,2.231,0.134,3.479
		C592.686,886.734,592.302,887.828,591.587,888.62z M594.96,833.529c-0.724-0.192-1.516-0.254-2.149-0.609
		c-0.475-0.264-0.744-0.902-1.099-1.377c0.331-0.178,0.681-0.533,0.988-0.499c1.483,0.163,2.97,0.355,4.419,0.696
		c0.84,0.197,1.243,0.849,1.017,1.406c-0.106,0.264-0.604,0.504-0.936,0.518C596.457,833.697,595.709,833.582,594.96,833.529z
		 M598.741,1143.049c-0.345-0.581-0.729-1.132-0.984-1.77c-0.038-0.096,0.614-0.936,0.825-0.892
		c0.638,0.139,1.219,0.547,1.833,0.849L598.741,1143.049z M600.718,903.834c-0.528,0.686-1.281,0.835-2.049,0.595
		c-1.07-0.336-1.598-1.655-0.993-2.716c0.446-0.787,1.176-0.902,2.015-0.581C600.756,901.536,601.351,903.009,600.718,903.834z
		 M600.996,800.379c0.729-1.032,1.377-1.214,2.202-1.017c0.777,0.187,1.425,0.6,1.559,1.459c0.12,0.744,0.13,1.593-0.12,2.279
		c-0.24,0.657-0.878,1.171-1.343,1.751c-0.571-0.504-1.387-0.902-1.66-1.535C601.212,802.332,601.159,801.195,600.996,800.379z
		 M602.143,822.642c-0.254-0.854,0.537-1.823,1.905-2.5c0.844-0.417,1.607-0.302,2.063,0.513c0.542,0.974,0.988,2.01,1.367,3.056
		c0.106,0.302-0.168,0.739-0.273,1.113c-0.489,0.701-1.142,0.955-1.967,0.825C603.486,825.382,602.608,824.202,602.143,822.642z
		 M603.755,910.739c-0.259-0.158-0.595-0.677-0.518-0.82c0.398-0.734,1.089-0.907,1.818-0.465c0.264,0.163,0.369,0.585,0.552,0.888
		C605.132,911.002,604.484,911.18,603.755,910.739z M613.778,1142.401c-2.25,1.675-4.707,2.917-7.13,4.285
		c0.753-2.528,1.382-5.124,2.413-7.494c0.134-0.307,0.485-0.547,0.773-0.811l0.974,0.561c0.552,0.365,1.483-0.043,2.231-0.091
		c0.177-0.374,0.341-0.72,0.518-1.094c0.446,0.293,0.844,0.677,1.017,1.118C614.891,1139.69,614.402,1141.941,613.778,1142.401z
		 M614.061,964.568c-0.345,0.072-0.729-0.038-1.099-0.072c-1.651-0.341-2.692-1.118-2.226-1.593c0.912-0.916,2.044-0.542,3.1-0.225
		c0.326,0.096,0.653,0.307,0.883,0.557c0.182,0.202,0.374,0.667,0.278,0.787C614.781,964.284,614.407,964.491,614.061,964.568z
		 M623.59,897.683c-0.465,0.552-1.142,1.305-1.732,1.31c-1.948,0.019-3.896-0.259-5.585-0.398c-2.174-0.504-4.155-0.744-5.969-1.439
		c-2.548-0.979-4.937-2.38-6.156-4.995c-0.182-0.389,0.509-1.679,0.984-1.799c3.383-0.864,7,0.192,10.359-1.175
		c0.302-0.125,0.844,0.01,1.128,0.221c2.485,1.828,5.57,2.96,6.986,6.045C623.974,896.244,624.151,897.016,623.59,897.683z
		 M624.636,985.741c0.201-0.144,0.456-0.259,0.677-0.389c0.273,0.23,0.417,0.499,0.499,0.777
		C625.418,986,625.02,985.885,624.636,985.741z M628.307,891.335c-0.792-0.235-2.279-0.638-3.733-1.132
		c-0.321-0.11-0.686-0.513-0.753-0.84c-0.062-0.293,0.158-0.782,0.413-0.984c2.917-2.303,5.494-2.226,8.181,0.331
		c0.494,0.47,0.878,1.42,0.753,2.044c-0.077,0.393-1.161,0.739-1.828,0.83C630.59,891.69,629.799,891.479,628.307,891.335z
		 M634.53,955.97c-2.25,0.029-3.805-1.401-3.608-3.32c0.24-2.394,1.507-3.589,3.555-3.359c2.034,0.23,3.387,1.948,3.08,3.901
		C637.317,954.741,636.003,955.95,634.53,955.97z M655.521,924.523c-0.724,1.881-2.03,2.241-3.742,1.012
		c-2.864-2.054-6.42-2.802-9.083-5.283c-1.084-1.008-1.794-2.125-2.346-3.287c-0.029,0.086,0,0.154-0.043,0.245
		c-0.297,0.178-0.72,0.585-0.868,0.499c-0.739-0.413-0.916-1.123-0.47-1.862c0.134-0.226,0.518-0.446,0.744-0.475
		c-0.413-1.449-0.581-2.98-0.523-4.601c0.029-0.72,0.456-1.526,0.931-2.097c0.739-0.892,1.617-1.698,2.548-2.399
		c3.675-2.773,5.83-2.797,9.529-0.12c1.89,1.367,3.949,2.543,5.239,4.625c1.449,2.332,3.205,4.414,5.388,6.122
		c0.178,0.139,0.11,0.585,0.154,0.892c-0.331,0.197-0.638,0.499-0.998,0.581C658.572,919.121,656.73,921.381,655.521,924.523z
		 M665.246,982.306c-0.614,0.605-1.343,1.459-2.212,2.125c-0.677,0.518-1.483,0.398-2.068-0.134c-2.217-2.006-2.5-4.573-0.782-7.005
		c0.518-0.734,1.19-0.854,2.039-0.566c2.01,0.691,2.893,2.241,3.253,4.179C665.534,981.26,665.362,981.653,665.246,982.306z
		 M663.745,777.685c-1.367-0.777-2.615-1.78-3.834-2.792c-1.449-1.204-1.756-3.699-0.772-5.407c1.43-2.49,4.524-3.584,7.197-2.552
		c2.653,1.027,4.203,3.944,3.536,6.861c-0.513,1.934-1.818,3.344-3.843,3.958C665.323,777.968,664.335,778.021,663.745,777.685z
		 M672.136,877.752c-3.387-0.264-5.887-3.114-5.475-6.391c0.149-1.166,0.657-2.404,1.842-2.831c1.828-0.662,3.733-1.175,5.652-1.502
		c0.624-0.106,1.492,0.437,2.063,0.907c1.622,1.358,2.255,3.157,1.881,5.623C677.64,875.953,674.967,877.973,672.136,877.752z
		 M702.887,931.149c-1.027,0.178-2.063,0.297-3.085,0.461c-0.59,0.782-1.454,1.411-2.428,1.574c-0.341,0.057-0.777-0.01-1.07-0.187
		c-0.086-0.053-0.149-0.125-0.23-0.182c-0.321,0.178-0.653,0.307-0.96,0.542c-2.054,1.574-4.448,1.2-6.789,0.787
		c-2.999-0.36-5.484-1.67-7.576-3.632c-0.701,0.221-1.391,0.302-1.943,0.072c-1.991-0.835-3.071-2.317-3.138-4.505
		c-0.029-0.969,0.432-1.459,1.358-1.722c1.142-0.331,2.236-0.317,3.296-0.101c0.091-0.053,0.178-0.12,0.274-0.144
		c2.255-0.552,4.573-0.888,6.876-1.209c0.749-0.106,1.799-0.24,2.269,0.163c1.766,1.497,3.795,2.178,5.887,2.668
		c0.518-0.341,1.425-0.504,1.934-0.288c0.614,0.259,1.113,0.619,1.545,1.017c1.319,0.274,2.629,0.59,3.867,1.108
		c0.528,0.221,0.878,1.152,1.075,1.823C704.321,930.305,703.837,930.986,702.887,931.149z M704.384,883.999
		c-0.859-0.019-1.511-0.403-1.694-1.286c-0.226-1.123,0.787-2.198,1.934-2.174c0.864,0.024,1.492,0.446,1.67,1.31
		C706.529,882.972,705.526,884.028,704.384,883.999z M703.515,764.908c-2.874-0.01-5.542-2.073-5.796-4.817
		c-0.139-1.507,0.182-3.095,0.499-4.601c0.331-1.588,1.862-2.591,3.469-2.49c0.777,0.048,1.555,0.149,2.341,0.225
		c0.724,0.259,1.502,0.441,2.188,0.797c2.433,1.252,3.599,4.419,2.663,7.082C708.078,763.377,705.914,764.912,703.515,764.908z
		 M708.86,868.012c-0.878-0.537-0.854-1.18-0.082-1.857c1.233-1.08,2.457-1.286,2.692-0.398c0.086,0.321,0.01,0.681,0.005,1.027
		c-0.211,0.777-0.715,1.252-1.521,1.334C709.594,868.147,709.143,868.185,708.86,868.012z M709.959,920.939
		c-0.269-1.334,0.384-2.231,1.622-2.351c0.912-0.082,1.603,0.274,1.833,1.137c0.297,1.128-0.528,2.25-1.679,2.389
		C710.789,922.225,710.146,921.87,709.959,920.939z M712.665,965.652c-0.158,0.269-0.59,0.374-0.897,0.552
		c-0.657-0.494-0.84-1.147-0.413-1.881c0.154-0.259,0.686-0.59,0.835-0.509C712.924,964.217,713.107,964.918,712.665,965.652z
		 M719.565,928.151c-2.797,2.668-5.619,2.054-7.211-1.487c-0.614-1.367-0.163-2.917,1.195-4.035
		c1.243-1.017,2.658-1.603,4.217-1.008c1.655,0.633,2.932,2.879,2.816,4.563C720.246,926.85,720.069,927.671,719.565,928.151z
		 M728.278,917.533c-0.283,0.178-0.691,0.576-0.825,0.499c-0.701-0.403-0.868-1.084-0.451-1.79c0.154-0.259,0.696-0.585,0.84-0.504
		C728.532,916.132,728.638,916.789,728.278,917.533z M727.731,893.643c-1.636,1.271-3.546,1.924-5.427,1.065
		c-2.788-1.276-5.431-2.884-8.075-4.448c-0.667-0.393-0.7-1.291-0.278-2.082c0.158-0.297,0.504-0.576,0.825-0.686
		c2.72-0.926,5.35,0.115,8.641,0.48c0.892,0.25,2.418,0.576,3.858,1.137c0.657,0.254,1.204,0.907,1.67,1.483
		C729.358,891.105,728.518,893.029,727.731,893.643z M723.37,858.138c-1.18-0.058-2.356-0.221-3.56-0.336
		c-1.104-0.379-2.236-0.725-3.335-1.161c-0.336-0.134-0.667-0.465-0.844-0.787c-1.766-3.186-2.812-6.477-1.607-10.157
		c0.523-1.603,1.876-2.764,3.416-2.605c1.569,0.163,3.143,0.312,4.692,0.581c2.044,0.355,3.608,1.521,4.779,3.205
		c0.672,0.974,1.358,1.953,1.91,2.999C730.744,853.532,727.573,858.335,723.37,858.138z M728.36,774.595
		c-1.622,0.25-3.416-0.509-3.925-1.679c-0.667-1.535-0.379-2.946,0.672-4.189c0.864-1.022,2.759-1.137,4.237-0.35
		c0.897,0.475,1.627,1.804,1.454,2.845C730.658,773.107,729.684,774.389,728.36,774.595z M732.5,828.174
		c-1.003-0.729-1.032-1.996-0.864-3.176c0.173-1.224,0.912-1.962,2.236-2.217c0.94-0.182,1.579,0.259,1.751,1.2
		c0.134,0.739,0.149,1.497,0.216,2.25c-0.398,0.638-0.662,1.502-1.238,1.852C734.055,828.414,732.961,828.515,732.5,828.174z
		 M735.456,844.161c-0.106-0.936,0.235-1.583,1.156-1.78c1.291-0.278,2.207,0.398,2.332,1.627c0.086,0.907-0.264,1.593-1.118,1.823
		C736.708,846.138,735.585,845.308,735.456,844.161z M739.289,898.547c1.828-0.921,3.666-0.796,5.59-0.422
		c0.681,0.254,1.401,0.509,2.106,0.792c0.696,0.278,1.243,2.389,0.801,3.047c-2.332,3.498-7.058,3.632-9.649,0.269
		C737.14,900.936,737.725,899.338,739.289,898.547z M752.988,968.161c-1.838,1.559-4.131,2.034-6.468,2.255
		c-0.374,0.034-0.854,0-1.137-0.206c-2.188-1.593-4.716-2.754-6.29-5.134c-0.849-1.286-0.878-3.373,0.086-4.323
		c1.833-1.804,3.886-3.287,6.117-4.52c0.221-0.605,0.782-1.219,1.598-1.636c0.806-0.413,1.636-0.393,2.116,0.293
		c0.648,0.921,1.156,1.953,1.612,2.989c0.062,0.149,0.019,0.341-0.053,0.552c0.993,1.406,1.967,2.821,2.836,4.299
		c0.547,0.936,0.485,2.226,0.662,3.167C753.65,966.813,753.511,967.715,752.988,968.161z M754.749,882.21
		c-0.533,0.715-1.305,0.859-2.092,0.605c-1.089-0.365-1.631-1.703-1.022-2.797c0.451-0.811,1.209-0.921,2.068-0.585
		C754.792,879.859,755.396,881.341,754.749,882.21z M756.073,818.996c1.444-0.576,2.888-1.166,4.381-1.598
		c2.725-0.787,5.359,1.387,5.427,4.414c0.01,0.384-0.019,0.83-0.202,1.147c-1.065,1.89-3.91,3.152-5.729,2.797
		c-2.332-0.561-3.766-1.747-4.616-3.666C754.864,821.04,755.195,819.346,756.073,818.996z M773.178,989.719
		c-1.094,0.494-2.241,0.561-3.349,0.048c-0.331-0.154-0.672-0.413-0.859-0.715c-0.389-0.614-0.144-1.252,0.59-1.838
		c0.94-0.753,1.967-1.19,3.205-0.902c0.816,0.187,1.305,0.686,1.463,1.511C774.238,988.711,773.907,989.393,773.178,989.719z
		 M773.787,866.525c-2.01,0.393-4.146,0.297-5.772-0.806c-1.938-1.315-3.354-3.383-5.239-4.798
		c-1.545-1.156-3.776-1.238-5.115-2.864c-0.254-0.307-0.504-0.624-0.701-0.964c-0.465-0.797-0.494-1.66,0.163-2.164
		c1.027-0.787,2.039-1.674,3.124-2.375c-0.437-0.13-0.83-0.346-1.008-0.724c-0.48-1.032-0.921-2.082-1.276-3.162
		c-0.6-1.794,0.456-2.879,2.322-2.452c2.874,0.657,3.824,3.037,2.341,5.321c1.612-0.336,3.282-0.091,3.594-0.096
		c6.151,0.749,8.608,3.757,9.898,7.734c0.749,2.298,0.259,4.702-1.363,6.679C774.512,866.146,774.142,866.453,773.787,866.525z
		 M789.856,904.228c-3.771-0.278-6.122-3.637-5.22-7.418c0.154-0.633,0.494-1.065,0.969-1.391c-1.267-0.998-2.73-1.684-4.496-1.929
		c-0.768-0.106-1.516-0.427-2.236-0.739c-1.929-0.83-3.32-3.579-3.037-5.916c0.235-1.986,2.361-3.445,4.788-2.759
		c0.523,0.331,1.775,0.739,2.433,1.603c2.236,2.932,4.304,5.993,6.405,9.03c2.27,0.245,4.289,1.545,5.479,3.776
		c0.331,0.619,0.206,1.483,0.288,2.231C794.678,902.851,792.293,904.41,789.856,904.228z M787.692,887.641
		c0.494-0.657,1.199-0.768,1.871-0.307c0.25,0.168,0.336,0.571,0.494,0.868c-0.533,0.619-1.19,0.768-1.881,0.307
		C787.917,888.337,787.605,887.756,787.692,887.641z M806.059,958.94c-0.547,0.456-1.036,1.147-1.66,1.31
		c-1.483,0.393-3.383-0.485-3.91-1.574c-0.729-1.507-0.441-2.879,0.446-4.184c0.494-0.725,1.175-0.864,2.006-0.672
		c2.169,0.494,2.874,2.202,3.407,4.04C806.433,958.167,806.164,958.575,806.059,958.94z M817.368,881.432
		c-2.068,1.348-4.645,0.494-6.88,1.396c-1.655,0.667-3.08-0.043-4.227-1.276c-0.806-0.868-1.487-1.862-2.322-2.701
		c-1.185-1.19-2.74-1.713-4.347-1.444c-3.109,0.523-6.156,1.766-7.734,1.022c-2.361-0.801-3.109-1.051-3.853-1.315
		c-0.984-0.345-1.732-1.607-1.842-2.773c-0.154-1.651,0.211-3.191,1.041-4.553c0.36-0.595,1.195-1.175,1.871-1.252
		c2.812-0.321,5.547,0.206,8.085,1.449c2.476,1.214,5.091,2.308,7.264,3.954c2.807,2.116,5.523,2.61,8.881,1.612
		c2.26-0.672,4.52,1.262,4.966,3.882C818.37,880.05,817.895,881.087,817.368,881.432z M817.574,829.177
		c-1.564-0.101-3.124-0.302-4.673-0.533c-0.345-0.053-0.696-0.36-0.936-0.643c-0.149-0.178-0.096-0.528-0.134-0.84
		c1.727-0.931,3.555-1.569,5.532-1.703c0.902-0.062,1.598,0.341,1.881,1.166C819.594,827.637,818.562,829.239,817.574,829.177z
		 M824.301,522.497c-0.072,0.403-0.125,0.782-0.202,1.156c-0.446,2.063-1.382,3.042-2.764,3.061
		c-1.339,0.019-2.015-0.859-2.725-1.771c-1.036-1.329-1.262-2.783-0.451-4.241c0.787-1.415,2.202-2.073,3.718-2.461
		c0.792-0.202,2.461,1.156,2.481,1.991C824.373,520.996,824.325,521.758,824.301,522.497z M833.796,809.237
		c-4.193,0.696-6.813-0.437-8.8-3.694c-0.787-1.295,0.197-3.541,1.574-3.575c0.768-0.019,1.535,0.014,2.308,0.029
		c2.389,0.297,4.524,1.084,5.705,3.363c0.326,0.633,0.408,1.425,0.465,2.159C835.12,808.411,834.65,809.093,833.796,809.237z
		 M838.301,488.523c-0.369,1.06-1.559,1.938-2.62,1.89c-1.161-0.048-2.322-0.134-3.109-0.182c-1.123-0.283-1.876-0.461-2.625-0.667
		c-2.389-0.662-3.368-3.2-2.159-5.58c1.281-2.529,4.146-3.723,6.885-2.879C837.817,482.074,839.41,485.337,838.301,488.523z
		 M845.465,941.998c-0.662-0.192-1.511-0.403-1.838-0.902c-0.312-0.48-0.293-1.449-0.005-1.982c0.36-0.672,1.247-0.561,1.794,0.211
		c0.413,0.585,0.576,1.343,0.844,2.03C845.993,941.58,845.657,942.05,845.465,941.998z M850.176,802.443
		c-1.718-0.11-2.677-1.281-3.373-2.692c-0.149-0.302-0.259-0.84-0.101-1.041c0.561-0.705,1.315-0.744,2.102-0.288
		c1.353,0.787,2.418,1.761,2.351,3.498C850.829,802.102,850.488,802.462,850.176,802.443z M852.321,302.052
		c-0.307-0.029-0.696,0.077-0.892-0.115c-0.23-0.225-0.408-0.681-0.408-1.084c0.005-0.744,0.101-1.516,0.173-2.279
		c0.475,0.365,0.998,0.691,1.247,1.252C852.671,300.335,852.384,301.294,852.321,302.052z M855.2,447.149
		c-0.297,0.192-0.787,0.321-1.099,0.211c-0.782-0.278-1.022-0.96-0.677-1.775c0.547-1.305,1.401-2.289,2.773-2.577
		c0.25,0.043,0.518,0.048,0.782,0.067c0.163,0.158,0.326,0.369,0.485,0.528C857.604,445.35,856.495,446.329,855.2,447.149z
		 M859.417,383.518c-0.091,0.59-0.36,1.18-0.696,1.761c-0.835-1.991-1.655-4.03-2.27-6.281c-0.149-0.552-0.197-1.099-0.25-1.651
		c0.408,0.206,0.811,0.451,1.18,0.792C858.933,379.536,859.672,381.253,859.417,383.518z M872.545,366.096
		c0.211-0.811,1.833-1.516,2.869-1.425c1.814,0.158,3.2,1.228,3.32,2.553c0.034,0.384,0.082,0.773,0.053,1.152
		c-0.062,0.763-0.177,1.521-0.269,2.279c-0.197,0.854-0.672,1.55-1.247,2.092c0.273,0.029,0.547,0.058,0.825,0.072
		c0.686,0.038,1.329,0.014,1.953-0.048c-0.125,0.854-0.25,1.713-0.345,2.572c-0.23-0.034-0.504-0.072-0.72-0.101
		c-1.535-0.384-2.682-0.629-3.795-0.969c-0.269-0.082-0.547-0.321-0.705-0.566c-0.024-0.005-0.043,0.005-0.067,0
		c-0.077-0.014-0.149-0.067-0.221-0.086l0.72-1.247l-0.48-0.849c-0.336,0.595-0.681,1.19-0.984,1.799
		c-1.065-0.59-1.886-1.703-1.775-2.783C871.835,369.052,872.161,367.56,872.545,366.096z M867.939,481.94
		c0.873-0.792,1.775-1.555,2.716-2.26c6.3-4.726,7.725-4.05,13.487,0.331c0.974,0.739,0.758,1.895-0.408,2.845
		c-2.557,2.082-5.292,3.445-8.713,2.586c-0.763-0.192-1.555-0.278-3.656-0.648c0.154,0.038-1.032-0.134-2.135-0.537
		c-0.696-0.254-1.286-0.825-1.847-1.339C867.315,482.861,867.66,482.194,867.939,481.94z M864.945,359.322
		c0.441,0.614,0.921,1.2,1.353,1.818c0.533,0.763,0.456,2.898-0.13,3.215c-0.643,0.35-1.391,0.528-2.111,0.71
		c-0.36,0.091-0.763,0.024-1.358,0.029c-0.168-0.043-0.374-0.091-0.561-0.134C863.131,363.16,864.038,361.274,864.945,359.322z
		 M880.202,885.285c-0.864,0.796-1.828,1.487-2.759,2.207c-2.85,2.193-5.959,1.866-8.939,0.557c-1.766-0.777-3.325-2.078-4.88-3.272
		c-2.413-1.847-2.989-4.275-2.634-7.307c0.504-4.328,6.52-9.231,11.544-7.653c1.473,0.254,2.956,0.849,3.934,2.149
		c1.651,2.197,3.229,4.457,4.721,6.765C882.333,880.497,881.791,883.831,880.202,885.285z M887.606,857.178
		c-2.404,5.211-6.765,7.384-12.235,7.662c-0.672,0.034-1.603-0.437-2.025-0.979c-1.689-2.159-3.291-4.4-4.774-6.708
		c-0.336-0.528-0.35-1.569-0.058-2.13c0.725-1.382,1.627-2.696,2.625-3.901c1.641-1.982,3.843-2.634,6.348-2.145
		c1.152,0.226,2.461,0.317,3.373,0.945c2.245,1.55,4.793,2.764,6.405,5.105c0.216,0.312,0.307,0.71,0.456,1.065
		C887.687,856.459,887.75,856.866,887.606,857.178z M886.305,305.771c0.609-0.811,2.078-1.291,2.932-1.128
		c1.698,0.331,2.207,2.236,1.204,4.52c-0.691,0.403-1.78,1.473-2.663,1.473C885.926,310.646,884.996,307.522,886.305,305.771z
		 M889.674,365.06c-0.144-0.077-0.245-0.216-0.374-0.312c0.24-0.384,0.533-0.729,0.988-0.96c0.293-0.144,0.677-0.12,1.027-0.115
		C890.772,364.134,890.211,364.595,889.674,365.06z M912.68,368.001c0.844-0.417,1.607-0.302,2.058,0.513
		c0.25,0.451,0.422,0.945,0.633,1.42c-1.439,0.101-2.951,0.163-4.601,0.302C910.732,369.45,911.452,368.611,912.68,368.001z
		 M901.501,346.775c0.269-0.067,0.566-0.029,0.854-0.01c0.307,0.993,0.629,2.063,0.912,3.147c-0.417,0.254-0.873,0.101-1.353-0.456
		C900.834,348.195,900.623,347.005,901.501,346.775z M896.026,316.245c0.513,0.273,1.363,0.369,1.444,0.864
		c0.086,0.485-0.605,1.363-0.955,2.073c-0.341-0.59-0.681-1.176-1.041-1.799C895.652,317.013,895.839,316.629,896.026,316.245z
		 M897.264,1094.627c-0.763,0.269-2.207-0.269-2.932-1.041c-1.137-1.219-0.854-3.618,0.547-4.875
		c0.71,0.365,1.919,0.585,2.577,1.406C898.66,1091.629,898.56,1094.172,897.264,1094.627z M899.284,285.327l0.11-1.866l0.955,0.451
		c0,0.355,0.125,0.907-0.038,1.075C900.076,285.24,899.639,285.226,899.284,285.327z M903.593,381.388
		c-0.724-0.192-1.516-0.254-2.149-0.609c-0.475-0.269-0.744-0.902-1.099-1.377c0.331-0.178,0.681-0.533,0.988-0.499
		c1.483,0.163,2.97,0.355,4.419,0.696c0.84,0.197,1.243,0.849,1.017,1.406c-0.106,0.264-0.605,0.504-0.936,0.518
		C905.09,381.556,904.336,381.445,903.593,381.388z M907.302,452.288c-1.07-0.336-1.598-1.655-0.993-2.716
		c0.446-0.787,1.175-0.902,2.015-0.581c1.065,0.408,1.66,1.876,1.027,2.701C908.818,452.384,908.069,452.528,907.302,452.288z
		 M911.567,1081.452c-0.264,0.576-1.06,0.734-1.66,0.993c-0.048,0.019-0.408-0.619-0.619-0.955c0.393-0.585,0.657-1.511,1.214-1.665
		C911.385,1079.586,912.004,1080.507,911.567,1081.452z M912.575,457.988c-0.005,0.23,0.024,0.437,0.034,0.657
		c-0.077-0.034-0.139,0-0.216-0.048c-0.259-0.158-0.595-0.677-0.518-0.82c0.273-0.509,0.71-0.638,1.18-0.595
		C912.829,457.436,912.575,457.82,912.575,457.988z M913.563,441.137c-0.053-0.883-0.096-1.775-0.13-2.673
		c0.11-0.115,0.225-0.216,0.331-0.24c0.35-0.091,0.715-0.096,1.07-0.149C914.46,439.089,914.014,440.111,913.563,441.137z
		 M913.832,441.66c2.269-0.739,4.549-1.478,7.101-2.308c-0.485,1.972-0.964,3.939-1.425,5.825c-0.187-0.062-0.389-0.086-0.571-0.158
		C916.989,444.266,915.142,443.258,913.832,441.66z M921.561,577.195c-0.734,0.149-1.507,0.158-2.265,0.182
		c-0.873,0.029-1.727-0.369-1.794-1.185c-0.048-0.581,0.48-1.473,1.012-1.771c0.921-0.523,2.044-0.701,2.73-0.912
		c1.219,0.528,1.521,1.104,1.54,1.924C922.809,576.36,922.463,577.012,921.561,577.195z M922.694,512.426
		c-0.346,0.072-0.729-0.038-1.099-0.072c-1.651-0.341-2.692-1.118-2.226-1.593c0.912-0.916,2.044-0.542,3.099-0.225
		c0.326,0.096,0.653,0.307,0.883,0.557c0.182,0.202,0.374,0.667,0.278,0.787C923.413,512.148,923.034,512.35,922.694,512.426z
		 M942.562,424.762c-0.441,0.763-0.95,1.454-1.492,2.111c-1.238-0.513-2.394-1.223-3.498-2.054c1.099-0.739,2.207-1.459,3.325-2.13
		c0.595-0.36,1.564-0.365,1.857-0.01C943.052,423.025,942.941,424.114,942.562,424.762z M943.296,503.603
		c0.801-0.403,1.593-0.825,2.351-1.243c-0.566,0.859-1.478,1.454-2.485,1.468c-0.096,0-0.173-0.038-0.269-0.043
		C943.028,503.723,943.162,503.67,943.296,503.603z M933.053,533.768c0.182-0.264,0.59-0.374,0.892-0.557
		c0.619,0.523,0.777,1.19,0.331,1.924c-0.163,0.264-0.71,0.609-0.844,0.528C932.688,535.203,932.549,534.488,933.053,533.768z
		 M924.33,1078.261l0.461-0.7l0.389,0.854L924.33,1078.261z M925.453,391.094c-0.451-1.243,0.029-3.287,1.152-4.078
		c0.566-0.398,1.377-0.451,2.078-0.657c0.441,0.038,0.806,0.158,1.166,0.278c-0.437,1.223-0.705,2.385-0.177,3.267
		c0.542,0.71,1.238,1.128,2.01,1.391c-0.451,1.003-1.3,1.636-2.452,1.77C927.664,393.253,925.889,392.308,925.453,391.094z
		 M945.446,1072.048c-2.25,3.143-5.23,5.316-9.289,5.628c-3.531,0.293-5.806-0.552-6.477-2.687
		c-1.041-3.306-0.398-5.254,2.509-7.279c0.59-0.408,1.343-0.561,2.025-0.83l-0.034,0.345c0.504-1.468,0.609-3.526,1.574-4.246
		c1.722-1.228,3.973-1.651,6.583-0.475C945.235,1063.8,947.317,1069.524,945.446,1072.048z M947.715,311.26
		c-0.211,0.715-1.089,1.689-1.751,1.948c-2.476,0.95-4.927,1.334-6.175-1.147c-0.461-0.916-0.355-2.399-0.178-3.646
		c0.043-0.302,1.521-1.036,2.164-0.945c1.862,0.259,3.642,0.835,5.182,1.223C947.336,309.84,947.912,310.603,947.715,311.26z
		 M955.915,346.204l0.456,0.456l-0.758,0.422L955.915,346.204z M955.968,430.092c0.369,0.12,0.753,0.225,1.113,0.369
		c1.756,0.701,2.265,2.308,1.137,3.752c-0.245,0.317-0.518,0.614-0.811,0.883c-0.235-0.288-0.475-0.576-0.715-0.859
		c-0.993-1.07-1.574-2.433-1.852-3.987C955.215,430.193,955.608,430.164,955.968,430.092z M962.618,466.149
		c-2.696,1.334-5.465,2.5-8.531,3.872c-0.336-0.182-0.662-0.389-0.988-0.595c0.561-1.286,1.137-2.524,1.271-3.594
		c0.581-4.275,2.073-8.656,4.342-13.103c0.657,0.321,1.348,0.729,2.111,1.286c1.89,1.367,3.949,2.543,5.239,4.625
		c0.638,1.027,1.363,1.982,2.125,2.903C966.927,463.343,965.031,464.964,962.618,466.149z M998.785,368.112
		c1.535-2.265,3.047-4.491,4.563-6.732c0.624,0.777,1.382,1.483,1.699,2.433c1.08,3.243,0.245,5.499-2.471,8.128
		c-2.831,2.744-5.815,4.088-9.006,4.002C995.312,373.327,997.058,370.703,998.785,368.112z M1003.18,466.514
		c-0.701,0.149-1.387,0.35-2.111,0.393c-1.171,0.072-2.351-0.115-3.167-1.142c-0.437-0.552,0.648-2.15,1.785-2.466
		c1.171-0.326,2.361-0.59,3.541-0.888c0.086,0.24,0.216,0.427,0.254,0.71C1003.627,464.221,1003.449,465.363,1003.18,466.514z
		 M983.902,376.983c0.571-1.718,1.674-3.402,2.653-5.311c3.848-0.624,3.944,3.589,6.377,4.563c-1.823,1.286-3.613,2.706-5.494,3.728
		c-1.06,0.576-2.711,0.844-3.349,0.336C983.494,379.833,983.528,378.115,983.902,376.983z M990.979,442.241
		c-0.297,0.84-0.772,1.497-1.3,2.082c-1.204,0.144-2.538-0.974-3.152-2.217C988.206,441.353,989.842,441.185,990.979,442.241z
		 M972.252,525.654c0.034-0.053,0.091-0.106,0.13-0.158c0.94,0.811,1.468,1.938,1.718,3.277c0.024,0.125-0.01,0.269-0.034,0.413
		c-0.302-0.211-0.595-0.432-0.926-0.609C972.07,528.01,971.23,527.276,972.252,525.654z M990.494,556.391
		c-0.245,1.415-0.321,1.799-0.379,2.188c-0.691,4.549-3.459,8.099-10.273,5.796c-1.986-0.672-3.076-2.269-4.28-3.805
		c-2.193-2.797-1.962-5.801-0.84-8.872c0.259-0.71,0.667-1.492,1.238-1.943c1.521-1.199,3.119-2.327,4.784-3.32
		c1.468-0.873,4.265-0.393,5.513,0.705c1.785,1.574,3.277,3.426,3.958,5.686C990.643,554.255,990.461,555.872,990.494,556.391z
		 M1011.519,479.008c-1.027,0.178-2.058,0.297-3.085,0.461c-0.59,0.782-1.449,1.411-2.428,1.574c-0.341,0.058-0.777-0.01-1.07-0.187
		c-0.086-0.053-0.149-0.125-0.23-0.182c-0.321,0.178-0.653,0.307-0.96,0.542c-2.054,1.574-4.448,1.199-6.789,0.787
		c-0.115-0.014-0.221-0.053-0.336-0.067c-1.295-1.003-3.061-1.555-4.563-2.394c-2.289-1.247,0.734-5.652-1.185-7.898
		c1.732-0.35,3.479-0.633,5.23-0.878c0.749-0.106,1.799-0.235,2.269,0.163c0.878,0.744,1.823,1.286,2.807,1.703
		c-0.772,2.509,0.542,3.186,4.213,2.298c0.657-0.158,1.348-0.494,2.034-0.811c0.091,0.077,0.225,0.125,0.312,0.206
		c0.077,0.014,0.154,0.038,0.23,0.053c-0.062,0.566-0.144,1.132-0.154,1.679c-0.01,0.345,0.067,0.715,0.288,0.912
		c0.197,0.173,0.648,0.12,0.984,0.163c0.034-0.552,0.245-1.204,0.062-1.626c-0.182-0.417-0.528-0.734-0.868-1.056
		c1.132,0.25,2.255,0.537,3.325,0.979c0.528,0.221,0.878,1.152,1.075,1.823C1012.954,478.164,1012.469,478.845,1011.519,479.008z
		 M1018.592,468.798c-0.269-1.334,0.384-2.231,1.627-2.351c0.912-0.082,1.603,0.273,1.833,1.137c0.297,1.128-0.528,2.25-1.684,2.389
		C1019.422,470.084,1018.779,469.729,1018.592,468.798z M1021.298,513.511c-0.158,0.269-0.59,0.374-0.897,0.552
		c-0.657-0.494-0.844-1.147-0.413-1.881c0.154-0.259,0.686-0.59,0.835-0.509C1021.557,512.076,1021.734,512.781,1021.298,513.511z
		 M1029.037,474.455c-1.751,1.075-3.479,2.102-4.976,3.013c-0.005,0.034-0.01,0.062-0.019,0.091
		c-1.214-0.297-2.284-1.315-3.056-3.037c-0.614-1.367-0.163-2.917,1.195-4.035c1.243-1.017,2.658-1.603,4.217-1.008
		c1.655,0.633,2.932,2.879,2.817,4.563C1029.142,474.177,1029.095,474.32,1029.037,474.455z M1061.62,516.025
		c-1.838,1.559-4.131,2.034-6.468,2.255c-0.374,0.034-0.854,0-1.137-0.206c-2.188-1.593-4.716-2.754-6.29-5.134
		c-0.849-1.286-0.878-3.373,0.086-4.323c1.833-1.804,3.886-3.287,6.117-4.52c0.221-0.605,0.782-1.219,1.598-1.636
		c0.806-0.413,1.636-0.393,2.121,0.293c0.648,0.921,1.156,1.953,1.607,2.989c0.062,0.149,0.019,0.341-0.053,0.552
		c0.993,1.406,1.967,2.821,2.836,4.299c0.547,0.936,0.485,2.231,0.662,3.167C1062.282,514.672,1062.143,515.579,1061.62,516.025z
		 M1132.17,827.359c-0.509-0.422-0.393-1.319-0.547-2.01c0.854,0.029,1.996-0.192,2.471,0.168c0.499,0.369,0.355,1.305,0.489,1.996
		C1133.754,827.483,1132.588,827.704,1132.17,827.359z M1141.459,819.538c-0.542-0.955-1.147-1.9-1.588-2.864
		c-0.101-0.221,0.365-0.547,0.566-0.825c0.35,0.082,0.959,0.12,1.012,0.25c0.413,1.017,0.749,2.054,1.008,3.095
		C1142.481,819.284,1141.81,819.418,1141.459,819.538z" fill="#CE221B"></path>
	<path style="" d="M838.815,277.405c-0.931,3.133,0.019,6.233,2.068,6.751c2.481,0.595,5.139-1.372,6.688-5
		c1.099-2.577-0.115-4.952-3.124-5.71C841.866,272.77,839.75,274.253,838.815,277.405z" fill="#CE221B"></path>
	<path style="" d="M1036.1,402.043c-0.345,0.561-0.259,1.746,0.163,2.068c1.598,1.19,3.378,2.174,5.22,3.459
		c1.319-4.117-0.12-5.95-3.2-6.434C1037.683,401.04,1036.397,401.554,1036.1,402.043z" fill="#CE221B"></path>
	<path style="" d="M811.082,258.448l-0.341,0.225l-0.014,0.096l0.178,0.264
		C810.967,258.827,811.025,258.65,811.082,258.448z" fill="#CE221B"></path>
	<path style="" d="M817.257,252.945c0.149-0.806-0.053-1.991-0.499-2.481c-0.403-0.441-1.507-0.537-2.01-0.154
		c-2.5,1.9-2.692,5.263-3.666,8.137c1.617-1.036,3.272-1.996,4.841-3.181C816.528,254.816,817.104,253.784,817.257,252.945z" fill="#CE221B"></path>
	<path style="" d="M683.431,1162.932c-0.062-0.154-0.091-0.225-0.163-0.384l-0.216-0.115l-0.072,0.446
		L683.431,1162.932z" fill="#CE221B"></path>
	<path style="" d="M690.364,1165.475c-1.89-2.711-4.515-2.15-6.928-2.543
		C685.552,1168.411,685.844,1168.474,690.364,1165.475z" fill="#CE221B"></path>
	<path style="" d="M1066.908,441.507c-0.187,0.317-0.225,0.969-0.019,1.075c0.964,0.509,2.039,0.888,3.104,1.329
		c0.302-0.571,0.7-1.118,0.614-1.19c-0.83-0.701-1.713-1.353-2.658-1.914C1067.829,440.739,1067.085,441.2,1066.908,441.507z" fill="#CE221B"></path>
	<path style="" d="M307.161,493.119c0.226,0.245,0.806,0.264,1.233,0.384l-0.254-1.771l-1.113,0.293
		C307.055,492.395,306.93,492.865,307.161,493.119z" fill="#CE221B"></path>
	<path style="" d="M274.889,396.463c5.158-6.521,10.369-13.007,15.651-19.427c2.792-3.354,4.98-6.616,6.909-9.697
		c2.049-2.98,3.675-5.897,5.019-8.824c5.825-12.604,15.075-23.237,27.843-29.719c7.461-3.949,14.217-9.193,21.174-14.634
		c7.087-5.302,13.866-11.357,20.44-17.921c4.381-4.64,9.323-8.397,14.346-12.038c5.028-3.632,10.249-7.02,15.771-10.153
		c6.972-4.275,14.202-7.763,20.238-12.331c6.113-4.457,11.371-9.486,15.469-15.33c13.171-4.385,19.701-6.415,25.511-8.9
		c5.921-2.25,11.179-4.764,21.673-9.908c25.986-11.947,52.903-21.999,80.578-29.359c32.247-8.497,65.469-12.456,98.417-15.339
		c24.585-2.217,49.986,1.535,73.784-5.369c4.52-1.166,13.809,1.094,19.49,3.205c6.348,2.183,12.796,5.105,19.35,6.847
		c3.272,0.916,6.559,1.646,9.86,2.087c3.272,0.6,6.554,0.926,9.85,0.873c25.621-0.748,49.031,6.583,70.963,18.957
		c4.256,2.452,8.968,4.424,13.842,6.218c4.817,1.934,9.706,3.901,14.471,5.815c24.144,10.311,47.702,22.033,70.094,35.678
		c5.479,3.028,10.704,6.54,16.083,9.754c5.345,3.272,10.911,6.175,16.227,9.303c12.201,6.823,23.683,0.115,18.957-11.674
		c-1.713-4.217-6.137-9.49-10.584-12.532c-33.845-22.579-70.243-41.939-108.656-54.688l-8.051-2.788l-8.104-2.543
		c-5.359-1.775-10.709-3.546-16.049-5.316l-16.184-4.774l-8.085-2.418l-8.19-2.063c-8.68-2.092-17.278-4.582-26.072-6.175
		c-8.756-1.761-17.503-3.642-26.394-4.582c-64.941-8.512-131.163-5.067-194.536,9.764c-29.369,6.876-58.339,15.68-86.196,27.214
		c-27.867,11.458-54.558,25.828-78.759,43.451c-4.635,3.339-9.961,6.357-15.042,9.092c-4.496,2.26-8.632,5.057-12.71,7.941
		c-4.093,2.855-8.133,5.791-12.125,8.78c-3.987,2.994-7.95,6.026-11.846,9.126l-11.007,10.167
		c-5.086,4.76-10.354,9.87-15.762,13.847c-35.798,28.462-64.764,65.258-89.497,103.748l-7.379,11.275l-6.592,11.755
		c-4.294,7.888-8.977,15.57-12.935,23.63l-11.486,24.364c-0.945,2.034-1.943,4.05-2.84,6.103l-2.447,6.271l-4.894,12.542
		l-4.889,12.537c-1.655,4.169-2.773,8.531-4.184,12.787c-2.644,8.574-5.451,17.095-7.946,25.703
		c-4.093,17.465-8.824,34.781-11.29,52.562c-1.075,6.972-2.567,13.881-3.291,20.895l-2.078,21.054l-1.032,10.522
		c-0.307,3.507-0.264,7.044-0.413,10.56l-0.619,21.131c-0.389,6.516,0.173,13.031,0.509,19.23
		c0.393,6.204,0.878,12.091,1.483,17.359c0.384,3.267,1.051,7.072,1.343,6.271c0.461-1.262,0.772-6.161,1.176-9.682
		c0.072-0.643,0.082-2.102,0.082-3.229c-0.005-5.211-0.005-10.45-0.01-15.68l-0.038-7.826c0.149-2.601,0.297-5.196,0.446-7.773
		c0.595-10.321,0.739-20.449,0.667-30.112c0.422-11.299,1.612-22.239,3.234-33.562c1.77-8.944,4.126-17.374,6.108-26.202
		c0.72-3.243,1.473-6.664,2.221-10.033c0.931-3.33,1.785-6.626,2.428-9.687c0.931-4.448,0.605-7.902,0.825-12.288
		c4.294-13.094,9.668-24.571,13.458-38.902c1.91-8.209,6.444-17.426,10.229-25.142c7.163-15.498,15.579-30.429,22.987-46.133
		c3.829-7.365,8.104-14.495,12.12-21.759l6.127-10.848c2.188-3.527,4.558-6.943,6.837-10.416L274.889,396.463z" fill="#CE221B"></path>
	<path style="" d="M1044.866,1085.281c-4.856,4.126-9.318,8.449-13.914,12.518
		c-24.172,20.699-50.005,39.651-77.622,55.825c-8.454,4.774-16.764,9.908-25.583,14.034c-4.361,2.159-8.742,4.28-13.147,6.324
		c-4.438,1.977-9.025,3.594-13.578,5.259c-21.893,8.08-41.935,16.275-54.817,34.867c-6.602,0.451-12.753-0.096-18.328-0.072
		c-5.609-0.086-10.656,0.413-15.488,1.559c-6.281,1.651-12.384,3.157-18.525,3.968c-6.146,0.758-12.403,0.398-18.775-0.945
		c-5.182-1.104-11.295,0.883-16.995,1.387c-5.71,0.629-11.458,1.128-17.206,1.612c-5.762,0.235-11.534,0.47-17.287,0.71
		l-8.612,0.504c-2.869,0.101-5.734,0.197-8.588,0.297c-5.714,0.274-11.4,0.782-17.067,1.516c-5.575,0.484-11.218,0.129-16.851-0.465
		c-2.816-0.307-5.638-0.638-8.444-1.027c-2.802-0.489-5.604-0.964-8.401-1.363c-5.594-0.811-11.184-1.247-16.807-0.955
		c-5.599,0.077-11.251,0.984-17.057,3.186c-1.828,0.691-4.606,0.101-7.557-0.921c-2.941-1.104-6.031-2.764-8.574-3.944
		c-6.607-3.219-13.367-5.105-20.171-7.159c-6.808-1.986-13.833-3.368-21.073-4.726c-7.221-1.535-14.624-3.114-22.316-4.75
		c-7.643-1.871-15.488-4.203-23.64-6.88c20.675,14.202,21.039,14.706,13.079,23.477c26.883,10.138,54.563,18.535,82.881,24.772
		c28.308,6.338,57.332,9.798,86.494,10.882c24.398,1.056,48.897,0.034,73.342-2.106l18.3-2.068
		c6.122-0.609,12.134-1.89,18.213-2.821c12.182-1.794,24.144-4.702,36.143-7.475c23.803-6.213,47.371-13.766,69.749-24.033
		c22.584-9.778,43.887-22.287,63.962-36.239c4.16-3.085,7.744-6.924,11.218-11.04c3.459-4.141,6.89-8.43,10.436-12.988
		c5.35-0.288,13.607,1.406,19.494-1.626c4.453-2.193,8.536-4.952,12.475-7.888c3.934-2.936,7.691-6.094,11.194-9.476
		c6.972-6.818,12.571-15.027,17.043-23.664c5.714-11.736,7.595-24.926-0.374-38.672
		C1055.033,1077.273,1049.64,1081.054,1044.866,1085.281z" fill="#CE221B"></path>
	<path style="" d="M531.353,1219.294c0.062-0.072,0.101-0.115,0.163-0.182l-0.374-0.149L531.353,1219.294z" fill="#CE221B"></path>
	<path style="" d="M1248.407,675.713c1.315-26.053-1.626-52.087-7.019-77.421
		c-5.115-25.434-13.924-49.933-23.76-73.674c-0.945-2.111-3.148-3.599-4.121-5.69c-3.483-7.451-7.188-14.864-10.177-22.412
		c-11.328-31.355-25.765-61.957-46.579-88.298c-3.541-4.592-7.024-9.303-10.33-14.332c-3.368-4.985-6.573-10.287-10.594-15.306
		c-3.426-0.82-4.582-1.425-5.379-1.228c-8.243,2.049-12.6,4.62-13.516,8.454c-0.456,1.919-0.048,4.16,1.199,6.837
		c1.276,2.653,3.344,5.782,5.993,9.644c4.481,6.429,10.618,12.441,13.108,19.466c2.821,8.349,6.717,15.814,10.944,23.102
		c3.987,7.418,8.622,14.471,13.363,21.61c4.049,6.741,8.003,13.833,10.92,21.15c24.811,66.28,40.299,134.819,44.732,205.288
		c0.273,5.359,0.437,10.748,0.499,16.141c0.11,5.393-0.408,10.786-0.705,16.174c-0.509,10.796-2.241,21.495-3.901,32.108
		c-0.686,5.124-1.766,10.124-2.322,15.119c-0.648,4.985-0.964,9.942-1.209,14.845c-0.849,9.74-0.259,19.461,0.811,29.038
		c9.553,5.004,16.212,1.694,19.542-4.75c9.15-16.63,16.304-36.206,9.548-54.774c-6.223-17.705-3.666-31.619,3.824-44.66
		c-2.351-11.942-16.241-11.218-13.377-25.319C1235.193,683.768,1241.138,680.251,1248.407,675.713z M1226.384,613.588
		c-1.866-1.905-3.699-3.8-5.724-5.662c1.315-2.327,2.169-3.843,3.028-5.355c1.804,2.111,3.92,4.035,5.259,6.516
		C1229.287,609.783,1227.31,612.057,1226.384,613.588z" fill="#CE221B"></path>
	<path style="" d="M1047.13,314.119l5.633,4.606c1.828,1.583,3.551,3.272,5.307,4.928
		c3.488,3.33,6.909,6.708,10.263,10.143c6.703,6.88,12.547,14.552,18.458,22.152c5.35,7.547,13.535,12.182,21.812,12.297
		c3.359,0.053,7.466-1.809,8.531-4.553c1.07-2.744-0.034-9.039-2.423-11.53c-2.831-2.96-5.575-6.055-8.334-9.14
		c-2.788-3.056-5.801-5.916-8.8-8.713c-6.079-5.508-12.389-10.546-20.19-13.089l0.475,0.077l-0.005-0.005h0.005l-0.576-0.557l0,0
		l-9.764-9.442l-0.552-0.533l0.091,0.422c-9.615-5.403-9.49-14.615-15.43-21.596c-2.792-3.354-9.164-4.169-10.983-1.631
		c-2.653,3.661-3.339,8.061-2.351,12.744C1039.295,305.378,1042.15,310.113,1047.13,314.119z" fill="#CE221B"></path>
	<path style="" d="M1151.108,967.077c-4.275-0.264-7.331,1.195-9.692,3.459c-2.428,2.221-4.304,5.177-5.94,8.051
		c-12.062,21.716-25.66,42.669-40.414,62.576c3.219,8.929,7.288,16.966,17.402,16.932c4.265-0.024,7.432-1.886,9.702-4.611
		c2.15-2.831,3.383-6.54,3.973-10.157c1.209-7.874,3.685-14.298,7.322-19.878c3.68-5.551,9.03-9.87,16.745-13.06
		c8.046-3.459,12.441-11.098,13.482-20.123C1164.859,979.432,1158.176,967.432,1151.108,967.077z" fill="#CE221B"></path>
	<path style="" d="M461.998,1170.35c-4.51-2.265-9.087-3.91-13.746-5.028c-4.645-1.142-9.212-2.039-13.957-2.313
		c5.815,5.614,8.713,8.56,15.56,12.125c3.402,1.828,7.749,3.896,13.895,6.621c6.185,2.634,14.37,5.503,25.137,9.467
		C480.043,1181.26,470.912,1175.114,461.998,1170.35z" fill="#CE221B"></path>
	<path style="" d="M397.632,1138.323c2.154,3.613,3.109,6.328,5.052,7.629c2.198,1.478,5.302,1.631,8.008,2.322
		c-1.041-2.159-1.444-4.798-3.306-6.257C405.458,1140.463,402.018,1140.156,397.632,1138.323z" fill="#CE221B"></path>
	<path style="" d="M335.906,1088.188c-2.946-1.862-5.647-2.337-8.421-3.455c1.631,2.365,3.147,5.585,4.894,6.991
		c2.869,2.346,5.921,3.479,11.544,5.983C339.533,1092.703,337.551,1089.234,335.906,1088.188z" fill="#CE221B"></path>
	<path style="" d="M1067.517,311.293l9.764,9.442C1076.792,314.815,1073.006,312.085,1067.517,311.293z" fill="#CE221B"></path>
	<polygon style="" points="531.348,1219.294 531.142,1218.963 529.559,1219.074 	" fill="#CE221B"></polygon>
</g>
</svg></g> <!----></g><g id="shape_SEyHVgoLuX" transform="translate(203.21026097659822,202.3212914584126) rotate(0,37.316,12.184150832646342) scale(1.4069847766846064,1.4069847766846064)" filter="" style="cursor: move; opacity: 1;"><g><svg xmlns="http://www.w3.org/2000/svg" version="1.1" xmlns:xlink="http://www.w3.org/1999/xlink" overflow="hidden" style="top:0; left: 0" width="74.632" height="24.368301665292684" viewBox="0 0 77.632 25.34784" preserveAspectRatio="none" data-parent="shape_SEyHVgoLuX"><rect fill="rgba(0,0,0,0)" width="77.632" height="25.34784"></rect> <rect opacity="0"></rect><g transform="translate(0 0)" data-width="22.632"><path fill="#000000" d="M12.40-9.96L21.34-9.96L21.34-8.31L12.40-8.31L12.40-0.72L12.40-0.72Q12.40 0.20 12.13 0.67L12.13 0.67L12.13 0.67Q11.86 1.13 11.23 1.31L11.23 1.31L11.23 1.31Q10.61 1.52 9.48 1.57L9.48 1.57L9.48 1.57Q8.35 1.63 6.63 1.63L6.63 1.63L6.63 1.63Q6.54 1.24 6.33 0.76L6.33 0.76L6.33 0.76Q6.11 0.27 5.91-0.11L5.91-0.11L5.91-0.11Q7.33-0.09 8.45-0.08L8.45-0.08L8.45-0.08Q9.57-0.07 10.00-0.09L10.00-0.09L10.00-0.09Q10.37-0.09 10.51-0.23L10.51-0.23L10.51-0.23Q10.66-0.36 10.66-0.72L10.66-0.72L10.66-8.31L1.31-8.31L1.31-9.96L10.66-9.96L10.66-15.66L2.87-15.66L2.87-17.31L19.76-17.31L19.76-15.66L12.40-15.66L12.40-9.96Z" transform="translate(0 19.91616)"></path></g></svg></g> <!----></g>  <!----></svg>