<svg data-noselect="" viewBox="0 0 400 300" width="400" height="300" preserveAspectRatio="none" version="1.1" xmlns="http://www.w3.org/2000/svg" style="background: rgba(255, 255, 255, 0);"><defs></defs> <g id="shape_8G2ZFiBVCD" transform="translate(111.71552703888504,22.328757310904823) rotate(0,116,152.64462103734098) scale(0.7442919103634941,0.7442919103634941)" filter="" style="cursor: move; opacity: 1;"><g><rect fill="rgba(0,0,0,0)" width="252" height="325.28924207468197" x="-10" y="-10"></rect><svg xmlns="http://www.w3.org/2000/svg" xmlns:xlink="http://www.w3.org/1999/xlink" shape-rendering="auto" text-rendering="auto" contentscripttype="text/ecmascript" color-rendering="auto" color-interpolation="auto" xml:space="preserve" preserveAspectRatio="none" image-rendering="auto" zoomAndPan="magnify" version="1.1" contentstyletype="text/css" x="0px" enable-background="new 0 0 91.764 119.17" y="0px" viewBox="2.9989278316497803 3 83.25321197509766 110.17037963867188" width="232" height="305.28924207468197" data-parent="shape_8G2ZFiBVCD">
 <g fill="#71A92E" id="layer2">
  <path clip-rule="evenodd" d="M67.262,3c36.382,35.103,18.005,108.556-33.989,110.152   c-15.002,0.461-29.266-7.782-30.2-21.09c-2.09-29.751,40.691-33.235,46.878-51.821c8.72,9.446,9.434,24.865,0.745,33.554   c-7.141,7.142-14.878,9.613-25.881,10.252c-4.331-9.542,18.917-26.231,16.328-26.231c0,1.426-26.496,10.574-23.316,30.42   c1.489,9.73,8.945,13.846,17.291,13.516C75.946,100.137,91.837,34.558,67.262,3z" fill-rule="evenodd"></path>
 </g>
 <!--Copyright (c) Logomaker.com.cn  @2017-01-11-->
</svg></g> <!----></g><g id="shape_HBDYJS955M" transform="translate(245.85983407039578,231.66128866638147) rotate(0,28.5,28.5) scale(0.7442919103634941,0.7442919103634941)" filter="" style="cursor: move; opacity: 1;"><g><rect fill="rgba(0,0,0,0)" width="77" height="77" x="-10" y="-10"></rect><svg version="1.1" id="图层_1" xmlns="http://www.w3.org/2000/svg" xmlns:xlink="http://www.w3.org/1999/xlink" x="0px" y="0px" width="57" height="57" viewBox="0 0 1417.32 1417.32" style="enable-background:new 0 0 1417.32 1417.32;" xml:space="preserve" preserveAspectRatio="none" data-parent="shape_HBDYJS955M">
<g>
	<g>
		<path style="" d="M463.459,1143.259c-0.108,0.855,0.237,1.507,1.066,0.964c2.531-1.661,5.453-2.939,6.544-6.166
			c1.246-3.686,2.515-7.365,3.806-11.036c-4.243,0.03-8.476,0.219-12.702,0.556C463.122,1132.75,464.131,1137.917,463.459,1143.259z
			" fill="none"></path>
		<path style="" d="M1001.843,1137.951c-0.047-0.562,0.158-1.161-0.605-1.58c-4.881-2.687-9.328-6.014-13.817-9.28
			c-3.952,0.195-7.907,0.51-11.856,0.77c0.023,1.117,0.025,2.23,0.002,3.342c-0.283,13.717-1.17,27.372-4.135,40.816
			c7.303,0.506,14.616,1.677,22.035,1.024c3.805-0.335,7.488-1.808,11.175-2.89c-0.198-1.918-0.393-3.836-0.587-5.754
			C1003.164,1155.599,1002.58,1146.767,1001.843,1137.951z" fill="none"></path>
		<path style="" d="M286.293,908.513c-0.456-1.069-0.863-2.143-1.27-3.218c-1.086,1.218-1.802,3.523-1.095,4.534
			c0.732,1.046,1.661,1.846,2.672,2.54C286.891,911.147,286.766,909.621,286.293,908.513z" fill="none"></path>
		<path style="" d="M278.511,882.846c-1.637-4.288-3.362-8.542-5.05-12.811c-0.776,2.76-0.045,5.318,0.136,7.904
			c0.518,7.431,1.788,14.794,2.079,22.25c0.025,0.653,0.102,1.418,0.759,1.743c0.763,0.377,1.23-0.317,1.656-0.778
			c1.123-1.214,2.173-2.495,3.277-3.727c0.337-0.376,0.591-0.755,0.778-1.141c-0.724-2.762-1.316-5.54-1.804-8.328
			C279.743,886.25,279.156,884.536,278.511,882.846z" fill="none"></path>
		<path style="" d="M798.445,1121.37c-1.582-0.18-3.164-0.315-4.746-0.512c1.113,3.899,1.915,7.881,2.167,12.012
			C796.726,1129.037,797.585,1125.204,798.445,1121.37z" fill="none"></path>
		<path style="" d="M1016.294,1140.256c0.964-4.289,1.927-8.577,2.89-12.866c-1,0.259-2.003,0.505-3.013,0.715
			c-0.322,0.067-0.654,0.205-0.985,0.354c0.07,1.272,0.133,2.545,0.203,3.818
			C1015.534,1134.922,1015.745,1137.564,1016.294,1140.256z" fill="none"></path>
		<path style="" d="M1000.991,1131.084c0.674-0.457,0.298-1.495,0.251-2.271c-0.03-0.505-0.06-1.011-0.09-1.517
			c-2.473-0.253-4.952-0.359-7.435-0.365c1.663,1.088,3.325,2.179,4.988,3.268
			C999.394,1130.651,1000.089,1131.694,1000.991,1131.084z" fill="none"></path>
		<path style="" d="M435.683,1162.803c0.42,0.094,0.837,0.193,1.253,0.3c6.129-4.174,12.03-8.194,17.91-12.188
			c0.932-0.633,1.223-1.531,1.187-2.585c-0.221-6.577,0.706-13.097,1.006-19.649c0.009-0.203,0.047-0.406,0.059-0.61
			c-1.772,0.199-3.543,0.415-5.311,0.678c-4.477,10.176-9.224,20.225-14.263,30.147
			C436.916,1160.092,436.112,1161.285,435.683,1162.803z" fill="none"></path>
		<path style="" d="M403.119,1139.019c-1.354,1.867-1.329,4.004-2.022,5.882c-0.172,0.466-0.259,0.961-0.395,1.441
			c-0.695,2.453-2.148,3.756-3.642,3.271c-1.665-0.541-1.798-2.437-1.61-4.938c0.421-5.604,3.135-10.4,4.901-15.517
			c-2.253,0.205-4.515,0.602-6.809,1.262c-5.59,1.609-10.942,1.564-16.781-0.625c-8.342-3.129-17.402-0.767-26.141-1.172
			c-11.355-0.525-22.344-1.755-30.685-10.876c-1.651-1.805-3.321-3.319-3.949-5.853c-2.739-11.057-11.222-18.227-19.151-24.999
			c-6.764-5.777-11.347-12.124-11.521-20.488c-0.374-17.931-4.75-35.347-1.403-54.012c2.058-11.478,1.43-25.855-4.209-38.096
			c-1.98-4.298-2.404-9.182-0.923-13.353c1.79-5.04,2.565-10.233,3.014-15.474c-3.76-1.18-8.773-1.464-11.133-0.347
			c-1.023,0.484-1.333,1.362-1.654,2.34c-1.039,3.17-2.22,6.229-4.984,8.441c-2.346,1.878-4.983,2.04-7.771,1.932
			c-3.074-0.119-5.773,0.2-8.575,2.264c-1.583,1.166-3.198,2.276-4.8,3.408c-2.979,8.678-3.953,17.637-1.956,26.953
			c1.205,5.619-1.22,11.152,0.241,16.999c1.045,4.183-0.758,8.839,4.647,11.528c2.155,1.072,2.352,4.758,1.307,6.701
			c-6.002,11.161,0.637,19.091,6.33,27.44c2.427,3.56,3.51,7.644,3.399,12.046c-0.553,21.93-0.623,43.88-1.671,65.785
			c-1.118,23.346,19.035,39.388,41.028,31.516c6.081-2.176,11.172-2.246,17.346-0.241c9.876,3.208,20.215,3.841,30.223-0.447
			c2.288-0.98,4.571-1.404,7.048-0.569c15.075,5.079,30.038,4.413,44.888,1.276c2.306-5.614,4.578-11.242,6.831-16.88
			C403.368,1143.532,404.288,1141.497,403.119,1139.019z" fill="none"></path>
		<path style="" d="M478.46,1139.504c-0.126-0.165-0.251-0.33-0.377-0.495c-5.654,3.214-11.308,6.428-16.962,9.642
			c0.135,0.233,0.27,0.466,0.404,0.698C468.479,1148.36,473.947,1144.769,478.46,1139.504z" fill="none"></path>
		<path style="" d="M279.401,910.966c-0.754-1.359-2.173-0.937-3.381-0.921c-1.227,0.017-1.32,0.964-1.533,1.891
			c-0.71,3.094-1.642,6.224-3.659,8.638c-2.756,3.297-4.395,6.479-1.909,10.606c0.276,0.458,0.149,1.144,0.287,1.705
			c0.25,1.008,0.202,2.318,1.685,2.388c1.501,0.071,2.818-0.41,3.432-1.93c0.275-0.682,0.382-1.44,0.511-2.174
			c0.257-1.461,0.222-3.237,2.035-3.618c1.879-0.396,3.264,0.678,4.413,2.174c0.554,0.721,0.985,1.492,1.37,2.282
			c0.367-5.101,0.984-10.16,2.442-15.087C282.752,915.362,280.794,913.475,279.401,910.966z" fill="none"></path>
		<path style="" d="M964.926,1128.433c0.011-0.066,0.035-0.139,0.05-0.207c-3.151-0.028-6.29-0.23-9.414-0.697
			c-10.051,3.921-20.45,6.696-31.002,8.967c-5.797,1.248-11.615,2.401-17.562,2.685c-0.795,0.038-1.597,0.056-2.389-0.007
			c-0.93-0.074-2.198,0.154-2.425-1.069c-0.197-1.065,1.02-1.342,1.743-1.736c8.351-4.543,16.734-9.02,25.341-13.015
			c-0.822,0.016-1.645,0.038-2.476,0.101c-4.536,0.343-9.003,0.016-12.818,3.342c-2.423,2.113-5.951,2.595-8.647,1.421
			c-13.88-6.04-28.285-2.604-42.484-2.921c-8.108-0.181-16.203-0.472-24.293-0.839c-0.103,0.252-0.255,0.465-0.552,0.535
			c-0.482,0.113-0.772-0.268-1.039-0.612c-11.154-0.528-22.297-1.318-33.433-2.464c-3.325,15.843-6.649,31.686-9.98,47.528
			c-0.643,3.059-1.293,6.117-1.942,9.175c9.279,0.621,18.505,0.159,27.775-1.281c21.366-3.318,42.89-1.322,64.341-1.794
			c5.458-0.12,10.839-0.048,16.028-2.333c3.974-1.749,8.716-2.183,12.504-0.817c15.516,5.598,30.791,2.381,46.182-0.057
			c1.685-0.267,3.368-0.398,5.049-0.469c-0.08-0.723-0.156-1.446-0.222-2.169C961.998,1155.878,962.626,1142.123,964.926,1128.433z" fill="none"></path>
		<path style="" d="M500.489,1137.1c5.452,0.515,10.562-1.172,15.502-3.378c-2.613,0.286-5.242,0.158-7.826,0.781
			c-3.741,0.901-7.663,1.552-11.201-0.266c-2.664-1.369-4.543-0.975-6.734,0.732c-2.976,2.32-6.441,4.025-8.747,7.343
			c3.765-0.568,7.588-0.757,10.833-3.049C494.762,1137.535,497.366,1136.805,500.489,1137.1z" fill="none"></path>
		<path style="" d="M709.437,1186.59c-0.54,0.025-1.084,0.038-1.622-0.005c-0.631-0.051-1.493,0.104-1.646-0.726
			c-0.134-0.723,0.693-0.911,1.184-1.179c9.877-5.373,19.803-10.644,30.525-14.203c0.217-0.072,0.415-0.199,0.846-0.41
			c-1.75-0.7-3.312-1.129-4.999-1.205c-9.311-0.422-18.626-0.324-27.941-0.285c-0.629,0.002-1.311,0.195-2.17-0.484
			c5.24-1.664,10.39-2.811,15.596-4.128c-9.591-3.719-17.959-9.953-28.046-12.488c0.386-0.938,1.01-0.667,1.478-0.672
			c17.88-0.203,35.036,3.02,51.176,10.938c3.24,1.59,6.397,3.317,8.52,6.457c0.708,1.047,2.221,0.921,3.277,1.642
			c2.97,2.026,5.99,3.979,8.994,5.954c2.88,0.182,5.756,0.414,8.627,0.721c-0.358-6.064-0.703-12.13-1.127-18.189
			c-0.124-1.768,0.346-2.718,2.242-2.852c1.794-0.126,3.579-0.425,5.361-0.693c1.253-0.188,1.889,0.152,1.958,1.563
			c0.348,7.118,0.744,14.233,1.135,21.349c0.972,0.138,1.944,0.274,2.914,0.387c0.291-1.295,0.583-2.59,0.872-3.885
			c2.28-10.204,4.562-20.408,6.818-30.618c0.122-0.551,0.91-1.531-0.743-1.381c-0.536,0.049-0.648-1.049-0.828-1.671
			c-1.416-4.907-2.524-9.903-4.214-14.73c-0.675-1.929-1.4-3.837-2.108-5.743c-0.35-0.026-0.702-0.043-1.053-0.066
			c-0.004,0.031-0.005,0.065-0.012,0.093c-0.894,3.867-1.9,7.703-3.167,11.465c-0.396,1.175-0.389,2.34-0.278,3.554
			c0.457,5.025,0.918,10.05,1.264,15.083c0.148,2.155-0.169,2.305-2.221,1.808c-2.065-0.5-4.112-0.858-6.125,0.297
			c-1.307,0.75-0.976-0.47-1.116-1.051c-1.127-4.686-0.259-9.465-0.654-14.199c-0.486-5.81-0.586-11.653-0.832-17.483
			c-1.798-0.009-3.596-0.008-5.397,0.006c-8.006,5.705-16.077,11.315-24.281,16.732c-0.542,0.358-1.031,0.838-2.227,0.982
			c2.616-3.049,5.129-5.672,7.726-8.22c2.617-2.568,5.205-5.166,7.879-7.672c0.625-0.585,1.278-1.139,1.908-1.718
			c-3.828,0.053-7.654,0.096-11.469,0.068c-1.679-0.013-4.159,0.557-4.925,1.731c-7.425,11.382-18.075,7.248-27.812,5.575
			c-5.149-0.885-9.87-1.969-15.046-0.213c-8.723,2.958-17.356,1.231-25.744-1.663c-5.902-2.036-11.919-2.718-17.846-1.183
			c-17.587,4.556-34.851,3.092-52.718,0.568c-15.87-2.243-32.228-2.395-48.566,1.319c-3.751,0.853-7.532,1.46-11.326,1.949
			c8.43,0.15,16.853,0.542,25.273,1.007c5.551,0.307,11.095,0.732,16.581,1.674c1.098,0.188,2.591,0.362,2.558,1.846
			c-0.029,1.317-1.411,1.4-2.456,1.664c-4.356,1.098-8.8,1.599-13.247,2.18c-7.823,1.023-15.666,1.762-23.537,2.14
			c-9.958,0.477-19.927,0.567-29.897,0.611c-3.401,0.015-6.8,0.295-10.2,0.466c-0.648,0.033-1.47-0.107-1.763,0.626
			c-0.343,0.859,0.399,1.406,0.968,1.835c1.123,0.848,2.261,1.725,3.515,2.342c2.978,1.466,5.991,2.88,9.059,4.144
			c3.607,1.486,7.309,2.742,10.924,4.209c1.031,0.419,2.348,1.093,1.821,2.537c-0.46,1.259-1.77,0.954-2.841,0.848
			c-4.309-0.427-8.52-1.382-12.735-2.33c-8.621-1.938-17.103-4.205-24.325-9.656c-0.651-0.491-1.349-0.553-2.123-0.346
			c-1.681,0.449-3.357,0.93-5.06,1.276c-1.918,0.389-3.621,0.945-4.733,2.789c-0.637,1.058-1.947,1.628-3.059,0.985
			c-1.926-1.115-3.21-0.117-4.744,0.795c-3.871,2.299-7.8,4.522-12.626,3.434c-1.128-0.255-2.09,0.302-3.003,0.94
			c-4.999,3.49-9.954,7.051-15.025,10.428c8.042,2.765,15.523,7.273,23.703,9.435c8.213,2.17,17.228,1.679,25.887,1.727
			c32.359,0.179,64.719,0.094,97.078,0.093c4.916,0,8.968,0.009,11.555,6.09c2.273,5.343,9.578,5.516,14.355,5.497
			c11.922-0.047,22.5,3.425,32.78,8.671c5.609,2.863,11.289,2.559,17.482,2.515c16.588-0.119,32.688-4.994,49.302-4.178
			c4.175,0.205,7.875-1.081,8.159-6.383c0.059-1.107,0.225-2.089,0.447-3.005c-0.064,0.014-0.127,0.03-0.191,0.044
			C717.425,1185.614,713.475,1186.397,709.437,1186.59z" fill="none"></path>
		<path style="" d="M417.248,1135.74c-0.483,1.231-0.75,2.544-1.169,3.803c-2.202,6.614-4.634,13.14-7.152,19.632
			c4.387-1.077,8.497-1.35,12.67,1.1c1.03-2.47,2.058-4.94,3.107-7.401c2.911-6.83,5.722-13.701,8.464-20.598
			c-5.148,0.625-10.347,0.412-15.389-0.834C418.15,1132.736,417.856,1134.188,417.248,1135.74z" fill="none"></path>
		<path style="" d="M246.94,934.469c-1.623-2.544-3.204-5.114-4.796-7.677c0.214,0.701,0.409,1.397,0.651,2.108
			c0.991,2.917,1.001,6.17,1.092,9.488c0.458-0.065,0.918-0.107,1.375-0.183C247.935,937.757,248.39,936.741,246.94,934.469z" fill="none"></path>
		<path style="" d="M755.381,1172.738c0.172,0.911,0.237,1.778,0.332,2.658c1.402,0.031,2.803,0.046,4.204,0.104
			c-0.21-0.139-0.411-0.291-0.623-0.427C758.112,1174.307,757.07,1173.287,755.381,1172.738z" fill="none"></path>
		<path style="" d="M282.011,892.41c-0.611-1.461-1.144-2.954-1.669-4.451c0.488,2.789,1.08,5.566,1.804,8.328
			C282.72,895.101,282.615,893.853,282.011,892.41z" fill="#B73F3D"></path>
		<path style="" d="M286.292,939.616c1.023-0.054,1.248-1.026,1.412-1.818c0.558-2.684,0.92-5.395,0.787-8.281
			c0.226-2.707-0.252-5.496-0.617-8.289c-0.197-1.509-0.726-2.998-2.067-3.821c-0.249-0.153-0.473-0.328-0.714-0.489
			c-1.458,4.927-2.075,9.986-2.442,15.087c0.918,1.882,1.489,3.908,2.215,5.871C285.147,938.636,285.186,939.674,286.292,939.616z" fill="#B73F3D"></path>
		<path style="" d="M965.661,1123.518c-1.182-0.948-3.031,1.114-4.601,1.811c-1.811,0.803-3.66,1.484-5.497,2.201
			c3.124,0.466,6.263,0.669,9.414,0.697C965.344,1126.547,966.765,1124.403,965.661,1123.518z" fill="#B73F3D"></path>
		<path style="" d="M290.206,912.95c-1.037-2.575-2.117-5.265-3.207-7.951c-0.13-0.319-0.356-0.537-0.751-0.483
			c-0.424,0.058-0.846,0.355-1.224,0.779c0.407,1.074,0.814,2.149,1.27,3.218c0.473,1.108,0.598,2.634,0.307,3.857
			c0.752,0.516,1.546,0.979,2.362,1.408C289.576,914.1,290.315,914.248,290.206,912.95z" fill="#B73F3D"></path>
		<path style="" d="M1032.136,790.841c4.778,2.297,9.177,5.198,13.166,8.521c0.714-0.481,0.656-0.952,0.585-1.365
			c-1.097-6.36-2.134-12.724-2.531-19.179c-0.135-2.194-1.346-1.026-2.091-0.42c-3.589,2.921-6.483,6.504-9.396,10.062
			C1031.173,789.309,1030.854,790.224,1032.136,790.841z" fill="#B73F3D"></path>
		<path style="" d="M770.754,1116.511c-0.708-0.339-1.254,0.522-1.815,0.924c-0.999,0.717-2.012,1.412-3.013,2.125
			c1.801-0.014,3.599-0.015,5.397-0.006c-0.015-0.353-0.024-0.706-0.04-1.059C771.251,1117.794,771.423,1116.831,770.754,1116.511z" fill="#B73F3D"></path>
		<path style="" d="M1095.638,978.662c3.146,0.295,5.989,0.53,8.825,0.831c8.078,0.859,16.052,2.264,23.978,3.918
			c0.155-0.359,0.281-0.716,0.469-1.078c1.573-3.048,1.647-6.451,1.488-9.782c-0.091-1.895-0.197-3.791-0.309-5.685
			c-9.475,2.511-18.922,5.124-28.285,8.037C1099.667,975.567,1097.734,976.669,1095.638,978.662z" fill="#B73F3D"></path>
		<path style="" d="M433.168,1132.275c3.732-9.386,7.319-18.829,10.708-28.344c2.115-5.937,0.766-10.056-4.787-12.693
			c-2.133-1.013-2.715-2.694-2.082-4.966c1.179-4.229,4.03-7.352,7.307-9.828c4.213-3.184,8.003-6.424,10.505-11.282
			c7.193-13.963,14.033-28.092,20.374-42.453c12.372-28.021,25.814-55.603,35.202-84.862c0.22-0.685,0.944-1.503,0.285-2.054
			c-0.695-0.583-1.354,0.311-1.909,0.718c-16.195,11.897-30.682,25.44-41.138,42.847c-3.207,5.339-6.664,10.586-9.003,16.354
			c-5.902,14.553-10.308,29.63-14.879,44.634c-5.906,19.386-12.738,38.458-19.139,57.675c-3.123,9.375-6.298,18.733-9.458,28.096
			c-0.332,0.985-0.661,2.006,0.432,2.677c1.253,0.769,1.909,1.665,2.191,2.648C422.82,1132.687,428.02,1132.901,433.168,1132.275z" fill="#B73F3D"></path>
		<path style="" d="M1084.068,990.855c-0.571-0.117-1.267-0.564-1.68,0.144c-0.369,0.633,0.24,1.155,0.513,1.686
			c7.556,14.717,12.119,30.371,14.578,46.676c0.37,2.453,0.462,4.939-0.054,7.397c-0.144,0.688-0.294,1.519-1.076,1.702
			c-0.8,0.188-1.245-0.551-1.68-1.092c-3.021-3.754-5.262-7.989-7.246-12.336c-6.705-14.691-12.163-29.806-15.111-45.774
			c-0.801-0.312-1.06,0.409-1.416,0.834c-5.848,6.995-11.666,14.016-17.528,20.999c-1.142,1.361-1.518,2.966-1.865,4.615
			c-6.874,32.742-13.742,65.485-20.625,98.224c-0.753,3.58-1.514,7.159-2.272,10.738c6.71-1.928,13.512-3.365,20.988-1.376
			c6.443,1.715,12.872,0.01,14.109-8.685c11.344,8.543,21.353,8.157,31.957,0.056c9.055-6.918,14.929-17.418,25.755-22.392
			c1.848-0.849,2.864-3.738,4.025-5.819c6.795-12.184,9.17-25.216,8.711-39.17c-0.283-8.618-1.534-15.662-12.196-18.355
			c12.631-10.452,14.164-16.951,7.744-30.126c-1.01-2.073-1.786-4.114-2.206-6.156
			C1112.979,993.501,1098.468,993.816,1084.068,990.855z" fill="#B73F3D"></path>
		<path style="" d="M279.701,974.299c5.639,12.241,6.268,26.618,4.209,38.096c-3.347,18.665,1.029,36.082,1.403,54.012
			c0.174,8.364,4.757,14.711,11.521,20.488c7.929,6.772,16.412,13.941,19.151,24.999c0.627,2.534,2.298,4.048,3.949,5.853
			c8.342,9.121,19.331,10.351,30.685,10.876c8.739,0.405,17.799-1.958,26.141,1.172c5.839,2.19,11.191,2.234,16.781,0.625
			c2.293-0.66,4.556-1.057,6.809-1.262c0.163-0.473,0.331-0.945,0.475-1.424c2.733-9.085,3.973-18.465,5.381-27.808
			c0.727-4.827,1.356-9.669,2.045-14.613c-3.464,0.77-4.355-0.02-4.578-3.45c-0.285-4.365,0.781-8.587,1.321-12.854
			c1.038-8.207,0.704-16.401,0.246-24.605c-0.092-1.651-0.374-3.298-0.661-4.931c-0.358-2.043-0.716-4.028-3.118-4.91
			c-2.094-0.769-2.678-2.821-3.222-4.765c-1.473-5.261-2.436-10.699-5.572-15.367c-0.955-1.422-0.181-3.266-1.232-4.787
			c0,1.232,0.093,2.474-0.027,3.695c-0.114,1.162-0.373,2.52-1.902,2.478c-1.489-0.041-1.694-1.292-1.802-2.534
			c-0.461-5.347-2.085-10.404-3.945-15.394c-0.561-1.507-1.254-2.68-3.282-1.758c-1.014,0.461-2.132-0.024-2.938-0.88
			c-0.846-0.898-0.534-1.892-0.044-2.776c1.188-2.145,0.852-4.088-0.42-6.086c-3.722-5.852-7.681-11.476-13.716-15.231
			c-0.982-0.611-2.031-1.119-3.074-1.625c-1.499-0.729-2.575-1.427-3.08-3.432c-0.553-2.196-2.14-4.26-4.896-4.768
			c-2.827-0.521-5.165-2.23-7.665-3.517c-3.773-1.943-7.686-3.536-11.64-5.057c-1.859-0.716-3.576-1.744-5.132-3.032
			c-0.542-0.448-1.133-1.181-1.953-0.788c-0.647,0.31-0.767,1.088-0.725,1.749c0.066,1.043,0.941,1.313,1.761,1.465
			c2.462,0.458,4.846,1.171,7.173,2.079c0.847,0.33,1.688,0.715,2.455,1.197c0.624,0.393,1.249,0.94,1.018,1.824
			c-0.232,0.885-1.021,1.023-1.779,1.084c-3.106,0.249-6.144-0.252-9.126-1.024c-2.086-0.54-4.01-0.685-6.009,0.425
			c-1.768,0.982-3.46,0.609-4.42-1.312c-0.562-1.125-1.341-1.46-2.522-1.627c-3.345-0.473-6.622-1.609-10.06-0.333
			c-0.901,0.335-1.829-0.462-2.227-1.287c-0.774-1.603-2.147-1.917-3.673-2.11c-1.976-0.25-3.949-0.532-5.921-0.821
			c-2.338-0.344-4.438-1.058-6.227-2.805c-0.828-0.808-2.233-1.462-3.846-1.969c-0.449,5.241-1.225,10.434-3.014,15.474
			C277.297,965.117,277.722,970.001,279.701,974.299z" fill="#B73F3D"></path>
		<path style="" d="M831.938,1115.877c-4.552-9.975-8.258-20.237-10.259-31.078c-0.544-0.211-0.72,0.278-0.961,0.567
			c-3.971,4.75-7.921,9.516-11.901,14.258c-0.775,0.924-1.031,2.014-1.266,3.133c-1.341,6.387-2.683,12.775-4.024,19.162
			c11.136,1.146,22.279,1.936,33.433,2.464c-0.034-0.044-0.069-0.088-0.102-0.129
			C834.806,1121.704,833.285,1118.829,831.938,1115.877z" fill="#B73F3D"></path>
		<path style="" d="M1129.809,962.189c-0.141-2.369-0.271-4.738-0.381-7.107c-2.766,2.479-5.592,4.894-8.58,7.132
			C1123.836,962.339,1126.819,962.273,1129.809,962.189z" fill="#B73F3D"></path>
		<path style="" d="M974.667,1118.78c0.594,3.142,0.838,6.129,0.899,9.081c3.949-0.26,7.904-0.574,11.856-0.77
			c-2.298-1.672-4.605-3.331-6.991-4.873C978.69,1121.092,977.156,1119.589,974.667,1118.78z" fill="#B73F3D"></path>
		<path style="" d="M784.464,1119.988c0.351,0.023,0.702,0.04,1.053,0.066c-0.12-0.324-0.24-0.653-0.359-0.977
			C784.452,1119.191,784.512,1119.641,784.464,1119.988z" fill="#B73F3D"></path>
		<path style="" d="M1009.515,1007.947c-0.001-2.275-4.285-12.688-6.531-15.875
			C1001.238,999.175,1003.131,1003.777,1009.515,1007.947z" fill="#B73F3D"></path>
		<path style="" d="M779.041,1097.487c-0.001-1.544-2.91-8.615-4.434-10.778
			C773.422,1091.531,774.707,1094.656,779.041,1097.487z" fill="#B73F3D"></path>
		<path style="" d="M469.562,1072.599c-1.007-0.152-1.728,0.419-2.448,0.992c-2.201,1.754-4.421,3.485-6.878,4.877
			c-2.466,1.397-4.97,2.236-7.754,0.73c-0.652-0.353-1.495-0.734-2.7-0.013c1.604,0.892,2.969,1.529,4.622,1.831
			c6.703,1.227,10.69-4.06,15.868-6.469c0.365-0.17,0.539-0.63,0.393-1.084C470.496,1072.934,470.084,1072.677,469.562,1072.599z" fill="#B73F3D"></path>
		<path style="" d="M289.593,797.45c7.757,9.961,15.69,19.792,24.144,29.157c10.242,11.347,20.958,22.268,28.772,35.57
			c0.557,0.949,1.264,2.281,2.578,2.017c1.144-0.231,1.086-1.723,1.607-2.631c2.302-4.007-0.333-7.426-1.479-10.883
			c-1.694-5.114-3.96-10.038-5.978-15.046c-0.248-0.616-0.541-1.228-0.682-1.871c-0.204-0.934-0.772-2.193,0.385-2.664
			c1.071-0.436,1.467,0.881,1.862,1.612c2.723,5.042,5.364,10.13,8.074,15.179c0.412,0.768,0.5,2.069,1.53,2.089
			c1.203,0.024,0.958-1.37,1.278-2.132c6.985-16.63,14.698-32.915,23.237-48.801c2.218-4.126,3.571-8.583,5.432-12.84
			c0.496-1.136,0.752-3.088,2.418-2.636c1.74,0.473,0.804,2.231,0.64,3.45c-2.168,16.19-7.136,31.717-11.256,47.446
			c-2.038,7.779-5.002,15.318-6.068,23.348c-0.042,0.317-0.041,0.64-0.075,1.195c2.128-0.421,3.693-1.679,5.26-2.732
			c6.069-4.08,12.025-8.322,16.699-14.076c0.492-0.606,1.013-1.57,1.994-1.088c0.988,0.485,0.808,1.551,0.702,2.454
			c-0.402,3.42-2.224,6.243-4.009,9.033c-4.891,7.645-11.834,12.94-19.865,16.908c-3.368,1.664-5.266,5.805-4.061,9.336
			c1.316,3.859,2.592,7.714,2.6,11.86c0.002,0.866,0.179,1.979,1.388,0.982c1.694-1.397,3.221-2.99,4.126-5.195
			c-1.023-0.039-1.295,0.669-1.752,1.094c-0.502,0.467-1.002,1.026-1.699,0.459c-0.631-0.514-0.426-1.279-0.106-1.84
			c1.408-2.467,3.601-4.143,6.125-5.239c1.593-0.691,2.289,0.569,2.302,2.002c0.017,1.892-0.855,3.524-1.816,5.098
			c-1.781,2.919-3.882,5.621-6.195,8.107c-1.803,1.939-1.422,4.136-1.408,6.331c0.007,1.11,0.665,0.955,1.303,0.395
			c0.312-0.274,0.599-0.576,0.889-0.873c7.324-7.481,14.746-14.862,22.699-21.68c4.858-4.164,9.99-7.987,15.377-11.44
			c2.932-1.879,3.415-1.475,3.613,1.909c0.466,7.955-1.874,14.696-8.006,20.018c-1.349,1.171-2.85,2.33-3.487,4.151
			c-3.64,3.042-6.796,6.517-9.947,10.648c1.389-0.083,2.205-0.177,3.02-0.172c2.534,0.015,4.156-0.787,4.709-3.647
			c0.448-2.316,0.937-4.731,2.223-6.825c1.464,0.093,2.006,0.966,1.99,2.33c-0.01,0.831,0.011,1.662,0.009,2.492
			c-0.008,4.214,0.02,4.174,4.161,3.484c13.261-2.211,26.275-5.561,39.387-8.458c4.209-0.93,8.449-1.717,12.662-2.625
			c3.078-0.663,3.229-0.969,1.818-3.724c-5.837-11.399-10.751-23.205-15.521-35.075c-0.68-1.693-1.204-3.448-1.783-5.18
			c-0.185-0.552-0.412-1.209,0.26-1.543c0.677-0.336,1.131,0.275,1.408,0.729c1.427,2.338,2.82,4.698,4.164,7.083
			c4.037,7.163,7.858,14.457,12.141,21.469c2.396,3.923,5.541,7.389,8.604,10.949c0.391-3.631-0.5-7.012-1.334-10.398
			c-0.178-0.724-0.463-1.421-0.66-2.141c-1.23-4.509-0.457-5.916,3.995-7.34c0.445-0.143,0.867-0.357,1.409-0.583
			c-2.331-1.423-4.656-0.977-6.459,1.083c-0.708,0.809-1.339,1.715-2.16,2.388c-1.21,0.992-2.576,0.779-3.614-0.259
			c-1.097-1.097-0.661-2.328,0.288-3.316c0.623-0.649,1.326-1.389,2.136-1.658c2.662-0.884,3.052-2.828,2.627-5.162
			c-0.446-2.447-1.045-4.867-1.53-7.307c-0.188-0.945-0.69-2.206,0.411-2.706c1.265-0.575,1.944,0.734,2.446,1.597
			c1.126,1.939,1.895,4.053,2.551,6.205c0.279,0.915,0.316,1.972,1.408,2.819c2.034-4.177,3.67-8.399,4.889-12.765
			c2.61-9.352,4.734-18.816,6.753-28.318c2.482-11.685,5.11-23.335,6.993-35.137c0.47-2.946,1.018-5.891,1.274-8.859
			c0.233-2.704,0.428-5.458-1.697-7.759c-0.864-0.936-0.788-2.279-0.502-3.572c0.509-2.303,1.357-4.434,2.662-6.402
			c0.601-0.908,0.717-1.897-0.221-2.693c-0.806-0.683-1.805-0.967-2.795-0.589c-1.132,0.432-0.515,1.407-0.449,2.17
			c0.117,1.356-0.098,2.616-1.592,2.974c-1.607,0.385-1.804-1.067-2.275-2.09c-0.902-1.959-1.827-3.908-2.709-5.877
			c-0.269-0.6-0.554-1.28-0.025-1.875c0.561-0.632,1.192-0.251,1.829-0.04c2.732,0.904,3.782,0.234,4.345-2.561
			c0.905-4.496,0.303-8.918-0.523-13.337c0.997,0,1.995,0,2.992,0c0.644,3.811,1.281,7.624,1.941,11.433
			c0.092,0.532-0.091,1.336,0.628,1.462c0.859,0.15,0.996-0.7,1.211-1.289c1.412-3.864,2.802-7.736,4.199-11.606
			c0.997,0,1.995,0,2.992,0c-1.372,4.611-2.892,9.185-4.062,13.846c-0.756,3.012-2.215,6.426,1.971,8.424
			c0.557,0.266,1.151,0.918,0.65,1.642c-0.505,0.73-1.402,0.618-2.055,0.302c-2.299-1.111-2.434,0.158-2.462,1.965
			c-0.078,5.064-0.456,10.109-1.03,15.146c-1.298,11.384-3.219,22.674-5.192,33.949c-1.645,9.401-3.869,18.693-6.394,27.903
			c-2.062,7.522-3.899,15.113-6.449,22.49c-1.334,3.859-1.366,4.167,2.079,7.359c0-2.547,0.05-4.861-0.013-7.172
			c-0.085-3.11,0.96-6.05,1.3-9.097c0.112-0.996,0.403-2.307,1.785-2.386c1.34-0.078,1.642,1.202,2.191,2.096
			c0.129,0.209,0.204,0.455,0.284,0.69c2.889,8.494,6.04,16.89,9.337,25.234c2.354,5.957,4.875,11.828,8.201,17.317
			c1.605,2.649,2,2.663,3.641,0.104c6.147-9.586,12.52-19.019,19.323-28.152c2.478-3.327,5.189-6.484,7.875-9.651
			c0.756-0.892,1.7-2.523,2.92-1.719c1.163,0.766-0.047,2.262-0.374,3.389c-0.403,1.386-0.979,2.721-1.481,4.078
			c0.629-0.263,0.889-0.667,1.103-1.096c4.668-9.374,8.916-18.939,12.99-28.583c1.353-3.203,3.117-6.355,0.909-9.894
			c-0.152-0.245-0.119-0.666-0.049-0.977c0.247-1.095,0.951-1.57,1.673-0.538c1.651,2.36,1.957,0.444,2.428-0.7
			c3.295-7.998,5.754-16.281,8.152-24.573c5.05-17.462,9.682-35.039,14.256-52.632c0.784-3.014,1.018-6.288,3.291-8.764
			c0.997,0,1.995,0,2.992,0c0.537,0.818,1.434,1.079,2.245,1.496c3.562,1.827,4.41,3.792,3.315,7.641
			c-0.522,1.834-1.156,3.639-1.618,5.487c-1.831,7.317-4.972,14.303-5.685,21.898c-0.551,5.875-0.483,11.589,3.847,16.432
			c2.04,2.282,2.832,5.159,2.333,8.359c-1.33,8.541,2.106,15.059,8.903,19.978c1.741,1.26,2.71,2.815,3.142,4.863
			c1.739,8.233,1.022,16.519,0.615,24.802c-0.038,0.773-0.701,1.843,0.189,2.257c0.776,0.362,1.419-0.645,2.052-1.144
			c8.629-6.794,16.367-14.573,24.363-22.066c8.678-8.132,16.748-16.831,24.301-26.018c1.206-1.467,2.671-2.729,4.068-4.03
			c0.491-0.457,1.169-0.754,1.789-0.169c0.516,0.487,0.291,1.078,0.033,1.613c-0.397,0.823-0.775,1.659-1.242,2.442
			c-2.641,4.42-5.367,8.789-7.95,13.242c-5.69,9.809-10.132,20.352-18.248,28.686c-7.983,8.199-15.957,16.272-27.006,20.331
			c-1.243,0.456-2.161,1.231-2.699,2.421c-0.276,0.611-0.46,1.346-0.023,1.908c0.591,0.76,1.21,0.055,1.76-0.192
			c1.736-0.783,3.291-1.959,5.203-2.358c0.682-0.143,1.355-0.18,1.809,0.454c0.451,0.63,0.245,1.289-0.136,1.864
			c-0.365,0.551-0.765,1.093-1.228,1.561c-7.661,7.74-14.628,16.1-21.771,24.303c-1.518,1.744-3.01,3.511-4.514,5.267
			c3.326-1.311,6.15-3.176,8.792-5.328c0.499-0.406,1.075-0.93,1.79-0.569c0.669,0.338,0.48,0.959,0.293,1.533
			c-0.367,1.132,0.428,1.117,1.094,0.975c2.902-0.62,5.782-0.346,8.672,0.068c1.447,0.207,2.453-0.214,3.16-1.722
			c2.725-5.812,6.301-11.11,10.086-16.284c4.762-6.509,10.233-12.442,15.126-18.841c0.635-0.831,1.2-2.128,2.501-1.461
			c1.233,0.631,1.07,1.995,0.767,3.132c-0.82,3.078-2.23,5.882-4.068,8.489c-2.489,3.53-4.966,7.069-7.372,10.656
			c-2.281,3.4-4.063,7.068-5.065,11.043c-0.395,1.568-0.781,3.461,0.873,4.588c1.461,0.996,3.002,0.398,4.429-0.479
			c3.042-1.869,6.059-3.788,9.182-5.511c16.426-9.06,33.937-15.621,51.517-21.96c1.034-0.373,1.732-0.773,2.204-1.264l0.366,3.948
			c-1.101-0.628-2.022,1.076-3,1.74c-15.213,10.31-31.362,19.081-46.986,28.714c-2.237,1.379-4.715,2.442-6.95,4.406
			c5.878,0.972,11.003,2.984,16.349,4.181c4.159,0.932,8.15,6.666,8.171,10.923c0.01,2.025,0.72,3.702,1.778,5.338
			c4.451,6.889,10.128,12.485,17.249,16.607c2.588,1.498,5.108,3.114,7.629,4.722c0.59,0.377,1.453,0.818,0.911,1.746
			c-0.42,0.719-1.187,0.456-1.808,0.244c-2.043-0.7-4.079-1.422-6.105-2.168c-9.817-3.612-19.448-7.754-29.451-10.828
			c-13.734-4.221-27.762-7.602-41.131-12.852c-9.71-3.813-19.41-6.044-29.802-5.024c-0.33,0.032-0.671-0.025-0.996,0.026
			c-2.857,0.447-5.842,0.042-8.581,1.266c-1.431,0.639-2.796,1.078-4.096-0.325c-0.561-0.606-1.238-0.253-1.803,0.15
			c-1.015,0.723-2.077,1.396-3.011,2.213c-2.571,2.249-5.479,4.148-8.145,7.237c3.585-0.278,6.454-0.521,9.326-0.707
			c0.635-0.041,1.532-0.113,1.677,0.696c0.158,0.879-0.798,0.937-1.375,1.131c-3.55,1.194-7.242,1.792-10.914,2.444
			c-1.487,0.264-2.539,0.877-3.45,2.122c-5.814,7.945-10.744,16.431-14.795,25.365c-12.93,28.52-25.668,57.127-38.472,85.704
			c-3.736,8.338-7.455,16.683-11.149,25.039c-0.313,0.708-1.302,1.69,0.286,2.167c2.598,0.781,3.896,2.899,5.414,4.901
			c2.246,2.963-2.002,3.493-1.96,5.663c0.017,0.855-0.881,1.571-1.952,1.591c-0.162,0.003-0.34-0.026-0.487-0.091
			c-3.582-1.611-5.322,1.298-7.594,2.9c4.271-0.41,6.03-0.169,8.381,1.296c2.091,1.303,2.285,2.679,0.532,4.397
			c-1.476,1.447-3.221,2.57-4.577,4.196c-4.993,5.992-9.037,12.593-11.926,19.78c-2.174,5.409-4.467,10.76-6.811,16.089
			c1.768-0.263,3.54-0.479,5.311-0.678c0.178-2.854,0.644-5.697,1.07-8.531c0.126-0.841,0.184-2.126,1.281-2.174
			c1.321-0.057,1.166,1.362,1.516,2.23c0.031,0.075,0.044,0.161,0.051,0.244c0.227,2.596,0.686,5.167,1.157,7.738
			c4.225-0.338,8.459-0.526,12.702-0.556c0.251-0.714,0.486-1.434,0.74-2.146c7.805-21.854,16.821-43.185,27.767-63.665
			c2.621-4.904,5.568-9.633,8.379-14.434c0.408-0.696,0.738-1.671,1.772-1.474c1.145,0.218,1.086,1.332,1.244,2.202
			c0.088,0.484,0.076,0.996,0.046,1.49c-0.36,5.979-1.144,11.932-2.44,17.75c-2.099,9.419-3.317,18.943-4.371,28.505
			c-0.941,8.538-2.748,16.856-6.137,24.785c-1.23,2.878-1.129,3.02,2,2.795c0.166-0.012,0.332-0.023,0.497-0.039
			c15.206-1.449,29.186-6.785,42.75-13.453c3.57-1.755,6.86-4.083,10.714-5.259c0.68-0.207,1.477-0.787,1.987,0.134
			c0.433,0.781-0.176,1.424-0.676,1.977c-0.331,0.365-0.755,0.646-1.138,0.964c-7.419,6.181-15.411,11.571-23.43,16.922
			c-1.434,0.956-2.853,1.935-4.382,2.974c0.684,0.819,1.218,0.711,1.693,0.708c3.198-0.026,6.394,0.003,9.589,0.059
			c3.794-0.49,7.575-1.097,11.326-1.949c16.337-3.714,32.696-3.561,48.566-1.319c17.867,2.525,35.131,3.988,52.718-0.568
			c5.927-1.535,11.944-0.853,17.846,1.183c8.388,2.894,17.021,4.621,25.744,1.663c5.176-1.755,9.897-0.672,15.046,0.213
			c9.737,1.673,20.387,5.807,27.812-5.575c0.767-1.175,3.247-1.744,4.925-1.731c3.815,0.029,7.641-0.015,11.469-0.068
			c2.114-1.941,4.234-3.875,6.398-5.76c2.761-2.406,5.701-4.59,8.744-6.984c-6.991-0.686-13.989-1.303-20.97-2.075
			c-6.937-0.768-13.884-1.351-20.949-1.307c0.21-0.792,0.618-0.784,0.953-0.808c5.478-0.399,10.749-1.957,16.133-2.863
			c8.578-1.445,17.162-1.911,25.687,0.765c-7.725-7.284-15.956-13.853-23.891-20.811c7.052,2.789,13.714,6.278,20.463,10.234
			c-0.422-4.784-0.807-9.292-1.229-13.797c-0.093-0.994-0.704-1.783-1.314-2.529c-1.788-2.186-3.613-4.341-5.386-6.539
			c-0.303-0.376-0.889-0.903-0.355-1.388c0.407-0.37,0.892,0.149,1.251,0.426c1.652,1.272,3.281,2.574,5.351,4.208
			c-0.871-10.526-1.706-20.624-2.583-31.221c2.297,2.634,4.724,1.677,7.039,1.286c2.258-0.382,2.386-0.366,2.37,1.923
			c-0.075,10.878-0.154,21.756-0.28,32.634c-0.017,1.463,0.346,2.62,1.323,3.759c4.076,4.755,7.279,10.006,8.681,16.208
			c0.048,0.214,0.177,0.409,0.365,0.83c1.692-3.269,2.395-6.577,2.824-9.966c0.371-2.934,0.482-5.865,0.073-8.807
			c-0.107-0.77-0.097-1.562-0.066-2.34c0.023-0.56-0.154-1.397,0.631-1.469c0.653-0.06,0.693,0.747,0.809,1.238
			c1.422,6.005,2.151,12.071,1.315,18.232c-0.506,3.73-1.994,7.052-4.682,9.736c-0.912,0.911-0.884,1.434,0.134,2.246
			c2.631,2.1,3.967,5.095,5.187,8.114c1.065,2.635,1.967,5.312,2.741,8.023c1.582,0.197,3.164,0.332,4.746,0.512
			c4.563-20.349,9.125-40.699,13.688-61.048c-4.076,4.366-7.626,9.048-11.747,13.466c-0.284-0.943,0.17-1.428,0.41-1.938
			c5.344-11.368,10.702-22.729,16.077-34.082c0.297-0.628,0.436-1.618,1.204-1.668c0.895-0.059,1.446,0.818,1.83,1.546
			c1.406,2.663,2.136,5.609,0.669,8.305c-3.012,5.532-3.422,11.696-4.757,17.624c-2.165,9.613-4.089,19.281-6.105,28.928
			c-0.117,0.559-0.39,1.125-0.065,2.02c0.992-1.127,1.847-2.1,2.705-3.071c3.025-3.422,5.799-7.122,9.161-10.172
			c2.432-2.207,3.277-5.331,5.607-7.532c10.448-9.87,22.269-17.503,35.786-22.451c4.404-1.612,8.879-3.008,13.411-4.213
			c0.549-0.146,1.098-0.495,2.043,0.019c-9.118,5.1-15.529,13.195-23.729,19.334c5.294,0.222,10.548-0.402,16.015,0.019
			c-0.603,0.966-1.384,0.944-2.027,1.106c-9.034,2.278-18.021,4.721-26.918,7.489c-1.451,0.451-2.764,1.199-4.187,2.553
			c2.136,0.2,4.066,0.36,5.992,0.564c9.465,1.006,18.733,3.052,27.957,5.324c0.511,0.126,1.26,0.141,1.312,0.758
			c0.071,0.831-0.772,0.987-1.372,1.184c-2.938,0.967-6.01,1.269-9.056,1.467c-10.922,0.708-21.852,1.209-32.688-1.019
			c-0.388-0.079-0.86-0.383-1.141,0.098c-0.251,0.43,0.163,0.784,0.348,1.145c5.13,9.992,8.228,20.62,9.898,31.691
			c0.251,1.666,0.314,3.353-0.037,5.022c-0.043,0.206-0.098,0.424-0.178,0.621c8.091,0.367,16.186,0.659,24.293,0.839
			c14.199,0.317,28.604-3.119,42.484,2.921c2.696,1.173,6.224,0.691,8.647-1.421c3.815-3.326,8.282-3,12.818-3.342
			c0.832-0.063,1.655-0.084,2.476-0.101c6.386-2.965,12.892-5.672,19.619-7.904c0.319-0.105,0.611-0.293,1.245-0.603
			c-2.577-1.032-4.878-1.663-7.363-1.776c-13.714-0.621-27.433-0.478-41.153-0.42c-0.926,0.004-1.931,0.287-3.196-0.713
			c7.718-2.451,15.302-4.14,22.97-6.08c-14.126-5.478-26.451-14.659-41.307-18.392c0.569-1.382,1.488-0.983,2.177-0.991
			c26.334-0.299,51.603,4.449,75.374,16.11c4.773,2.341,9.422,4.885,12.549,9.51c1.043,1.542,3.271,1.356,4.827,2.418
			c6.182,4.218,12.443,8.321,18.706,12.419c2.483,0.006,4.962,0.111,7.435,0.365c-0.589-9.916-1.153-19.833-1.846-29.741
			c-0.182-2.605,0.51-4.004,3.303-4.2c2.643-0.186,5.271-0.626,7.896-1.02c1.845-0.277,2.781,0.224,2.883,2.302
			c0.552,11.276,1.179,22.549,1.798,33.822c0.331-0.149,0.663-0.287,0.985-0.354c1.01-0.211,2.013-0.456,3.013-0.715
			c0.484-2.154,0.97-4.307,1.451-6.461c3.359-15.029,6.719-30.058,10.042-45.095c0.179-0.812,1.34-2.256-1.095-2.034
			c-0.79,0.072-0.955-1.545-1.219-2.461c-2.085-7.227-3.718-14.585-6.207-21.695c-1.164-3.325-2.425-6.616-3.633-9.898
			c-1.13,0.182-0.919,0.958-1.04,1.479c-1.317,5.695-2.799,11.345-4.664,16.886c-0.583,1.731-0.573,3.447-0.41,5.235
			c0.674,7.4,1.352,14.802,1.862,22.214c0.218,3.173-0.248,3.395-3.271,2.662c-3.042-0.737-6.056-1.264-9.021,0.437
			c-1.925,1.105-1.437-0.692-1.643-1.548c-1.659-6.902-0.381-13.941-0.964-20.914c-0.759-9.075-0.868-18.205-1.285-27.31
			c-0.047-1.034,0.206-2.452-0.779-2.924c-1.042-0.499-1.848,0.769-2.673,1.361c-13.233,9.5-26.606,18.798-40.201,27.775
			c-0.798,0.527-1.518,1.234-3.279,1.446c3.853-4.49,7.555-8.354,11.379-12.107c3.854-3.782,7.666-7.608,11.605-11.299
			c4.004-3.751,8.096-7.411,12.233-11.015c4.067-3.544,8.397-6.76,12.879-10.286c-10.296-1.009-20.604-1.919-30.886-3.057
			c-10.218-1.131-20.45-1.99-30.855-1.925c0.31-1.166,0.911-1.155,1.403-1.191c8.068-0.588,15.831-2.882,23.761-4.218
			c12.634-2.129,25.277-2.814,37.833,1.128c-11.378-10.729-23.5-20.403-35.188-30.652c10.387,4.108,20.198,9.247,30.138,15.073
			c-0.622-7.045-1.189-13.686-1.81-20.321c-0.137-1.465-1.036-2.626-1.935-3.724c-2.633-3.219-5.322-6.394-7.933-9.631
			c-0.446-0.553-1.31-1.33-0.523-2.045c0.599-0.545,1.313,0.22,1.843,0.628c2.434,1.873,4.832,3.792,7.881,6.198
			c-1.282-15.503-2.513-30.376-3.804-45.984c3.383,3.879,6.958,2.471,10.367,1.894c3.326-0.563,3.514-0.54,3.491,2.833
			c-0.111,16.022-0.228,32.044-0.413,48.065c-0.025,2.154,0.51,3.858,1.948,5.536c6.004,7.004,10.721,14.738,12.785,23.872
			c0.071,0.314,0.26,0.601,0.538,1.222c2.491-4.815,3.528-9.686,4.159-14.678c0.547-4.32,0.71-8.637,0.108-12.971
			c-0.157-1.133-0.143-2.3-0.097-3.447c0.033-0.824-0.228-2.058,0.93-2.164c0.962-0.088,1.02,1.1,1.191,1.823
			c2.094,8.844,3.169,17.779,1.938,26.853c-0.745,5.495-2.937,10.387-6.896,14.339c-1.344,1.342-1.302,2.112,0.197,3.309
			c3.875,3.093,5.843,7.505,7.64,11.95c3.825,9.464,6.598,19.194,7.228,29.508c7.986-35.618,15.972-71.236,23.958-106.854
			c-6.003,6.43-11.232,13.326-17.302,19.833c-0.418-1.389,0.251-2.102,0.604-2.854c7.87-16.743,15.762-33.476,23.678-50.198
			c0.438-0.925,0.643-2.383,1.773-2.457c1.318-0.086,2.129,1.205,2.695,2.277c2.071,3.923,3.147,8.261,0.985,12.232
			c-4.436,8.149-5.039,17.226-7.006,25.958c-3.188,14.159-6.022,28.399-8.992,42.607c-0.172,0.824-0.574,1.657-0.096,2.975
			c1.461-1.659,2.72-3.094,3.983-4.523c4.455-5.041,8.541-10.489,13.493-14.982c3.582-3.25,4.827-7.852,8.259-11.094
			c14.394-13.598,30.586-24.266,48.909-31.559c0.115-4.38,0.423-8.762,1.105-13.148c0.361-2.322,0.201-4.996-0.6-7.184
			c-4.383-11.967-8.331-21.523,2.477-34.839c8.781-10.819,7.853-28.515-0.497-43.063c-4.244-7.395-6.124-15.21-2.033-24.122
			c4.004-8.726,6.383-18.136,1.323-27.906c-1.716-3.314-1.123-7.904,0.541-11.549c2.327-5.099,3.371-10.647,3.016-15.841
			c-13.287,0.404-26.571,0.879-39.838,1.785c-3.979,0.272-7.974,0.027-11.867-0.928c-3.259-0.8-3.821-2.054-2.362-5.634
			c-3.309,1.572-6.273,2.979-9.691,4.603c3.367,0.969,6.428,0.883,9.398,1.325c11.309,1.681,22.509,3.795,33.247,7.871
			c1.242,0.471,2.475,0.977,3.499,1.857c0.409,0.352,0.787,0.787,0.623,1.368c-0.166,0.587-0.706,0.752-1.255,0.789
			c-0.617,0.042-1.237,0.054-1.856,0.054c-17.345-0.008-34.69,0.002-52.034-0.05c-2.736-0.008-5.481-0.205-8.205-0.482
			c-5.052-0.514-7.024-3.159-6.102-8.178c0.23-1.254,0.325-2.413-0.044-3.643c-1.189-3.958-0.718-7.796,1.493-11.229
			c9.306-14.456,21.626-25.366,37.801-31.633c0.687-0.266,1.439-0.742,2.502,0.073c-10.819,10.294-22.453,19.85-28.718,34.104
			c3.8-1.878,7.576-3.546,11.45-4.981c0.779-0.289,1.348-0.847,1.629-1.647c1.932-5.497,5.877-9.417,10.303-12.885
			c12.185-9.551,25.743-16.831,39.57-23.645c0.969-0.477,2.438-1.575,3.107-0.563c0.748,1.13-0.986,1.797-1.768,2.49
			c-9.864,8.744-19.766,17.445-29.652,26.164c-0.862,0.76-1.728,1.526-2.51,2.366c-0.494,0.53-1.579,0.981-1.011,1.874
			c0.398,0.626,1.327,0.208,2,0.07c7.631-1.565,15.3-2.882,23.06-3.618c0.597-0.057,1.22-0.322,2.394,0.608
			c-9.51,5.044-19.529,7.977-29.653,12.627c13.708-1.37,26.349,0.734,38.964,3.026c1.556,0.283,3.105,0.607,4.656,0.921
			c-0.113-0.408-0.202-0.826-0.337-1.225c-3.089-9.142-0.684-18.136-2.519-27.204c-5.004-24.729,2.765-49.055,4.894-73.536
			c1.588-18.265,0.69-36.153-5.465-52.893c-3.467-9.43-5.727-17.746-5.447-27.937c0.319-11.615-2.242-23.379-1.288-35.189
			c0.793-9.819-1.045-20.967,3.033-29.163c7.706-15.485,6.648-31.303,6.614-47.22c-0.009-4.24,0.246-7.902,1.224-12.036
			c2.244-9.488,4.896-19.439,1.45-28.995c-1.936-5.368-2.159-10.328-2.164-15.817c-0.007-9.88,2.982-20.423-1.891-29.482
			c-3.175-5.901-4.181-11.536-5.068-17.877c-1.54-11.017-4.719-22.126-12.723-30.145c-7.797-7.813-15.365-15.553-21.817-24.602
			c-5.23-7.336-12.052-14.082-21.98-14.246c-14.047-0.232-28.365-2.251-41.358,6.204c-6.704,4.363-13.82,5.51-19.468-2.778
			c-1.884-2.765-5.512-3.68-9.008-3.513c-19.599,0.937-39.187,2.169-58.796,2.776c-9.248,0.286-17.732,3.659-27.424,3.53
			c-22.281-0.297-43.466-8.595-65.981-6.66c-16.513,1.419-33.259,0.704-49.878,0.199c-42.979-1.307-85.816,1.847-128.704,3.457
			c-11.096,0.417-22.137-2.86-33.326-0.088c-5.932,1.47-11.951,0.602-17.817-1.502c-5.88-2.109-11.733-1.56-17.791,0.254
			c-4.79,1.434-9.581,5.042-14.736,3.161c-9.284-3.386-18.65-2.929-28.272-2.93c-10.58-0.001-20.869,3.466-31.449,1.987
			c-9.072-1.268-17.953-1.384-26.925,1.28c-7.624,2.264-15.631,2.372-23.253-0.237c-12.893-4.413-26.361-2.676-39.525-3.89
			c-9.21-0.849-19.318-2.538-27.286,5.197c-0.68,0.66-2.355,0.545-3.525,0.413c-17.043-1.924-34.493,3.286-51.298-2.944
			c-2.143-0.794-4.079,0.912-6.056,1.121c-13.562,1.435-22.672,11.558-34.162,16.918c-5.868,2.738-7.584,6.466-7.023,12.04
			c1.511,15.019-6.54,26.967-12.676,39.473c-1.381,2.814-2.924,5.845-6.187,7.59c-9.548,5.105-12.381,12.487-9.048,23.223
			c0.891,2.871,3.178,5.788,1.824,8.649c-6.609,13.962,0.493,28.67-2.622,42.797c-0.51,2.311,0.057,5.209,2.118,6.68
			c7.133,5.091,6.543,12.504,6.203,19.748c-0.727,15.509-7.068,30.742-2.195,46.561c0.384,1.246-0.563,2.921-0.946,4.383
			c-1.941,7.407-3.407,14.706,0.65,22.041c1.757,3.177,0.332,6.634-1.222,9.576c-8.032,15.208-4.914,30.788-2.596,46.661
			c1.456,9.968,5.65,19.731,2.964,30.27c-3.119,12.238,2.687,25.559-4.652,37.525c-1.831,2.985,0.232,7.023,1.976,10.346
			c3.924,7.472,5.871,15.266,2.93,23.6c-6.477,18.356-5.483,37.413-5.432,56.4c0.022,8.101,0.015,16.203,0.015,24.304
			c0.399,0.292,0.769,0.687,1.116,1.003C283.202,789.367,286.429,793.387,289.593,797.45z M754.107,1044.55
			c-0.656,0.234-0.924-0.63-1.243-1.088c-2.092-3.009-4.091-6.083-6.226-9.06c-4.519-6.302-10.407-11.285-16.071-16.479
			c-1.071-0.982-1.286-0.059-1.54,0.694c-2.145,6.381-4.602,12.645-7.144,18.874c-2.882,7.063-5.846,14.093-8.781,21.135
			c-0.158,0.38-0.383,0.731-0.768,1.054c0.059-3.254,0.847-6.394,1.45-9.554c0.619-3.244,1.313-6.475,2.061-9.693
			c0.735-3.159,1.523-6.307,2.391-9.431c0.877-3.157,1.882-6.278,2.632-9.557c-8.856,9.333-18.764,17.582-26.751,27.802
			c-0.404-0.569-0.211-0.836-0.047-1.067c3.567-5.021,5.842-10.758,8.921-16.048c2.424-4.165,5.272-8.032,8.542-11.582
			c0.347-0.376,0.827-0.692,0.91-1.476c-7.519,3.895-13.511,9.628-20.068,14.682c5.422-9.787,12.338-18.242,21.602-24.655
			c-11.834,3.218-24.12,4.092-35.884,7.3c-0.37-0.87,0.094-0.965,0.37-1.096c8.195-3.897,16.372-7.857,25.194-10.187
			c3.254-0.86,6.57-1.51,9.974-0.911c0.589,0.103,1.186,0.224,1.744,0.433c2.013,0.754,2.222,1.571,0.89,3.296
			c2.088-0.227,4.113-0.887,6.238-0.862c2.628,0.031,3.505,1.182,2.714,3.635c-0.107,0.333-0.408,0.673,0.025,0.933
			c0.357,0.214,0.703-0.005,0.979-0.246c0.362-0.315,0.68-0.681,1.044-0.993c0.936-0.801,1.89-0.911,2.569,0.25
			c0.525,0.897,1.254,1.158,2.203,1.286c2.935,0.395,5.373,1.84,7.223,4.068c5.313,6.399,10.084,13.161,13.315,20.896
			c0.813,1.947,1.444,3.95,1.729,6.047C754.38,1043.499,754.816,1044.298,754.107,1044.55z M815.581,1036.817
			c-1.102,1.218-2.482,2.097-3.929,2.836c-7.921,4.047-15.854,8.07-23.788,12.093c-0.408,0.206-0.807,0.548-1.346,0.315
			c-0.256-0.634,0.214-1.033,0.529-1.417c7.029-8.591,15.482-15.057,26.518-17.607c0.979-0.226,2.214-0.919,2.916,0.36
			C817.194,1034.699,816.457,1035.848,815.581,1036.817z M842.169,1055.13c-0.483,0.245-0.81-0.211-1.001-0.548
			c-4.265-7.54-11.794-11.192-18.607-15.709c-0.753-0.499-2.207-0.606-1.824-2.045c0.383-1.439,1.627-1.59,2.892-1.564
			c0.419,0.009,0.839,0.001,1.259,0.001c5.431,0.09,9.708,2.231,12.579,6.977c2.224,3.677,3.802,7.605,4.84,11.76
			C842.403,1054.388,842.656,1054.882,842.169,1055.13z M854.278,949.249c-7.82,9.982-15.655,19.954-24.477,29.089
			c-2.287,2.367-4.531,4.838-7.681,6.153c-0.826,0.345-0.799,1.104-0.873,1.826c-0.458,4.481-0.93,8.961-1.389,13.442
			c-0.08,0.784-0.079,1.689-0.614,2.225c-1.481,1.484-0.877,2.921-0.371,4.59c1.082,3.565,1.606,7.244,1.381,10.999
			c-0.03,0.502-0.268,1.051,0.243,1.635c1.156-1.773,1.835-3.676,2.42-5.612c1.719-5.693,2.229-11.541,2.181-17.457
			c-0.006-0.721-0.008-1.443,0.031-2.162c0.012-0.213,0.116-0.504,0.276-0.609c0.315-0.206,0.579,0.057,0.747,0.297
			c0.412,0.59,0.828,1.184,1.171,1.816c2.97,5.458,5.247,11.126,4.397,17.51c-0.435,3.265-1.8,6.237-3.922,8.779
			c-1.938,2.321-4.526,3.344-7.522,3.142c-1.125-0.076-1.35,0.257-1.21,1.289c0.193,1.425,0.306,2.866,0.348,4.303
			c0.025,0.86-0.233,1.734-1.126,2.094c-0.968,0.39-1.399-0.495-1.885-1.044c-3.385-3.824-6.875-7.554-10.271-11.365
			c-3.73-4.185-8.64-6.401-13.451-8.852c-2.248-1.145-4.49-2.302-6.7-3.518c-0.64-0.352-1.691-0.721-1.395-1.621
			c0.31-0.941,1.4-0.746,2.218-0.669c5.979,0.562,11.424,2.722,16.594,5.653c4.4,2.494,8.366,5.603,12.36,8.771
			c-2.953-5.104-4.206-11.114-9.414-14.951c-8.176-6.024-16.362-12.029-24.645-17.905c-0.567-0.402-1.277-0.668-1.644-1.475
			c0.734-0.284,1.3,0.115,1.855,0.353c6.68,2.866,13.466,5.484,20.023,8.636c0.364,0.175,0.793,0.565,1.147,0.224
			c0.442-0.426-0.02-0.903-0.212-1.302c-2.159-4.496-4.377-8.965-6.215-13.605c-0.322-0.813-1.276-1.902-0.302-2.569
			c0.811-0.555,1.59,0.564,2.225,1.141c4.831,4.381,8.89,9.438,12.734,14.678c0.63,0.859,1.246,1.729,2.198,3.05
			c0.409-3.032,0.744-5.551,1.088-8.068c1.516-11.07,2.979-22.15,5.359-33.079c0.203-0.935,0.525-1.846,0.817-2.76
			c0.093-0.292,0.31-0.569,0.64-0.538c0.331,0.03,0.494,0.341,0.53,0.648c0.138,1.192,0.315,2.384,0.362,3.58
			c0.236,6.012-0.27,12.011-0.342,18.018c-0.004,0.3-0.029,0.601-0.018,0.901c0.013,0.346-0.1,0.793,0.301,0.956
			c0.393,0.16,0.639-0.228,0.899-0.456c2.576-2.257,5.147-4.52,7.721-6.78c3.477-3.053,6.964-6.094,10.428-9.16
			c1.52-1.345,1.496-1.421-0.315-2.208c-6.501-2.827-13.05-5.55-19.412-8.689c-2.749-1.356-5.549-2.659-7.385-5.292
			c-0.293-0.421-0.885-0.789-0.574-1.396c0.252-0.491,0.841-0.363,1.304-0.416c3.413-0.393,6.839-0.279,10.264-0.259
			c1.742,0.01,3.078,0.807,4.337,1.913c4.521,3.975,8.647,8.345,12.71,12.77c1.125,1.225,1.907,1.235,3.084,0.143
			c2.554-2.369,5.201-4.639,7.819-6.939c0.469-0.412,0.875-0.959,1.576-1.04C854.924,948.676,854.516,948.945,854.278,949.249z
			 M1063.332,918.589c-1.623,1.795-3.655,3.088-5.787,4.177c-11.667,5.961-23.351,11.886-35.036,17.811
			c-0.6,0.304-1.189,0.807-1.982,0.465c-0.377-0.934,0.315-1.522,0.778-2.088c10.353-12.653,22.803-22.177,39.057-25.933
			c1.442-0.333,3.261-1.354,4.295,0.531C1065.709,915.469,1064.624,917.161,1063.332,918.589z M1102.492,945.56
			c-0.711,0.361-1.193-0.31-1.474-0.807c-6.281-11.105-17.372-16.484-27.405-23.137c-1.109-0.735-3.25-0.893-2.687-3.011
			c0.564-2.119,2.396-2.343,4.26-2.304c0.618,0.013,1.236,0.002,1.854,0.002c8,0.132,14.298,3.285,18.526,10.276
			c3.275,5.415,5.599,11.2,7.128,17.321C1102.838,944.469,1103.21,945.196,1102.492,945.56z M1060.422,778.796
			c0.371-0.723,1.238-0.534,1.921-0.613c5.027-0.579,10.073-0.411,15.117-0.382c2.566,0.015,4.533,1.188,6.388,2.818
			c6.659,5.855,12.736,12.291,18.72,18.808c1.657,1.804,2.809,1.819,4.543,0.21c3.762-3.49,7.661-6.832,11.516-10.22
			c0.691-0.607,1.288-1.413,2.321-1.533c0.332,0.885-0.27,1.281-0.621,1.73c-11.518,14.702-23.057,29.39-36.052,42.843
			c-3.368,3.487-6.673,7.126-11.313,9.062c-1.217,0.508-1.178,1.627-1.286,2.69c-0.674,6.6-1.369,13.198-2.046,19.797
			c-0.118,1.154-0.116,2.487-0.904,3.277c-2.181,2.185-1.292,4.302-0.547,6.76c1.593,5.252,2.366,10.67,2.035,16.199
			c-0.044,0.739-0.395,1.548,0.359,2.408c1.702-2.611,2.703-5.414,3.563-8.266c2.531-8.385,3.283-16.998,3.213-25.712
			c-0.009-1.062-0.013-2.125,0.045-3.184c0.017-0.314,0.171-0.743,0.407-0.897c0.464-0.303,0.853,0.084,1.1,0.438
			c0.608,0.869,1.219,1.744,1.725,2.674c4.375,8.04,7.727,16.388,6.476,25.79c-0.64,4.809-2.651,9.187-5.777,12.93
			c-2.854,3.418-6.665,4.926-11.079,4.628c-1.657-0.112-1.988,0.378-1.783,1.898c0.284,2.098,0.451,4.221,0.512,6.338
			c0.037,1.266-0.343,2.553-1.659,3.084c-1.425,0.575-2.06-0.729-2.775-1.538c-4.985-5.632-10.126-11.127-15.128-16.739
			c-5.493-6.163-12.725-9.428-19.812-13.037c-3.311-1.686-6.614-3.391-9.869-5.181c-0.943-0.519-2.491-1.062-2.054-2.388
			c0.457-1.386,2.062-1.099,3.267-0.986c8.806,0.828,16.825,4.009,24.441,8.326c6.481,3.674,12.321,8.253,18.204,12.919
			c-4.349-7.518-6.195-16.369-13.865-22.021c-12.042-8.872-24.099-17.718-36.298-26.371c-0.835-0.592-1.881-0.984-2.422-2.172
			c1.081-0.419,1.915,0.169,2.732,0.52c9.838,4.221,19.834,8.077,29.491,12.719c0.536,0.258,1.168,0.831,1.689,0.329
			c0.65-0.628-0.03-1.33-0.312-1.918c-3.179-6.621-6.446-13.204-9.154-20.038c-0.475-1.198-1.88-2.802-0.445-3.783
			c1.195-0.817,2.341,0.832,3.277,1.68c7.115,6.453,13.093,13.901,18.755,21.619c0.928,1.266,1.836,2.546,3.237,4.492
			c0.602-4.466,1.095-8.176,1.603-11.883c2.233-16.305,4.388-32.623,7.893-48.721c0.3-1.377,0.774-2.719,1.203-4.065
			c0.137-0.43,0.457-0.838,0.943-0.793c0.488,0.044,0.728,0.503,0.78,0.954c0.203,1.755,0.464,3.511,0.533,5.273
			c0.348,8.854-0.397,17.69-0.503,26.538c-0.005,0.443-0.043,0.886-0.026,1.327c0.019,0.51-0.148,1.168,0.443,1.409
			c0.579,0.235,0.941-0.336,1.324-0.671c3.794-3.324,7.58-6.657,11.371-9.986c5.121-4.496,10.256-8.975,15.359-13.491
			c2.238-1.981,2.203-2.092-0.464-3.252c-9.576-4.164-19.221-8.175-28.591-12.798c-4.049-1.997-8.173-3.916-10.876-7.794
			C1060.836,780.231,1059.964,779.689,1060.422,778.796z M1020.244,778.087c2.2-7.385,9.538-12.628,17.773-12.567
			c2.497-0.079,4.913,0.856,6.953,2.733c0.487,0.448,1.309,0.862,0.975,1.695c-0.275,0.687-1.065,0.439-1.652,0.515
			c-0.174,0.022-0.355,0.023-0.529,0.003c-8.723-0.993-15.124,2.988-20.421,9.442c-0.827,1.008-1.699,2.956-3.154,2.101
			C1018.878,781.239,1019.856,779.389,1020.244,778.087z M949.665,739.792c0.259-0.446,0.759-0.346,1.185-0.217
			c0.337,0.102,0.669,0.23,0.986,0.384c8.25,3.985,15.924,8.84,22.248,15.534c4.042,4.277,6.532,9.391,6.815,15.398
			c0,0.53,0.037,1.062-0.008,1.588c-0.077,0.889-0.167,1.86-1.192,2.16c-1.055,0.309-1.677-0.529-2.121-1.247
			c-1.485-2.4-3.051-4.775-4.259-7.316c-4.493-9.454-11.382-16.718-20.032-22.436c-1.177-0.778-2.398-1.513-3.285-2.648
			C949.737,740.651,949.412,740.228,949.665,739.792z M917.685,768.179c8.872-2.224,17.887-3.308,28.505-3.311
			c5.948-0.283,13.179,0.745,20.158,3.28c3.936,1.429,7.641,3.332,10.31,6.718c1.169,1.483,2.314,3.202,0.73,5
			c-1.426,1.618-3.267,1.048-4.887,0.205c-11.593-6.033-24.243-7.979-36.977-9.54c-5.268-0.646-10.574-0.8-15.875-0.183
			c-0.608,0.071-1.242,0.037-1.851-0.042c-0.68-0.088-1.666-0.054-1.782-0.833C915.857,768.405,916.98,768.356,917.685,768.179z
			 M920.928,789.543c8.844-4.092,17.801-7.908,27.216-10.513c4.969-1.375,10.012-2.313,15.207-1.556
			c0.871,0.127,1.749,0.317,2.578,0.607c3.121,1.091,3.501,2.362,1.542,4.947c2.697-0.426,5.388-0.897,8.093-1.262
			c1.881-0.254,3.827-0.286,5.027,1.534c1.135,1.721,0.552,3.388-0.727,4.888c2.411,0.453,3.921-0.797,3.766-3.165
			c-0.523-7.944-1.092-15.885-1.689-23.824c-0.234-3.102,0.052-3.469,3.115-3.084c3.072,0.386,6.129,0.896,9.203,1.268
			c1.897,0.229,2.339,1.126,1.813,2.899c-0.655,2.203-1.007,4.498-1.692,6.69c-2.087,6.686-1.144,13.308,0.209,19.946
			c0.137,0.673,0.389,1.163,0.978,1.466c5.784,2.973,8.901,8.479,12.652,13.37c1.959,2.555,1.891,2.597,3.814,0.077
			c1.181-1.548,2.306-3.15,3.601-4.598c1.631-1.823,1.049-2.58-1.08-3.165c-4.266-1.173-8.491-2.495-12.72-3.8
			c-1.008-0.311-2.045-0.664-2.926-1.224c-2.181-1.386-2.225-3.964-0.107-5.825c1.891-1.661,4.23-2.114,6.67-2.201
			c5.902-0.21,11.348,1.732,16.733,3.743c2.332,0.871,3.809,0.618,5.525-1.295c4.258-4.748,8.974-9.044,14.066-12.91
			c1.57-1.191,2.619-1.456,4.432,0.198c3.139,2.863,5.332,6.148,6.548,10.102c5.234,17.018,8.185,34.41,8.34,52.244
			c0.017,1.957-0.146,3.897-0.674,5.784c-0.182,0.651-0.274,1.541-1.102,1.667c-0.86,0.131-1.186-0.721-1.448-1.322
			c-1.206-2.754-2.444-5.503-3.468-8.326c-2.479-6.836-4.231-13.885-5.745-20.985c-0.433-2.032-1.395-3.249-3.305-4.06
			c-6.353-2.697-12.587-5.669-19.1-7.999c-2.023-0.724-3.303-0.328-4.488,1.424c-1.883,2.785-3.857,5.516-5.934,8.16
			c-1.448,1.843-1.589,3.427-0.314,5.507c3.245,5.297,5.991,10.859,7.431,16.954c0.372,1.576,1.455,4.074,0.159,4.627
			c-1.402,0.598-2.231-1.984-3.151-3.266c-2.837-3.954-5.51-8.026-8.315-12.004c-1.697-2.407-1.904-2.366-3.259,0.176
			c-3.627,6.8-6.466,13.992-10.088,20.776c-2.021,3.786-2.136,7.521-1.9,11.511c0.512,8.655,0.98,17.313,1.431,25.971
			c0.248,4.771,0.479,9.545,0.611,14.321c0.058,2.109,1.249,3.625,2.249,5.286c0.543,0.903,1.023,1.865,1.375,2.856
			c0.239,0.674,0.251,1.651-0.895,1.315c-2.439-0.715-2.141,0.716-2.031,2.269c0.288,4.06,0.522,8.124,0.702,12.19
			c0.113,2.556-0.407,2.902-2.751,1.68c-7.573-3.948-5.912-1.592-6.857-10.207c-0.289-2.637-0.533-5.293-0.542-7.941
			c-0.007-2.193-0.968-3.347-2.912-4.195c-9.192-4.011-18.732-6.996-28.326-9.84c-2.884-0.855-5.756-1.758-8.607-2.716
			c-1.58-0.531-2.931-1.444-2.984-3.325c-0.05-1.788,1.061-2.958,2.501-3.796c2.986-1.738,6.246-1.887,9.537-1.339
			c9.629,1.603,18.521,5.264,27.07,9.859c0.67,0.36,1.341,1.256,2.115,0.761c0.879-0.561,0.366-1.623,0.304-2.463
			c-1.172-15.881-2.362-31.761-3.544-47.642c-0.558-7.499-1.043-15.004-1.683-22.496c-0.414-4.843,2.117-8.859,3.437-13.214
			c0.368-1.215,1.33-0.832,2.173-0.361c3.395,1.894,5.633,4.098,5.536,8.66c-0.152,7.107,0.643,14.234,1.232,21.402
			c2.628-5.44,5.514-10.681,8.719-15.742c0.858-1.354,0.214-2.364-0.749-3.268c-4.968-4.665-9.944-9.32-14.929-13.966
			c-1.756-1.637-1.983,0.045-2.375,1.164c-4.84,13.787-10.282,27.339-15.866,40.836c-2.436,5.889-4.956,11.743-7.446,17.61
			c-0.297,0.701-0.493,1.486-1.798,2.384c3.427-19.686,7.318-38.628,13.295-57.228c-12.891,14.102-27.789,26.121-39.676,41.459
			c-0.537-1.441,0.157-2.034,0.562-2.635c3.675-5.442,6.614-11.276,9.547-17.141c4.254-8.508,9.691-16.26,16.147-23.276
			c0.33-0.359,0.882-0.622,0.762-1.544c-10.97,5.773-19.856,14.141-29.322,22.193c0.266-6.387,19.018-28.067,31.193-36.573
			c-17.275,4.053-35.123,6.083-52.673,9.925C914.034,792.558,917.52,791.12,920.928,789.543z M899.22,832.763
			c0.27-0.425,0.777-0.323,1.201-0.183c0.418,0.138,0.833,0.299,1.227,0.493c7.488,3.682,14.505,8.086,20.539,13.895
			c4.791,4.612,7.896,10.135,8.42,16.955c-0.031,0.582-0.035,1.201-0.103,1.812c-0.089,0.802-0.228,1.667-1.089,1.974
			c-1.041,0.371-1.648-0.432-2.174-1.128c-1.98-2.623-3.39-5.591-4.842-8.506c-4.415-8.86-11.007-15.693-19.148-21.156
			c-1.316-0.883-2.709-1.683-3.712-2.957C899.269,833.621,898.95,833.188,899.22,832.763z M868.664,860.907
			c13.671-3.006,27.421-4.451,41.291-1.463c5.221,1.125,10.205,2.962,14.393,6.454c1.654,1.379,3.011,2.99,3.35,5.041
			c-0.086,2.059-1.183,2.94-2.913,2.935c-0.847-0.002-1.778-0.269-2.526-0.68c-10.376-5.693-21.862-7.389-33.295-9.185
			c-6.566-1.031-13.203-1.092-19.844-0.656c-1.229,0.081-3.234,0.524-3.44-0.955C865.499,861.112,867.54,861.154,868.664,860.907z
			 M861.382,886.904c12.071-5.739,24.113-11.572,37.106-15.004c4.793-1.266,9.676-2.223,14.69-1.342
			c0.868,0.153,1.747,0.33,2.568,0.638c2.965,1.111,3.273,2.314,1.31,4.855c3.074-0.334,6.057-1.307,9.188-1.27
			c3.871,0.046,5.163,1.742,3.997,5.354c-0.158,0.49-0.6,0.992,0.037,1.374c0.525,0.315,1.035-0.007,1.442-0.362
			c0.532-0.465,1.001-1.003,1.537-1.462c1.379-1.18,2.784-1.342,3.783,0.367c0.773,1.322,1.847,1.706,3.245,1.893
			c4.323,0.581,7.914,2.709,10.638,5.991c7.825,9.424,14.853,19.385,19.611,30.776c1.198,2.868,2.127,5.818,2.546,8.906
			c0.111,0.814,0.753,1.99-0.291,2.362c-0.965,0.344-1.361-0.928-1.831-1.603c-3.081-4.431-6.026-8.959-9.17-13.344
			c-6.656-9.283-15.328-16.621-23.671-24.272c-1.578-1.447-1.895-0.086-2.268,1.023c-3.16,9.398-6.778,18.623-10.522,27.798
			c-4.245,10.403-8.61,20.757-12.933,31.129c-0.233,0.559-0.563,1.077-1.131,1.552c0.087-4.792,1.248-9.418,2.136-14.071
			c0.912-4.778,1.933-9.538,3.036-14.276c1.082-4.652,2.243-9.289,3.522-13.891c1.292-4.649,2.771-9.246,3.877-14.077
			c-13.043,13.746-27.637,25.896-39.4,40.948c-0.595-0.837-0.31-1.231-0.069-1.571c5.254-7.395,8.604-15.846,13.139-23.637
			c3.57-6.134,7.766-11.83,12.582-17.059c0.511-0.555,1.217-1.02,1.34-2.174c-11.074,5.737-19.9,14.181-29.557,21.625
			c7.986-14.415,18.172-26.868,31.817-36.314c-17.43,4.739-35.525,6.027-52.852,10.752
			C860.293,887.237,860.977,887.096,861.382,886.904z M806.24,924.579c6.319-9.815,14.683-17.222,25.665-21.477
			c0.466-0.181,0.977-0.504,1.699,0.05c-7.346,6.989-15.244,13.478-19.498,23.155c2.58-1.275,5.143-2.407,7.774-3.382
			c0.529-0.196,0.915-0.575,1.106-1.118c1.311-3.732,3.99-6.393,6.995-8.748c8.273-6.485,17.479-11.428,26.866-16.054
			c0.658-0.324,1.655-1.069,2.11-0.382c0.508,0.767-0.669,1.22-1.201,1.691c-6.697,5.937-13.42,11.845-20.133,17.764
			c-0.586,0.516-1.173,1.036-1.704,1.606c-0.335,0.36-1.072,0.666-0.687,1.272c0.27,0.425,0.901,0.141,1.358,0.047
			c5.181-1.063,10.388-1.957,15.657-2.457c0.406-0.038,0.828-0.218,1.626,0.413c-6.456,3.425-13.26,5.416-20.133,8.573
			c9.307-0.93,17.889,0.498,26.455,2.055c3.367,0.612,6.71,1.354,10.056,2.071c0.638,0.137,1.28,0.366,1.85,0.68
			c0.574,0.316,0.601,0.783-0.12,0.967c-0.575,0.147-1.185,0.193-1.782,0.21c-11.106,0.325-22.212,0.642-33.3,1.399
			c-2.701,0.185-5.414,0.019-8.057-0.63c-2.213-0.543-2.594-1.395-1.604-3.825c-2.247,1.067-4.259,2.023-6.58,3.125
			c2.286,0.658,4.364,0.6,6.381,0.9c7.678,1.142,15.282,2.577,22.573,5.344c0.843,0.32,1.68,0.663,2.376,1.261
			c0.278,0.238,0.534,0.534,0.423,0.929c-0.113,0.398-0.479,0.511-0.852,0.536c-0.419,0.029-0.84,0.037-1.26,0.036
			c-11.776-0.005-23.553,0.001-35.329-0.034c-1.858-0.005-3.721-0.139-5.571-0.327c-3.43-0.349-4.769-2.144-4.143-5.553
			c0.156-0.851,0.221-1.638-0.03-2.473C804.419,929.516,804.739,926.91,806.24,924.579z M786.325,941.423
			c1.494-5.014,6.476-8.574,12.068-8.533c1.695-0.054,3.336,0.581,4.721,1.856c0.331,0.304,0.888,0.585,0.662,1.151
			c-0.187,0.466-0.723,0.299-1.122,0.349c-0.118,0.015-0.241,0.016-0.359,0.002c-5.923-0.674-10.269,2.029-13.865,6.411
			c-0.562,0.684-1.154,2.007-2.142,1.426C785.398,943.563,786.062,942.307,786.325,941.423z M738.406,915.422
			c0.176-0.303,0.515-0.235,0.805-0.148c0.229,0.069,0.454,0.157,0.669,0.26c5.601,2.706,10.812,6.002,15.106,10.547
			c2.744,2.904,4.435,6.376,4.627,10.455c0,0.36,0.025,0.721-0.006,1.078c-0.052,0.603-0.114,1.263-0.809,1.466
			c-0.716,0.21-1.138-0.359-1.44-0.847c-1.008-1.629-2.072-3.242-2.892-4.967c-3.051-6.419-7.728-11.351-13.601-15.233
			c-0.799-0.528-1.628-1.027-2.23-1.798C738.454,916.005,738.234,915.718,738.406,915.422z M716.693,934.695
			c6.023-1.51,12.144-2.246,19.354-2.248c4.038-0.192,8.948,0.506,13.687,2.227c2.673,0.971,5.188,2.262,7,4.561
			c0.794,1.007,1.571,2.174,0.495,3.395c-0.968,1.099-2.218,0.712-3.318,0.139c-7.871-4.096-16.46-5.418-25.106-6.477
			c-3.577-0.438-7.179-0.543-10.778-0.124c-0.413,0.048-0.843,0.025-1.257-0.029c-0.461-0.06-1.131-0.036-1.21-0.565
			C715.451,934.849,716.214,934.816,716.693,934.695z M718.895,949.201c6.005-2.778,12.086-5.369,18.479-7.138
			c3.374-0.933,6.797-1.571,10.325-1.057c0.591,0.086,1.187,0.215,1.75,0.412c2.119,0.741,2.377,1.604,1.047,3.359
			c1.831-0.289,3.658-0.609,5.495-0.857c1.277-0.172,2.599-0.195,3.413,1.041c0.77,1.169,0.375,2.3-0.494,3.319
			c1.637,0.308,2.663-0.541,2.557-2.149c-0.355-5.394-0.741-10.786-1.147-16.176c-0.159-2.106,0.035-2.355,2.115-2.094
			c2.086,0.262,4.161,0.609,6.248,0.861c1.288,0.156,1.589,0.765,1.231,1.968c-0.444,1.496-0.684,3.054-1.148,4.542
			c-1.417,4.54-0.777,9.035,0.142,13.542c0.093,0.457,0.264,0.79,0.664,0.995c3.927,2.019,6.043,5.757,8.59,9.078
			c1.33,1.734,1.284,1.763,2.59,0.052c0.802-1.051,1.566-2.138,2.445-3.122c1.107-1.238,0.712-1.752-0.733-2.149
			c-2.896-0.796-5.765-1.694-8.636-2.58c-0.684-0.211-1.389-0.451-1.987-0.831c-1.481-0.941-1.511-2.691-0.073-3.955
			c1.284-1.128,2.872-1.435,4.529-1.494c4.007-0.143,7.705,1.176,11.361,2.541c1.583,0.591,2.586,0.42,3.751-0.879
			c2.891-3.224,6.093-6.141,9.55-8.765c1.066-0.809,1.778-0.988,3.009,0.134c2.131,1.944,3.62,4.174,4.446,6.859
			c3.554,11.555,5.557,23.363,5.662,35.471c0.011,1.329-0.099,2.646-0.458,3.927c-0.124,0.442-0.186,1.046-0.748,1.132
			c-0.584,0.089-0.805-0.49-0.984-0.897c-0.819-1.87-1.659-3.736-2.354-5.653c-1.683-4.641-2.873-9.427-3.901-14.248
			c-0.294-1.379-0.947-2.206-2.244-2.756c-4.314-1.831-8.546-3.849-12.968-5.431c-1.374-0.491-2.242-0.223-3.047,0.967
			c-1.279,1.891-2.619,3.745-4.029,5.54c-0.983,1.251-1.079,2.327-0.214,3.739c2.203,3.596,4.068,7.373,5.045,11.511
			c0.253,1.07,0.988,2.766,0.108,3.142c-0.952,0.406-1.515-1.347-2.139-2.218c-1.926-2.685-3.741-5.45-5.645-8.151
			c-1.152-1.635-1.293-1.606-2.213,0.119c-2.462,4.617-4.39,9.5-6.849,14.106c-1.372,2.57-1.45,5.106-1.29,7.816
			c0.348,5.876,0.665,11.755,0.971,17.633c0.169,3.24,0.325,6.481,0.415,9.723c0.04,1.432,0.848,2.461,1.527,3.589
			c0.369,0.613,0.694,1.266,0.933,1.939c0.162,0.457,0.17,1.121-0.608,0.893c-1.656-0.486-1.454,0.486-1.379,1.541
			c0.195,2.756,0.355,5.516,0.477,8.276c0.077,1.735-0.276,1.971-1.868,1.141c-5.142-2.681-4.014-1.081-4.656-6.93
			c-0.196-1.79-0.362-3.594-0.368-5.392c-0.005-1.489-0.658-2.272-1.977-2.848c-6.241-2.724-12.718-4.75-19.232-6.681
			c-1.958-0.581-3.908-1.193-5.844-1.844c-1.073-0.36-1.99-0.98-2.026-2.257c-0.034-1.214,0.72-2.008,1.698-2.577
			c2.028-1.18,4.241-1.281,6.475-0.909c6.538,1.088,12.575,3.574,18.379,6.694c0.455,0.245,0.91,0.853,1.436,0.517
			c0.597-0.381,0.248-1.102,0.206-1.672c-0.796-10.783-1.603-21.564-2.406-32.347c-0.379-5.091-0.708-10.187-1.143-15.274
			c-0.281-3.288,1.437-6.015,2.334-8.972c0.25-0.825,0.902-0.565,1.475-0.245c2.305,1.286,3.825,2.783,3.758,5.88
			c-0.103,4.826,0.437,9.664,0.836,14.531c1.785-3.694,3.744-7.252,5.92-10.688c0.582-0.92,0.145-1.605-0.509-2.219
			c-3.373-3.167-6.751-6.328-10.136-9.483c-1.192-1.111-1.346,0.031-1.613,0.79c-3.286,9.36-6.982,18.562-10.772,27.726
			c-1.654,3.998-3.365,7.973-5.055,11.956c-0.202,0.476-0.335,1.009-1.221,1.619c2.327-13.366,4.969-26.227,9.027-38.855
			c-8.752,9.575-18.867,17.735-26.938,28.149c-0.365-0.978,0.106-1.381,0.381-1.789c2.495-3.695,4.491-7.656,6.482-11.638
			c2.888-5.777,6.58-11.04,10.963-15.804c0.224-0.244,0.599-0.422,0.517-1.049c-7.448,3.919-13.481,9.601-19.909,15.068
			c0.181-4.336,12.913-19.057,21.179-24.831c-11.729,2.752-23.847,4.13-35.763,6.738
			C714.214,951.247,716.58,950.271,718.895,949.201z M704.156,978.545c0.183-0.289,0.528-0.22,0.815-0.125
			c0.284,0.094,0.565,0.203,0.833,0.335c5.084,2.5,9.848,5.49,13.945,9.434c3.253,3.132,5.361,6.881,5.717,11.511
			c-0.021,0.395-0.023,0.815-0.07,1.231c-0.061,0.544-0.155,1.132-0.74,1.34c-0.707,0.252-1.119-0.293-1.476-0.766
			c-1.344-1.781-2.302-3.796-3.288-5.775c-2.997-6.015-7.474-10.655-13-14.364c-0.894-0.6-1.839-1.143-2.521-2.008
			C704.189,979.127,703.972,978.834,704.156,978.545z M683.409,997.654c9.282-2.041,18.618-3.022,28.035-0.993
			c3.545,0.764,6.928,2.011,9.772,4.382c1.123,0.937,2.044,2.03,2.274,3.423c-0.058,1.398-0.803,1.996-1.978,1.993
			c-0.575-0.001-1.207-0.183-1.715-0.461c-7.045-3.865-14.843-5.017-22.606-6.236c-4.458-0.7-8.964-0.742-13.473-0.445
			c-0.834,0.055-2.196,0.356-2.336-0.648C681.261,997.793,682.646,997.822,683.409,997.654z M412.006,857.423
			c0.798-0.444,1.566-0.964,2.407-1.301c0.71-0.285,1.641-0.971,2.224-0.014c0.46,0.755-0.329,1.347-0.855,1.873
			c-8.124,8.142-17.618,14.031-28.621,17.458c-5.226,1.628-10.429,3.333-15.927,3.745c-2.247,0.187-4.313-0.275-6.183-1.535
			c-1.889-1.273-2.02-2.704-0.347-4.267c1.309-1.224,3.01-1.723,4.626-2.358c5.289-2.077,10.967-2.503,16.451-3.74
			C395.007,865.204,403.753,862.012,412.006,857.423z" fill="#B73F3D"></path>
		<path style="" d="M371.798,932.456c2.406-1.627,3.96-0.871,4.698,2.003c0.585,2.276,0.258,4.605-0.73,6.559
			c-1.261,2.495-0.575,4.484,0.641,6.543c1.316,2.227,2.837,4.273,4.999,5.808c1.279,0.907,2.536,1.92,3.557,3.099
			c1.638,1.891,0.993,3.644-1.46,4.139c-3.596,0.725-6.89,0.404-9.523-2.656c-1.419-1.649-3.586-1.285-4.106,0.679
			c-1.027,3.881-1.798,7.865,0.69,11.539c3.398,5.018,6.914,9.957,9.994,15.182c0.766,1.299,1.316,0.846,1.982-0.068
			c1.365-1.873,1.883-4.037,2.289-6.257c0.552-3.015,0.688-6.092,1.493-9.074c1.49-5.516,2.92-11.053,3.361-16.78
			c0.771-10.005,0.969-20.058,2.539-29.997c0.466-2.949,0.199-3.236-2.769-2.622c-4.491,0.929-9.033,1.269-13.599,1.378
			c-1.412,0-2.831-0.089-4.234,0.02c-2.418,0.188-3.116,1.187-2.874,3.55c0.203,1.988,1.137,3.84,1.035,5.872
			C369.694,933.178,370.086,933.614,371.798,932.456z" fill="#B73F3D"></path>
		<path style="" d="M385.173,988.518c-0.721,0.761-0.812,1.583-0.462,2.516c1.288,3.436,2.966,6.643,5.447,9.39
			c1.299,1.438,2.211,1.23,2.768-0.605c1.299-4.283,2.386-8.605,2.279-12.633c0-1.826,0.013-3.151-0.005-4.476
			c-0.011-0.854-0.155-1.678-1.034-2.1c-1.054-0.507-1.736,0.176-2.367,0.843C389.579,983.798,387.394,986.175,385.173,988.518z" fill="#B73F3D"></path>
		<path style="" d="M305.881,907.052c3.419,4.486,2.611,9.226,0.983,13.995c-1.045,3.064-2.251,6.083-4.058,8.806
			c-0.833,1.254-0.837,2.405,0.042,3.676c2.729,3.949,3.863,8.445,4.034,13.155c0.076,2.108,0.925,2.816,2.872,2.679
			c0.573-0.04,1.16,0.065,1.735,0.141c3.258,0.433,3.838-0.001,3.292-3.181c-2.136-12.447-3.055-25.03-4.266-37.577
			c-0.893-9.246-1.388-18.529-2.179-27.786c-0.325-3.801-1.095-7.56-0.993-11.403c0.035-1.315-0.642-2.063-1.954-2.507
			c-8.109-2.744-15.332-7.118-22.126-12.249c-0.683-0.516-1.857-0.962-1.209-2.09c0.559-0.972,1.645-0.587,2.503-0.331
			c4.465,1.331,8.506,3.766,13.012,5.005c2.083,0.573,4.128,1.229,6.329,1.252c1.613,0.017,2.461-0.487,2.501-2.259
			c0.077-3.4-0.153-6.81,0.352-10.203c0.177-1.188-0.538-2.219-1.093-3.252c-8.521-15.885-17.038-31.771-25.526-47.674
			c-0.67-1.256-1.25-2.559-1.872-3.841c-0.005,15.459-0.017,30.919,0.006,46.378c0.014,9.254-0.231,18.538,0.021,27.767
			c8.673,11.884,16.992,24.009,24.636,36.594C303.917,903.781,304.732,905.543,305.881,907.052z" fill="#B73F3D"></path>
		<path style="" d="M503.659,926.607c1.549-0.496,2.59,0.97,3.924,0.927c2.154-0.069,1.838,0.799,0.959,2.043
			c-0.37,0.523-1.068,0.825-1.101,1.972c1.49-0.343,2.865-0.577,3.545-1.845c1.449-2.704,3.661-5.154,4.581-7.925
			c3.386-10.199,7.558-20.254,7.828-31.25c0.022-0.908,0.228-1.819,0.186-2.72c-0.034-0.723-0.153-1.615-1.009-1.841
			c-0.963-0.254-1.243,0.627-1.564,1.28c-1.098,2.235-2.2,4.47-3.244,6.73c-3.8,8.221-8.465,15.985-12.624,24.015
			c-0.472,0.911-1.709,2.272-0.437,3.024c1.013,0.598,1.284-1.148,1.885-1.853c0.161-0.189,0.297-0.409,0.488-0.56
			c0.89-0.704,1.603-0.579,1.745,0.609c0.237,1.967-0.289,3.796-1.401,5.428c-0.871,1.279-2.017,1.231-3.288,0.61
			c-0.394-0.192-0.848-0.058-0.988,0.446C503.017,926.149,503.259,926.734,503.659,926.607z" fill="#B73F3D"></path>
		<path style="" d="M533.599,925.173c0.539-0.362,1.011-0.864,1.413-1.381c1.901-2.439,4.16-4.511,6.488-6.527
			c7.836-6.785,16.773-11.92,25.659-17.126c1.064-0.623,1.894-1.28,2.276-2.473c1.132-3.54,3.335-6.484,5.395-9.494
			c3.597-5.253,8.427-9.381,12.83-13.898c0.743-0.763,1.847-1.4,1.828-2.573c-0.059-3.739,0.356-7.37,2.449-10.889
			c-1.726,0.057-3.048,0.125-3.423,1.436c-1.099,3.84-4.04,5.966-7.098,8.016c-3.204,2.148-5.188,1.489-6.251-2.321
			c-1.075-3.853-1.609-7.869-1.32-11.837c0.976-13.385,0.187-26.733-0.724-40.065c-0.317-4.637,0.052-9.429-1.732-14.033
			c-0.211,0.273-0.412,0.435-0.485,0.641c-3.949,11.108-7.87,22.226-11.851,33.322c-0.42,1.171-0.364,2.139-0.024,3.334
			c1.298,4.562,3.502,7.922,8.79,8.338c1.999,0.157,3.28,1.643,3.429,3.716c0.14,1.963-1.241,2.995-2.814,3.708
			c-2.304,1.043-4.799,1.425-7.284,1.441c-3.262,0.02-4.723-1.251-5.83-4.416c-0.268-0.767-0.224-1.743-1.13-2.38
			c-1.203,2.706-1.708,5.411-2.196,8.083c-0.352,1.925-0.723,4.223,1.055,5.627c4.639,3.662,2.712,8.216,1.963,12.61
			c-0.241,1.409-1.406,1.937-2.775,2.07c-1.615,0.157-3.224,0.387-4.835,0.586c-0.011,0.215-0.021,0.429-0.032,0.644
			c0.988,0.579,2.002,1.121,2.958,1.749c0.94,0.618,1.724,1.424,1.365,2.675c-0.353,1.23-1.476,1.147-2.465,1.232
			c-7.495,0.643-9.096,1.829-10.96,9.019c-2.54,9.796-4.884,19.642-7.291,29.473c-0.169,0.688-0.671,1.582,0.066,2.089
			C531.878,926.144,532.834,925.687,533.599,925.173z" fill="#B73F3D"></path>
		<path style="" d="M406.202,1035.696c2.703,6.932,2.791,14.434,3.002,21.828c0.078,2.726,0.393,5.445,0.649,8.806
			c0.706-1.027,1.001-1.42,1.257-1.836c0.654-1.065,1.253-2.424,2.818-1.756c1.379,0.589,1.32,2.016,1.173,3.263
			c-0.255,2.16-1.418,3.861-2.946,5.348c-2.247,2.189-2.956,4.69-1.683,7.689c0.786,1.852,1.101,3.828,0.865,5.847
			c-1.541,13.173-2.62,26.405-4.949,39.48c-0.086,0.481-0.393,1.162,0.617,1.46c0.468-0.955,0.963-1.9,1.404-2.87
			c6.331-13.945,10.749-28.59,15.696-43.038c7.045-20.572,14.142-41.132,20.073-62.066c1.85-6.53,4.152-12.982,3.352-19.965
			c-0.288-2.514,0.096-4.681,3.245-5.231c-1.803-0.46-3.656-0.783-5.398-1.413c-2.562-0.927-2.854-2.285-0.918-4.194
			c2.167-2.137,3.731-4.651,5.111-7.319c6.716-12.976,9.909-27.055,12.893-41.195c1.732-8.207,2.534-16.577,4.108-24.798
			c1.34-7-0.263-12.934-4.393-18.462c-0.582-0.779-1.088-1.06-2.076-0.664c-6.32,2.528-12.782,4.733-18.976,7.536
			c-12.642,5.721-25.283,11.405-38.646,15.276c-1.174,0.34-1.632,0.867-1.495,2.113c0.848,7.665,1.493,15.358,3.119,22.915
			c1.255,5.831,2.693,11.628,3.113,17.605c0.135,1.922,1.096,1.455,2.146,0.777c13.8-8.901,26.689-18.9,37.704-31.172
			c0.938-1.044,1.672-2.294,2.92-3.043c0.432-0.259,0.877-0.531,1.39-0.253c0.609,0.33,0.699,0.931,0.579,1.513
			c-0.116,0.559-0.374,1.091-0.586,1.628c-3.895,9.9-9.248,18.876-16.34,26.868c-8.906,10.036-19.387,17.847-31.573,23.408
			c-0.754,0.344-1.556,0.619-2.241,1.07c-0.913,0.602-1.464,3.875-0.718,4.586c1.17,1.116,1.919-0.298,2.757-0.724
			c4.196-2.13,8.201-4.723,12.554-6.438c4.898-1.93,10.281-1.666,15.482-1.921c5.438-0.266,10.75-0.842,15.754-3.173
			c0.733-0.341,1.593-0.51,2.406-0.556c1.523-0.087,1.78,0.746,1,1.868c-0.92,1.323-2.32,2.109-3.687,2.911
			c-6.615,3.882-13.797,6.132-21.342,7.194c-3.47,0.489-6.996,0.434-10.238-1.221c-1.486-0.758-2.833-0.604-4.296-0.009
			c-3.412,1.388-6.473,3.372-9.509,5.414c-1.053,0.708-1.522,1.654-1.617,2.915c-0.337,4.449-1.638,8.621-3.793,12.526
			c-0.627,1.136-0.948,2.24-0.346,3.541C399.811,1016.821,402.584,1026.417,406.202,1035.696z" fill="#B73F3D"></path>
		<path style="" d="M329.102,942.464c-1.404,0.715-1.254,1.88-0.302,2.875c0.677,0.707,1.481,1.37,2.353,1.802
			c5.618,2.789,11.27,5.509,17.023,8.306c-0.233-1.016-1.018-1.412-1.546-2.001c-1.77-1.975-3.583-3.912-5.352-5.887
			c-0.546-0.609-1.321-1.386-0.652-2.163c0.83-0.964,1.633,0.018,2.374,0.455c0.354,0.209,0.646,0.519,0.977,0.769
			c0.629,0.475,1.207,0.558,1.627-0.264c0.286-0.56,0.4-1.477,1.307-1.097c0.839,0.352,0.666,1.246,0.6,1.984
			c-0.127,1.419-0.251,2.826,0.765,4.029c0.311,0.369,0.505,0.962,1.087,0.875c0.593-0.089,0.703-0.716,0.731-1.171
			c0.166-2.679,0.906-5.415-1.421-7.726c-1.118-1.11-1.654-2.8-1.717-4.334c-0.171-4.132-0.993-8.248-0.42-12.408
			c0.093-0.678,0.475-1.459-0.289-2.025c-0.121,0.04-0.226,0.042-0.271,0.095c-0.214,0.248-0.427,0.5-0.615,0.769
			C340.803,931.872,336.55,938.673,329.102,942.464z" fill="#B73F3D"></path>
		<path style="" d="M456.297,989.811c3.255-4.278,6.465-7.949,8.708-12.326c0.186-0.363,0.371-0.784,0.367-1.176
			c-0.037-4.223,2.376-7.306,4.75-10.432c4.551-5.992,10.203-10.885,15.747-15.889c1.167-1.053,2.891-1.9,3.231-3.371
			c1.106-4.783,4.375-8.143,7.279-11.718c1.354-1.667,1.794-3.33,1.39-5.283c-0.704-3.408-1.416-6.818-2.292-10.184
			c-0.899-3.458-1.76-3.723-4.838-1.808c-0.352,0.219-0.686,0.467-1.031,0.698c-3.93,2.626-5.866,1.723-6.689-3.071
			c-0.798-4.654-1.733-9.287-2.445-13.954c-1.038-6.799-2.395-13.542-3.212-20.385c-0.45-3.769-0.842-7.527-1.05-11.354
			c-0.743,2.52-2.377,4.799-2.079,7.51c0.546,4.974,0.195,9.958,0.388,14.932c0.094,2.421,0.348,4.84,1.789,6.892
			c2.426,3.455,1.746,6.716-0.472,9.916c-0.471,0.678-1.117,1.252-1.241,2.122c-0.68,4.755-1.632,9.492-1.965,14.272
			c-0.668,9.575-2.765,18.889-5.031,28.136c-2.684,10.956-6.226,21.678-10.791,32.032
			C456.295,986.537,455.659,987.777,456.297,989.811z" fill="#B73F3D"></path>
		<path style="" d="M356.403,959.78c1.101,0.803,1.803,2.149,2.697,3.239c1.78,2.17,3.056,2.007,4.042-0.667
			c1.654-4.487,2.328-9.146,2.147-13.933c-0.043-1.135-0.449-1.83-1.575-2.218c-1.236-0.426-2.155-1.314-2.384-2.657
			c-0.582-3.409-2.044-6.459-3.674-9.457c-0.463-0.852-1.2-1.903-0.241-2.719c1.079-0.919,2.021,0.094,2.826,0.746
			c1.966,1.592,3.874,3.257,6.337,5.342c-0.546-3.726,0.057-6.863-0.779-9.937c-0.236-0.869-0.42-2.087-1.694-1.54
			c-2.355,1.01-4.746,2.046-6.869,3.453c-1.566,1.037-1.191,3.143-1.563,4.821c-0.303,1.372-0.58,2.848-1.302,4.008
			c-1.799,2.888-1.584,6.018-1.549,9.161c0.012,1.079,0.126,2.172-0.005,3.235C352.357,954.369,353.214,957.452,356.403,959.78z" fill="#B73F3D"></path>
		<path style="" d="M794.4,950.082c3.244,1.56,6.23,3.529,8.939,5.786c0.485-0.327,0.446-0.646,0.397-0.927
			c-0.745-4.318-1.449-8.639-1.719-13.022c-0.091-1.49-0.914-0.697-1.42-0.285c-2.437,1.983-4.402,4.416-6.379,6.832
			C793.746,949.042,793.529,949.663,794.4,950.082z" fill="#B73F3D"></path>
		<path style="" d="M326.626,925.72c0.283-0.002,0.567-0.004,0.851-0.006c0.421-0.762,0.868-1.511,1.259-2.288
			c3.098-6.149,5.97-12.423,9.345-18.415c2.609-4.633,2.224-8.755-0.465-13.069c-7.988-12.812-15.907-25.667-23.87-38.495
			c-0.378-0.609-0.641-1.413-1.748-1.5C323.989,875.12,328.57,899.751,326.626,925.72z" fill="#B73F3D"></path>
		<path style="" d="M361.751,893.471c1.542,0.205,0.969-1.397,0.947-2.226c-0.057-2.159-0.69-4.196-2.174-6.102
			c-0.469,1.909-1.01,3.803-1.388,5.73C358.738,892.904,360.601,893.319,361.751,893.471z" fill="#B73F3D"></path>
		<path style="" d="M357.82,912.011c1.286,0.533,2.59-1.875,3.748-3.098c2.75-2.905,1.418-8.942-2.174-10.57
			c-1.126-0.511-1.56-0.228-1.569,0.913c-0.019,2.655-0.746,5.26-0.544,7.932C357.532,908.863,356.447,911.442,357.82,912.011z" fill="#B73F3D"></path>
		<path style="" d="M297.832,945.851c0.305,1.029,0.817,1.965,2.012,1.796c1.403-0.199,1.034-1.468,1.096-2.402
			c0.204-3.073-1.053-5.826-1.95-8.653c-1.538-4.848-3.036-9.713-5.329-14.315c0.48,3.076,0.869,6.17,1.459,9.224
			C296.045,936.281,296.441,941.161,297.832,945.851z" fill="#B73F3D"></path>
		<path style="" d="M435.413,1164.139c0.518-0.353,1.008-0.687,1.523-1.037c-0.416-0.106-0.833-0.206-1.253-0.3
			C435.564,1163.224,435.459,1163.659,435.413,1164.139z" fill="#B73F3D"></path>
		<path style="" d="M240.888,956.287c1.508-1.298,1.8-2.078-0.38-3.073c-8.547-3.905-17.346-7.145-26.18-10.313
			c-7.944-2.848-15.871-5.744-23.8-8.633c-0.007,18.509,0.004,37.018,0.074,55.527c14.314-9.015,28.651-17.994,42.616-27.55
			C235.897,960.413,238.429,958.403,240.888,956.287z" fill="#B73F3D"></path>
		<path style="" d="M237.828,938.921c2.039-0.042,4.053-0.247,6.057-0.533c-0.09-3.318-0.1-6.571-1.092-9.488
			c-0.242-0.711-0.436-1.407-0.651-2.108c-8.445-13.596-16.541-27.404-24.929-41.034c-1.523-2.475-3.205-4.852-4.431-7.5
			c-0.344-0.742-0.877-1.606,0.035-2.234c0.773-0.533,1.471,0.149,1.972,0.634c3.941,3.812,7.861,7.645,11.745,11.516
			c4.645,4.63,9.281,9.269,13.917,13.909c0.164-0.948,0.328-1.896,0.543-2.863c2.26-10.167-1.678-20.381-0.403-31.199
			c2.125-18.03-0.523-36.514,0.393-54.914c0.883-17.742-2.273-35.413-6.927-52.727c-4.256-15.834-7.437-31.767,0.989-47.526
			c5.496-10.278,5.549-21.609,4.551-32.821c-0.59-6.631,0.044-13.392-0.625-19.733c-1.399-13.262,2.169-27.356-5.955-39.814
			c-3.033-4.651-2.501-10.362-0.275-15.748c3.247-7.854,2.152-15.902,0.942-24.057c-2.433-16.382-8.793-33.996,11.786-44.373
			c0.677-0.341,1.353-1.48,1.354-2.248c0.011-13.363,8.397-24.545,8.026-38.585c-1.338-50.691,1.227-101.478-3.968-152.08
			c-0.369-3.599-1.065-7.171-1.74-10.731c-2.415-12.726-7.768-25.757,4.153-36.898c0.572-0.535,0.759-1.683,0.795-2.56
			c0.649-15.785,9.388-27.337,19.243-38.695c11.917-13.734,8.933-26.701-7.538-33.638c-10.681-4.497-22.65-4.737-33.052,6.299
			c-4.772,5.063-4.041,10.92-6.258,16.233c-7.951,19.053-21.005,36.579-17.797,59.018c0.116,0.81-0.493,1.719-0.746,2.587
			c-6.07,20.774-6.146,41.595-0.147,62.365c1.136,3.932,1.516,7.545,0.301,11.503c-4.201,13.681-5.907,27.607-3.62,41.878
			c2.558,15.964-1.591,32.116-6.513,46.007c-4.972,14.033-5.416,26.971-5.101,40.799c0.068,2.992-0.021,6.018,1.723,8.77
			c7.376,11.636,5.799,25.16,6.646,37.795c1.239,18.496-7.482,37.348,2.172,55.746c1.582,3.014,1.628,7.088,1.568,10.658
			c-0.141,8.443-1.255,16.885-1.107,25.313c0.324,18.383,2.564,36.7,1.562,55.15c-0.442,8.134,0.302,16.325,0.25,24.489
			c-0.028,4.346,3.457,7.68,2.81,12.222c-2.488,17.451-5.209,34.887-5.188,52.592c0.004,3.294,0.564,6.934-2.26,9.397
			c-4.728,4.124-4.504,9.513-4.639,15.016c-0.236,9.663,1.861,19.653-1.024,28.916c-3.566,11.451-4.969,22.881-4.916,34.766
			c0.077,17.208,0.069,34.417,0.063,51.625c5.99,1.258,11.947,2.674,17.954,3.846C218.221,935.767,227.711,939.131,237.828,938.921z
			" fill="#B73F3D"></path>
		<path style="" d="M1225.507,938.863c7.102-25.979,11.184-53.42,7.85-80.696c-1.576-12.893,1.457-26.68-4.605-38.607
			c-7.397-14.553-9.438-29.541-9.124-45.553c0.541-27.544,0.21-55.106,0.11-82.66c-0.023-6.459,1.359-12.517,3.208-18.668
			c4.054-13.486,7.72-26.994,7.368-41.422c-0.307-12.567,3.211-25.962,1.545-37.532c-2.761-19.168-1.613-38.414-4.094-57.58
			c-2.98-23.012-4.056-47.284,3.858-70.358c0.345-1.004,0.185-2.627-0.428-3.446c-6.935-9.268-4.28-19.623-3.648-29.784
			c0.205-3.3,0.788-6.922-0.245-9.896c-5.118-14.733,1.155-29.376-0.074-44.04c-0.113-1.352,0.692-3.033,1.57-4.177
			c7.827-10.199,4.83-20.366,1.772-31.568c-3.016-11.045-5.272-22.558-4.853-34.428c0.459-13.004,5.958-25.031,5.601-38.304
			c-0.283-10.509-5.902-18.891-7.772-28.565c-3.632-18.792-12.4-33.004-32.495-37.598c-2.257-0.516-4.485-1.842-6.35-3.28
			c-10.294-7.937-16.678-8.3-27.592-1.869c-2.447,1.442-5.808,4.264-8.29,2.286c-7.48-5.961-11.992-0.647-17.443,3.22
			c-3.214,2.281-7.313,7.049-11.085,3.868c-10.795-9.107-23.806-8.609-36.423-10.193c-2.776-0.349-5.72-0.844-7.411-3.009
			c-6.514-8.344-15.054-7.265-23.997-6.103c-6.724,0.874-14.987,3.288-20.031,0.474c-7.054-3.936-13.655-4.008-20.761-4.056
			c-17.219-0.115-34.439,0.013-51.658-0.083c-3.292-0.018-6.651-0.297-9.859-1.004c-10.35-2.281-19.498-5.711-31.528-3.607
			c-16.533,2.892-33.65,6.068-51.038,4.904c-16.848-1.128-33.831-0.195-50.754-0.27c-7.874-0.035-15.361,0.153-22.756,4.31
			c-4.608,2.591-10.452,3.014-16.511,2.604c-6.665-0.45-15.217-6.643-20.805,3.321c-0.674,1.202-4.888,1.458-6.901,0.689
			c-8.328-3.184-16.098-4.133-23.957,1.536c-1.931,1.393-5.312,0.179-7.783-1.255c-3.912-2.271-8.235-2.438-12.349-1.328
			c-7.75,2.091-15.019-0.071-22.243-2.06c-3.275-0.902-6.283-1.683-9.714-1.144c-14.916,2.345-30.427-2.35-45.055,3.766
			c-0.762,0.318-1.8,0.073-2.694-0.039c-9.167-1.141-17.603,1.259-26.407,3.778c-10.262,2.936-21.005,7.628-32.115,1.779
			c-3.683-1.939-5.598-6.53-10.554-6.494c-25.12,0.181-50.311-0.827-75.333,0.797c-15.268,0.991-30.366,0.973-45.099-1.765
			c-16.323-3.033-32.106-4.059-48.257,0.185c-5.428,1.426-11.257,1.855-16.9,1.84c-15.447-0.039-31.797-9.261-45.766,4.844
			c-0.375,0.378-1.136,0.565-1.7,0.535c-10.976-0.585-19.707,1.819-28.237,10.639c-7.77,8.033-9.839,8.286-1.671,16.744
			c2.831,2.931,6.426,4.459,9.946,6.2c16.805,8.314,34.806,10.764,53.284,10.928c3.986,0.035,7.583-1.391,11.368-2.331
			c13.593-3.379,24.626-10.81,34.869-19.847c2.879-2.54,6.225-2.6,9.306-0.808c10.586,6.156,22.35,8.376,34.105,10.774
			c4.662,0.951,8.934,3.496,14.084,1.647c17.71-6.359,35.121-9.411,50.295,6.052c0.721,0.735,2.264,0.658,3.422,0.969
			c15.938,4.288,32.233,3.695,48.493,3.512c2.698-0.031,7.163,0.504,7.54-1.713c2.112-12.426,8.386-5.86,14.088-3.794
			c2.161,0.783,4.798,0.313,7.218,0.315c19.682,0.015,39.364,0.12,59.044-0.045c9.575-0.08,19.343,0.852,27.799-5.745
			c2.081-1.624,5.777-1.594,8.735-1.61c22.406-0.123,44.813-0.038,67.22-0.095c4.425-0.011,7.787,1.347,11.323,4.424
			c9.189,7.995,19.232,13.201,32.568,11.95c23.107-2.168,46.347,0.288,69.68-1.861c13.789-1.27,28.505,2.555,43.003,3.235
			c27.854,1.307,55.664,0.145,83.482,0.772c6.07,0.137,10.276-2.075,9.322-9.012c-0.551-4.009,1.018-5.552,4.716-5.993
			c13.727-1.637,27.441-3.392,41.168-5.029c2.841-0.339,5.393-0.223,5.906,3.72c0.946,7.276,5.66,7.079,11.447,5.908
			c9.322-1.888,27.09,4.9,29.361,11.871c2.209,6.785,6.202,9.014,12.646,9.211c4.09,0.124,7.51,2.551,10.564,4.905
			c5.933,4.574,12.719,5.369,19.686,5.073c3.246-0.138,5.987-0.492,7.735,2.873c3.626,6.981,7.497,13.843,10.905,20.928
			c2.617,5.44,1.285,11.183-4.241,12.872c-6.082,1.859-5.686,4.963-4.852,9.465c2.052,11.075,0.433,21.692-4.479,31.792
			c-1.209,2.486-2.36,4.948-2.153,7.766c0.263,3.576-0.203,7.629,3.182,9.97c3.697,2.557,5.649-2.366,9.599-2.883
			c2.229,26.248-2.879,51.176-5.889,76.273c-1.29,10.756-3.307,21.634-1.272,32.396c3.15,16.656,6.65,33.174,2.805,50.199
			c-0.372,1.647-0.468,4.012,0.43,5.186c7.983,10.442,4.843,22.139,2.912,33.059c-2.699,15.27-1.48,28.803,8.076,41.696
			c5.7,7.691,13.964,15.408,10.986,26.438c-2.979,11.038-1.837,23.009-7.5,33.329c-4.246,7.738-5.684,15.454-3.89,24.353
			c0.795,3.943-1.001,8.871-4.104,12.624c-1.689,2.042-3.397,4.522-3.877,7.036c-2.677,14.037-2.783,28.146-1.5,42.42
			c2.038,22.686,9.204,44.687,8.625,67.708c-0.289,11.499-0.159,23.011-0.059,34.517c0.075,8.667-0.29,17.832-2.179,25.721
			c-4.21,17.574-4.128,34.526-0.723,51.894c0.511,2.609,1.007,5.9-0.104,8.034c-5.364,10.3-3.802,21.832-3.284,32.064
			c1.101,21.769-10.779,42.165-5.277,64.018c0.259,1.028-0.416,2.374-0.871,3.484c-2.135,5.206-1.138,9.749,1.709,14.601
			c6.69,11.402,7.845,23.386,1.692,35.49c-2.36,4.644-2.061,9.237-1.039,14.119c4.621,22.085-1.982,36.745-21.308,47.936
			c-2.07,1.199-4.771,2.27-5.782,4.151c-3.021,5.62-7.877,5.636-13.181,5.831c-8.715,0.32-17.658-1.743-26.111,1.501
			c-11.21,4.301-23.296,3.963-34.867,6.827c-9.627,2.382-20.169,5.615-30.824,2.739c-0.108,0.53-0.223,1.058-0.33,1.587
			c-1.028,5.069,0.351,10.215,0.701,15.316c0.484,7.06,1.252,14.1,1.797,21.156c0.249,3.222-0.881,6.286-1.457,9.409
			c-0.263,1.423-1.422,1.667-2.604,1.815c-2.546,0.32-5.099,0.585-7.637,0.958c-1.902,0.28-2.559-0.436-2.416-2.338
			c0.375-4.969,1.427-9.803,2.7-14.598c0.418-1.576,0.548-3.092,0.052-4.689c-2.941-9.467-4.15-19.23-5.163-29.017
			c-3.688,1.082-7.37,2.555-11.175,2.89c-7.419,0.653-14.731-0.518-22.035-1.024c-0.023,0.104-0.04,0.208-0.064,0.312
			c-0.618,2.769-1.341,5.507-2.439,8.127c-0.359,0.857-0.474,2.184-1.638,2.17c-1.222-0.016-1.553-1.309-1.935-2.276
			c-1.079-2.732-1.555-5.598-1.874-8.481c-1.681,0.07-3.364,0.201-5.049,0.469c-15.391,2.438-30.666,5.655-46.182,0.057
			c-3.788-1.366-8.53-0.932-12.504,0.817c-5.189,2.284-10.57,2.213-16.028,2.333c-21.451,0.472-42.975-1.524-64.341,1.794
			c-9.27,1.44-18.495,1.902-27.775,1.281c-2.143,10.109-4.295,20.218-6.348,30.346c-0.698,3.442,0.238,6.935,0.476,10.399
			c0.329,4.793,0.85,9.573,1.22,14.364c0.169,2.188-0.598,4.268-0.989,6.388c-0.178,0.966-0.966,1.132-1.768,1.233
			c-1.728,0.217-3.462,0.397-5.185,0.65c-1.291,0.19-1.738-0.296-1.64-1.587c0.254-3.374,0.969-6.656,1.833-9.912
			c0.284-1.07,0.372-2.099,0.035-3.184c-2.388-7.687-3.098-15.661-3.904-23.608c-0.606-5.975-1.003-11.971-1.503-17.957
			c-0.032-0.382,0.107-0.788-0.41-1.073c-4.79-2.636-8.968-6.172-13.505-9.182c-1.4-0.057-2.802-0.072-4.204-0.104
			c0.212,1.958,0.319,3.878,0.28,5.776c-0.193,9.386-0.8,18.729-2.851,27.924c-0.419,1.88-0.911,3.739-1.656,5.518
			c-0.244,0.582-0.322,1.483-1.112,1.473c-0.83-0.01-1.054-0.889-1.314-1.545c-0.916-2.32-1.199-4.782-1.423-7.231
			c-0.858-9.386-0.432-18.725,1.13-28.02c0.195-1.158,1.279-2.712,0.499-3.337c-0.803-0.644-2.058,0.757-3.124,1.23
			c-7.896,3.502-16.182,5.722-24.59,7.538c-0.222,0.917-0.388,1.899-0.447,3.005c-0.284,5.302-3.984,6.588-8.159,6.383
			c-16.615-0.816-32.714,4.058-49.302,4.178c-6.194,0.045-11.874,0.348-17.482-2.515c-10.279-5.246-20.858-8.719-32.78-8.671
			c-4.778,0.019-12.082-0.154-14.355-5.497c-2.586-6.081-6.639-6.09-11.555-6.09c-32.359,0.001-64.72,0.086-97.078-0.093
			c-8.659-0.048-17.673,0.443-25.887-1.727c-8.18-2.162-15.661-6.671-23.703-9.435c-0.804,0.535-1.586,1.104-2.398,1.626
			c-4.69,3.02-8.396,6.67-10.235,12.029c-2.276,6.632-7.96,12.148-6.296,20.127c0.103,0.495,0.189,0.844,0.311,1.089
			c0.042,0.001,0.086,0.001,0.128,0.002l-0.084,0.069c-0.014-0.024-0.03-0.045-0.044-0.071c-9.465-0.134-17.505-0.28-23.962-0.44
			c-0.254,0.883-1.109,1.037-2.346,0.987c-2.118-0.085-4.241-0.021-6.362-0.021c0.506-0.374,0.971-0.769,1.413-1.177
			c-7.459-0.252-11.372-0.534-11.208-0.848c5.974-11.432,11.094-23.233,15.982-35.136c-14.851,3.137-29.813,3.803-44.888-1.276
			c-2.477-0.834-4.76-0.411-7.048,0.569c-10.007,4.288-20.346,3.655-30.223,0.447c-6.174-2.005-11.265-1.936-17.346,0.241
			c-21.993,7.871-42.146-8.17-41.028-31.516c1.049-21.904,1.119-43.855,1.671-65.785c0.111-4.401-0.972-8.486-3.399-12.046
			c-5.693-8.349-12.332-16.279-6.33-27.44c1.045-1.943,0.848-5.629-1.307-6.701c-5.404-2.689-3.601-7.345-4.647-11.528
			c-1.461-5.847,0.963-11.38-0.241-16.999c-1.997-9.316-1.023-18.274,1.956-26.953c-16.569,11.708-34.148,21.68-52.267,30.705
			c0.002,0.421,0,0.843,0.002,1.264c0.036,7.75-0.789,15.032-4.91,21.757c-2.918,4.763-2.474,9.777-0.709,14.857
			c3.376,9.719,1.975,20.27,5.314,30.085c1.246,3.663-0.033,7.809-3.11,10.882c-1.988,1.985-3.115,4.383-3.417,7.231
			c-2.735,25.735,0.272,50.842,7.851,75.523c1.277,4.158,5.103,8.714,2.101,12.859c-6.347,8.759-1.454,15.103,4.047,20.76
			c4.075,4.19,7.327,8.678,10.361,13.58c8.147,13.164,17.974,23.231,35.674,20.394c13.042-2.09,26.269,0.284,38.31,4.562
			c18.481,6.567,37.191,6.623,55.735,4.193c26.924-3.529,53.803-0.865,80.67-1.975c3.924-0.162,8.09,0.431,11.73-0.68
			c17.271-5.273,34.839-2.141,52.267-2.3c10.152-0.093,20.327,0.927,29.756,5.149c9.044,4.05,17.688,2.488,27.231,1.2
			c15.433-2.083,31.178-5.612,46.887-2.695c7.923,1.472,15.38,1.652,23.29,0.036c7.039-1.439,14.671-2.422,18.292,6.922
			c1.726,4.453,5.869,3.138,9.49,2.617c10.555-1.519,21.274-2.316,31.514,0.924c13.4,4.24,26.732,3.428,40.396,2.264
			c17.444-1.487,34.982-4.304,52.481-2c15.194,2,30.037,0.953,45.149-0.778c18.237-2.089,36.297-6.13,54.921-5.062
			c7.965,0.456,15.427,3.125,23.27,3.545c33.99,1.822,68.141-3.014,102.094,4.844c13.508,3.126,28.344,0.439,42.575,0.55
			c5.777,0.045,10.787-1.532,14.654-5.906c9.439-10.678,21.564-10.146,33.568-7.144c17.12,4.281,33.038,10.074,49.34-4.797
			c6.719-6.129,17.252-11.278,28.941-10.072c7.249,0.749,14.941-1.725,22.291-3.385c5.561-1.257,10.707-3.375,14.356-8.632
			c2.883-4.152,6.796-7.818,10.876-10.864c10.962-8.184,12.345-18.731,8.194-30.661c-2.033-5.844-1.206-10.972,0.905-16.659
			c3.338-8.993,6.8-18.09,6.79-27.968c-0.025-26.343-0.267-52.69,0.167-79.026c0.114-6.941-3.04-12.838-3.84-19.445
			c-0.995-8.226,3.751-15.102,3.805-23.073C1220.045,977.569,1220.144,958.482,1225.507,938.863z" fill="#B73F3D"></path>
		<path style="" d="M783.029,1181.902c0.098,1.795,0.242,3.589,0.615,5.417c0.692-3.079,1.384-6.158,2.075-9.237
			c-0.97-0.114-1.942-0.25-2.914-0.387C782.882,1179.097,782.952,1180.5,783.029,1181.902z" fill="#B73F3D"></path>
		<path style="" d="M771.702,1180.491c0.468,0.306,0.94,1.015,1.552,0.6c0.458-0.31,0.202-1.015,0.171-1.542
			c-0.06-1.012-0.128-2.022-0.188-3.034c-2.871-0.307-5.747-0.539-8.627-0.721C766.978,1177.353,769.33,1178.938,771.702,1180.491z" fill="#B73F3D"></path>
		<path style="" d="M398.246,1197.353c-0.303-1.973,0.877-3.218,2.568-4.131c4.483-2.422,8.068-5.826,10.472-10.33
			c3.909-7.326,7.119-14.967,10.31-22.617c-4.173-2.45-8.283-2.177-12.67-1.1c-3.486,8.99-7.162,17.906-10.846,26.819
			c-1.832,4.431-3.406,9.029-7.151,12.486c2.143,0.072,4.578,0.142,7.295,0.21C398.321,1198.356,398.334,1197.922,398.246,1197.353z
			" fill="#B73F3D"></path>
	</g>
</g>
</svg></g> <!----></g><g id="shape_OuqqbOcPlX" transform="translate(259.4860255663455,244.6114586875209) rotate(0,16.7308,14.834784621135357) scale(0.7442919103634941,0.7442919103634941)" filter="" style="cursor: move; opacity: 1;"><g><svg xmlns="http://www.w3.org/2000/svg" version="1.1" xmlns:xlink="http://www.w3.org/1999/xlink" overflow="hidden" style="top:0; left: 0" width="33.4616" height="29.669569242270715" viewBox="0 0 22.461599999999997 19.916142578125" preserveAspectRatio="none" data-parent="shape_OuqqbOcPlX"><rect fill="rgba(0,0,0,0)" width="22.461599999999997" height="19.916142578125"></rect> <rect opacity="0"></rect><g transform="translate(0 0)" data-width="16.7165"><path fill="#000000" d="M8.86-12.37L8.86-12.37L8.86-12.37Q9.75-12.90 10.71-12.03L10.71-12.03L10.71-12.03Q11.64-10.76 9.91-10.07L9.91-10.07L9.91-10.07Q9.42-9.84 8.93-9.68L8.93-9.68L8.93-9.68Q8.44-9.44 8.42-9.35L8.42-9.35L8.42-9.35Q8.42-9.21 8.75-9.04L8.75-9.04L8.75-9.04Q9.26-8.64 9.32-8.10L9.32-8.10L9.32-8.10Q9.31-7.30 10.01-7.46L10.01-7.46L10.01-7.46Q11.31-7.56 12.62-7.72L12.62-7.72L12.62-7.72Q13.45-7.92 14.24-7.18L14.24-7.18L14.24-7.18Q14.55-6.82 14.55-6.53L14.55-6.53L14.55-6.53Q14.66-5.93 14.20-5.76L14.20-5.76L14.20-5.76Q12.15-5.93 10.30-5.96L10.30-5.96L10.30-5.96Q9.63-6.07 9.55-5.45L9.55-5.45L9.55-5.45Q9.93-1.80 9.39 0.51L9.39 0.51L9.39 0.51Q9.16 1.08 8.55 1.27L8.55 1.27L8.55 1.27Q7.90 1.62 7.25 2.09L7.25 2.09L7.25 2.09Q6.46 2.66 6.27 1.62L6.27 1.62L6.27 1.62Q6.15 1.09 5.39 0.57L5.39 0.57L5.21 0.34L5.21 0.34Q5.22 0.26 5.71 0.33L5.71 0.33L6.38 0.39L6.38 0.39Q7.43 0.62 7.75-0.44L7.75-0.44L7.75-0.44Q7.77-1.03 7.84-1.76L7.84-1.76L7.84-1.76Q7.93-3.41 7.90-5.13L7.90-5.13L7.90-5.13Q7.92-5.32 7.62-5.44L7.62-5.44L7.62-5.44Q7.13-5.37 6.38-5.03L6.38-5.03L6.38-5.03Q5.14-4.41 3.77-4.42L3.77-4.42L3.77-4.42Q3.31-4.36 2.79-4.93L2.79-4.93L2.79-4.93Q2.19-5.39 2.71-6.04L2.71-6.04L2.71-6.04Q2.95-6.32 3.54-6.45L3.54-6.45L3.54-6.45Q5.24-6.94 7.46-7.17L7.46-7.17L7.46-7.17Q7.67-7.15 7.82-7.40L7.82-7.40L7.82-7.40Q7.87-7.72 7.67-8.64L7.67-8.64L7.67-8.64Q7.71-9.01 7.49-9.24L7.49-9.24L7.49-9.24Q7.40-9.34 7.00-9.39L7.00-9.39L7.00-9.39Q5.96-9.60 5.50-10.79L5.50-10.79L5.50-10.79Q5.26-11.56 6.25-11.72L6.25-11.72L6.25-11.72Q7.66-11.98 8.86-12.37Z" transform="translate(0 13.30463623046875)"></path></g></svg></g> <!----></g><g id="shape_JQAUUcZH2I" transform="translate(155.51259042325603,249.5530702967808) rotate(0,57.1560597,18.88921) scale(0.7442919103634941,0.7442919103634941)" filter="" style="cursor: move; opacity: 1;"><g><svg xmlns="http://www.w3.org/2000/svg" version="1.1" xmlns:xlink="http://www.w3.org/1999/xlink" overflow="hidden" style="top:0; left: 0" width="114.3121194" height="37.77842" viewBox="0 0 114.3121194 37.77842" preserveAspectRatio="none" data-parent="shape_JQAUUcZH2I"><rect fill="rgba(0,0,0,0)" width="114.3121194" height="37.77842"></rect> <rect opacity="0"></rect><g transform="translate(0 0)" data-width="88.7300108"><path fill="#000000" d="M12.84-3.97L12.84-3.97L12.84-3.97Q12.84-4.83 13.44-5.42L13.44-5.42L13.44-5.42Q14.03-6.01 14.88-6.01L14.88-6.01L14.88-6.01Q15.74-6.01 16.33-5.42L16.33-5.42L16.33-5.42Q16.92-4.83 16.92-3.97L16.92-3.97L16.92-3.97Q16.92-3.12 16.33-2.53L16.33-2.53L16.33-2.53Q15.74-1.94 14.88-1.94L14.88-1.94L14.88-1.94Q14.03-1.94 13.44-2.53L13.44-2.53L13.44-2.53Q12.84-3.12 12.84-3.97ZM14.88-11.01L14.88-11.01L14.88-11.01Q16.16-11.01 17.15-11.12L17.15-11.12L17.15-11.12Q18.13-11.23 19.25-11.76L19.25-11.76L19.25-11.76Q20.37-12.29 21.80-13.34L21.80-13.34L21.80-13.34Q23.23-14.39 25.36-16.26L25.36-16.26L25.36-16.26Q25.92-16.72 26.48-16.72L26.48-16.72L26.48-16.72Q27.13-16.72 27.59-16.26L27.59-16.26L27.59-16.26Q28.05-15.80 28.05-15.14L28.05-15.14L28.05-15.14Q28.05-14.78 27.87-14.45L27.87-14.45L27.87-14.45Q27.69-14.13 27.43-13.90L27.43-13.90L27.43-13.90Q25.36-12.06 23.73-10.86L23.73-10.86L23.73-10.86Q22.11-9.66 20.66-8.95L20.66-8.95L20.66-8.95Q19.22-8.25 17.84-7.95L17.84-7.95L17.84-7.95Q16.46-7.65 14.88-7.65L14.88-7.65L14.88-7.65Q13.21-7.65 11.81-7.93L11.81-7.93L11.81-7.93Q10.41-8.21 9.00-8.94L9.00-8.94L9.00-8.94Q7.59-9.66 5.98-10.86L5.98-10.86L5.98-10.86Q4.37-12.06 2.27-13.90L2.27-13.90L2.27-13.90Q2.00-14.13 1.82-14.45L1.82-14.45L1.82-14.45Q1.64-14.78 1.64-15.14L1.64-15.14L1.64-15.14Q1.64-15.80 2.10-16.26L2.10-16.26L2.10-16.26Q2.56-16.72 3.22-16.72L3.22-16.72L3.22-16.72Q3.55-16.72 3.81-16.59L3.81-16.59L3.81-16.59Q4.07-16.46 4.34-16.26L4.34-16.26L4.34-16.26Q6.44-14.42 7.87-13.37L7.87-13.37L7.87-13.37Q9.30-12.32 10.43-11.79L10.43-11.79L10.43-11.79Q11.56-11.27 12.58-11.14L12.58-11.14L12.58-11.14Q13.60-11.01 14.88-11.01Z" transform="translate(0 26.28064)" stroke="#000000" stroke-width="2" stroke-linecap="round" stroke-linejoin="round"></path><path fill="#000000" d="M1.64-9.56L1.64-9.56L1.64-9.56Q1.64-10.81 2.05-12.07L2.05-12.07L2.05-12.07Q2.46-13.34 3.25-14.37L3.25-14.37L3.25-14.37Q4.04-15.41 5.16-16.06L5.16-16.06L5.16-16.06Q6.27-16.72 7.69-16.72L7.69-16.72L26.84-16.72L26.84-16.72Q27.50-16.72 27.96-16.26L27.96-16.26L27.96-16.26Q28.42-15.80 28.42-15.14L28.42-15.14L28.42-15.14Q28.42-14.49 27.96-14.03L27.96-14.03L27.96-14.03Q27.50-13.57 26.84-13.57L26.84-13.57L8.38-13.57L8.38-13.57Q7.23-13.57 6.52-13.16L6.52-13.16L6.52-13.16Q5.81-12.75 5.40-12.15L5.40-12.15L5.40-12.15Q4.99-11.56 4.85-10.86L4.85-10.86L4.85-10.86Q4.70-10.15 4.70-9.56L4.70-9.56L4.70-9.56Q4.70-8.97 4.85-8.26L4.85-8.26L4.85-8.26Q4.99-7.56 5.40-6.96L5.40-6.96L5.40-6.96Q5.81-6.37 6.52-5.96L6.52-5.96L6.52-5.96Q7.23-5.55 8.38-5.55L8.38-5.55L26.84-5.55L26.84-5.55Q27.50-5.55 27.96-5.09L27.96-5.09L27.96-5.09Q28.42-4.63 28.42-3.97L28.42-3.97L28.42-3.97Q28.42-3.32 27.96-2.86L27.96-2.86L27.96-2.86Q27.50-2.40 26.84-2.40L26.84-2.40L7.36-2.40L7.36-2.40Q6.01-2.40 4.96-3.06L4.96-3.06L4.96-3.06Q3.91-3.71 3.17-4.75L3.17-4.75L3.17-4.75Q2.43-5.78 2.04-7.06L2.04-7.06L2.04-7.06Q1.64-8.34 1.64-9.56Z" transform="translate(29.6971232 26.28064)" stroke="#000000" stroke-width="2" stroke-linecap="round" stroke-linejoin="round"></path><path fill="#000000" d="M25.76-2.40L6.14-2.40L6.14-2.40Q5.22-2.40 4.40-2.74L4.40-2.74L4.40-2.74Q3.58-3.09 2.97-3.68L2.97-3.68L2.97-3.68Q2.37-4.27 2.00-5.06L2.00-5.06L2.00-5.06Q1.64-5.85 1.64-6.77L1.64-6.77L1.64-15.14L1.64-15.14Q1.64-15.80 2.10-16.26L2.10-16.26L2.10-16.26Q2.56-16.72 3.22-16.72L3.22-16.72L3.22-16.72Q3.84-16.72 4.32-16.26L4.32-16.26L4.32-16.26Q4.80-15.80 4.80-15.14L4.80-15.14L4.80-6.77L4.80-6.77Q4.80-6.27 5.17-5.91L5.17-5.91L5.17-5.91Q5.55-5.55 6.04-5.55L6.04-5.55L25.76-5.55L25.76-5.55Q26.41-5.55 26.87-5.09L26.87-5.09L26.87-5.09Q27.33-4.63 27.33-3.97L27.33-3.97L27.33-3.97Q27.33-3.32 26.87-2.86L26.87-2.86L26.87-2.86Q26.41-2.40 25.76-2.40L25.76-2.40Z" transform="translate(59.7556052 26.28064)" stroke="#000000" stroke-width="2" stroke-linecap="round" stroke-linejoin="round"></path></g></svg></g> <!----></g>  <!----></svg>